SplineFontDB: 3.2
FontName: BesleyCondensed-BlackItalic
FullName: Besley Condensed Fatface Italic
FamilyName: Besley Condensed Fatface
Weight: Black
Version: 002.100
ItalicAngle: -13
UnderlinePosition: -200
UnderlineWidth: 100
Ascent: 1600
Descent: 400
InvalidEm: 0
LayerCount: 2
Layer: 0 0 "Back" 1
Layer: 1 0 "Fore" 0
PreferredKerning: 4
XUID: [1021 31 -699969567 16487490]
FSType: 0
OS2Version: 0
OS2_WeightWidthSlopeOnly: 0
OS2_UseTypoMetrics: 1
CreationTime: 1460762150
PfmFamily: 17
TTFWeight: 900
TTFWidth: 3
LineGap: 0
VLineGap: 0
OS2TypoAscent: 2500
OS2TypoAOffset: 0
OS2TypoDescent: -850
OS2TypoDOffset: 0
OS2TypoLinegap: 0
OS2WinAscent: 2500
OS2WinAOffset: 0
OS2WinDescent: 850
OS2WinDOffset: 0
HheadAscent: 2500
HheadAOffset: 0
HheadDescent: -850
HheadDOffset: 0
OS2CapHeight: 1500
OS2XHeight: 1040
OS2FamilyClass: 1024
OS2Vendor: 'PfEd'
OS2UnicodeRanges: 00000001.00000000.00000000.00000000
Lookup: 4 0 1 "'liga' Standard Ligatures lookup 0" { "'liga' Standard Ligatures lookup 0 subtable"  } ['liga' ('DFLT' <'dflt' > 'grek' <'dflt' > 'latn' <'dflt' > ) ]
Lookup: 1 0 0 "'onum' Oldstyle Figures lookup 1" { "'onum' Oldstyle Figures lookup 1 subtable" ("oldstyle") } ['onum' ('DFLT' <'dflt' > 'grek' <'dflt' > 'latn' <'dflt' > ) ]
Lookup: 1 0 0 "'tnum' Tabular Numbers lookup 2" { "'tnum' Tabular Numbers lookup 2 subtable"  } ['tnum' ('DFLT' <'dflt' > 'grek' <'dflt' > 'latn' <'dflt' > ) ]
Lookup: 1 0 0 "'ss01' Style Set 1 lookup 3" { "'ss01' Style Set 1 lookup 3 subtable"  } ['ss01' ('DFLT' <'dflt' > 'grek' <'dflt' > 'latn' <'dflt' > ) ]
Lookup: 6 0 0 "'calt' Contextual Alternates lookup 4" { "'calt' Contextual Alternates lookup 4 contextual 0"  "'calt' Contextual Alternates lookup 4 contextual 1"  } ['calt' ('DFLT' <'dflt' > 'grek' <'dflt' > 'latn' <'dflt' > ) ]
Lookup: 1 0 0 "'smcp' Lowercase to Small Capitals in Latin lookup 0" { "'smcp' Lowercase to Small Capitals in Latin lookup 0 subtable"  } ['smcp' ('latn' <'dflt' > ) ]

StartChar: ampersand
Encoding: 38 38 0
GlifName: ampersand
Width: 1840
Flags: W
HStem: -70 252<1213.5 1494.79> -30 250<317 799.81> 648 370<1337.23 1470> 1380 160<908.542 1207.52>
VStem: 2 460<254.119 519.495> 398 450<1035.82 1309.39> 1084 428<1157.82 1376.43> 1470 310<607.419 831>
LayerCount: 2
Fore
SplineSet
1366 648 m 0
 1276 648 1228 716 1228 812 c 0
 1228 952 1380 1018 1518 1018 c 0
 1694 1018 1780 912 1780 750 c 0
 1780 592 1602 400 1351 246 c 0
 1311 222 1283 203 1349 187 c 0
 1365 183 1385 182 1408 182 c 0
 1440 182 1480 202 1515 242 c 0
 1542 273 1539 294 1577 266 c 2
 1689 183 l 2
 1718 161 1722 160 1699 129 c 0
 1605 1 1446 -70 1262 -70 c 0
 1165 -70 1057 -49 972 24 c 0
 933 58 921 47 864 31 c 0
 729 -8 591 -30 460 -30 c 0
 174 -30 2 114 2 320 c 0
 2 607 207 733 438 827 c 0
 492 849 502 845 474 896 c 0
 430 977 398 1078 398 1166 c 0
 398 1406 708 1540 1080 1540 c 0
 1334 1540 1512 1458 1512 1310 c 0
 1512 1077 1280 986 1034 894 c 0
 968 869 961 872 993 810 c 2
 1176 452 l 2
 1204 397 1204 391 1255 426 c 0
 1390 520 1470 615 1470 642 c 0
 1470 654 1468 660 1458 660 c 0
 1440 660 1434 648 1366 648 c 0
462 380 m 0
 462 256 522 220 630 220 c 0
 682 220 733 224 782 232 c 0
 842 241 827 250 804 292 c 2
 623 623 l 2
 591 681 585 671 545 622 c 0
 493 558 462 480 462 380 c 0
1084 1310 m 0
 1084 1344 1072 1380 1026 1380 c 0
 952 1380 848 1326 848 1220 c 0
 848 1175 858 1130 879 1067 c 0
 895 1019 897 1015 937 1044 c 0
 1026 1108 1084 1190 1084 1310 c 0
EndSplineSet
EndChar

StartChar: period
Encoding: 46 46 1
GlifName: period
Width: 620
Flags: W
HStem: -40 480<76.0547 343.945>
VStem: -30 480<66.0547 333.945>
LayerCount: 2
Fore
SplineSet
-30 200 m 0
 -30 332 78 440 210 440 c 0
 342 440 450 332 450 200 c 0
 450 68 342 -40 210 -40 c 0
 78 -40 -30 68 -30 200 c 0
EndSplineSet
EndChar

StartChar: zero
Encoding: 48 48 2
GlifName: zero
Width: 1120
Flags: W
HStem: -20 210<426.198 529.478> 1310 210<657.249 951.621>
LayerCount: 2
Fore
SplineSet
86 750 m 0
 211 1316 421 1520 767 1520 c 0
 1133 1520 1231 1316 1106 750 c 0
 981 184 752 -20 426 -20 c 0
 80 -20 -39 184 86 750 c 0
506 750 m 0
 399 266 404 190 472 190 c 0
 550 190 579 266 686 750 c 0
 793 1234 798 1310 720 1310 c 0
 652 1310 613 1234 506 750 c 0
EndSplineSet
Substitution2: "'onum' Oldstyle Figures lookup 1 subtable" zero.oldstyle
Substitution2: "'tnum' Tabular Numbers lookup 2 subtable" uniFF10
EndChar

StartChar: one
Encoding: 49 49 3
GlifName: one
Width: 920
Flags: W
HStem: 0 210<-22.3582 196.672 586.224 728.394> 1070 211<248.667 367.794> 1510 20G<706 839.5>
VStem: 648 211<1432.79 1525>
LayerCount: 2
Fore
SplineSet
-46 65 m 2
 -23 166 l 2
 -14 208 -3 210 40 210 c 2
 132 210 l 2
 181 210 189 217 199 264 c 2
 367 1023 l 2
 376 1063 368 1070 330 1070 c 2
 256 1070 l 2
 223 1070 212 1073 220 1109 c 2
 246 1229 l 2
 258 1283 290 1279 337 1281 c 0
 422 1285 516 1310 648 1485 c 0
 672 1517 680 1530 732 1530 c 2
 818 1530 l 2
 861 1530 868 1525 859 1484 c 2
 589 266 l 2
 577 212 587 210 642 210 c 2
 714 210 l 2
 747 210 766 206 758 170 c 2
 733 59 l 2
 722 10 718 0 669 0 c 2
 5 0 l 2
 -53 0 -59 5 -46 65 c 2
EndSplineSet
Substitution2: "'onum' Oldstyle Figures lookup 1 subtable" one.oldstyle
Substitution2: "'tnum' Tabular Numbers lookup 2 subtable" uniFF11
EndChar

StartChar: two
Encoding: 50 50 4
GlifName: two
Width: 1094
Flags: W
HStem: -20 401<499 777.611> 0 21G<-48.5 135.5> 1336 184<571.489 902>
VStem: 841 196<427.302 553.832>
LayerCount: 2
Fore
SplineSet
1037 510 m 0
 944 141 839 -20 591 -20 c 0
 407 -20 393 100 307 100 c 0
 250 100 207 74 175 34 c 0
 153 7 158 0 113 0 c 2
 -29 0 l 2
 -68 0 -73 4 -65 42 c 0
 -2 320 156 626 478 808 c 0
 624 891 675 972 714 1150 c 0
 745 1288 733 1336 665 1336 c 0
 617 1336 565 1302 559 1274 c 0
 551 1238 681 1228 643 1056 c 0
 613 922 492 850 378 850 c 0
 260 850 166 946 201 1102 c 0
 262 1376 472 1520 766 1520 c 0
 1038 1520 1183 1360 1134 1140 c 0
 1081 900 801 768 617 670 c 0
 429 571 372 516 322 441 c 0
 279 375 227 301 249 301 c 0
 272 301 273 356 348 414 c 0
 405 458 453 469 489 469 c 0
 599 469 609 381 701 381 c 0
 778 381 810 431 841 510 c 0
 856 552 852 554 900 554 c 2
 1006 554 l 2
 1050 554 1046 552 1037 510 c 0
EndSplineSet
Substitution2: "'onum' Oldstyle Figures lookup 1 subtable" two.oldstyle
Substitution2: "'tnum' Tabular Numbers lookup 2 subtable" uniFF12
EndChar

StartChar: three
Encoding: 51 51 5
GlifName: three
Width: 960
Flags: W
HStem: -20 184<279.322 412.035> 1346 174<500.518 835>
LayerCount: 2
Fore
SplineSet
-3 348 m 0
 27 484 141 590 289 590 c 0
 423 590 477 518 456 424 c 0
 422 272 285 262 275 216 c 0
 267 182 300 164 328 164 c 0
 406 164 445 212 491 420 c 0
 521 556 495 655 425 670 c 0
 389 678 371 663 381 707 c 2
 410 838 l 2
 419 877 425 866 460 872 c 0
 547 886 598 995 631 1142 c 0
 664 1290 638 1346 570 1346 c 0
 542 1346 503 1330 495 1296 c 0
 485 1250 621 1260 590 1118 c 0
 571 1034 473 952 349 952 c 0
 231 952 128 1028 160 1174 c 0
 203 1368 395 1520 699 1520 c 0
 971 1520 1084 1372 1033 1142 c 0
 1001 998 902 888 785 818 c 0
 741 792 705 789 702 775 c 0
 698 758 722 759 766 732 c 0
 870 669 925 561 889 400 c 0
 822 100 600 -20 298 -20 c 0
 14 -20 -46 154 -3 348 c 0
EndSplineSet
Substitution2: "'onum' Oldstyle Figures lookup 1 subtable" three.oldstyle
Substitution2: "'tnum' Tabular Numbers lookup 2 subtable" uniFF13
EndChar

StartChar: four
Encoding: 52 52 6
GlifName: four
Width: 984
Flags: W
HStem: 0 210<214.427 371.744 761.926 814.25> 410 210<332.649 397.573 853.543 936.356> 1480 20G<727 1051.5>
VStem: 762 152<892.088 969.633>
LayerCount: 2
Fore
SplineSet
842 164 m 2
 814 36 l 2
 807 3 798 0 764 0 c 2
 232 0 l 2
 185 0 177 1 187 48 c 2
 213 165 l 2
 221 201 230 210 267 210 c 2
 316 210 l 2
 360 210 364 217 374 262 c 2
 395 356 l 2
 407 410 407 410 353 410 c 2
 55 410 l 2
 12 410 13 418 5 444 c 2
 -13 502 l 2
 -20 523 -11 532 5 554 c 0
 232 868 483 1048 674 1444 c 0
 694 1486 699 1500 755 1500 c 2
 1025 1500 l 2
 1078 1500 1085 1495 1067 1448 c 0
 917 1062 605 911 360 692 c 0
 326 662 292 620 370 620 c 2
 415 620 l 2
 450 620 455 628 463 664 c 2
 473 710 l 2
 483 757 494 754 529 771 c 0
 603 806 702 854 762 940 c 0
 775 960 784 970 815 970 c 2
 881 970 l 2
 912 970 921 969 914 938 c 2
 856 678 l 2
 849 645 852 620 889 620 c 2
 937 620 l 2
 969 620 972 612 965 582 c 2
 939 466 l 2
 929 420 927 410 881 410 c 2
 851 410 l 2
 810 410 796 406 786 362 c 2
 764 262 l 2
 754 217 758 210 805 210 c 2
 809 210 l 2
 848 210 851 204 842 164 c 2
EndSplineSet
Substitution2: "'onum' Oldstyle Figures lookup 1 subtable" four.oldstyle
Substitution2: "'tnum' Tabular Numbers lookup 2 subtable" uniFF14
EndChar

StartChar: five
Encoding: 53 53 7
GlifName: five
Width: 930
Flags: W
HStem: -20 164<294.818 365.941> 782 218<470.5 824> 1120 380<417.165 837.816>
LayerCount: 2
Fore
SplineSet
-30 318 m 0
 2 464 122 550 250 550 c 0
 374 550 436 468 413 364 c 0
 384 232 301 242 291 196 c 0
 283 162 306 144 324 144 c 0
 372 144 435 302 481 510 c 0
 529 728 523 782 485 782 c 0
 456 782 430 763 320 655 c 0
 299 634 286 624 247 624 c 2
 183 624 l 2
 129 624 138 642 153 686 c 2
 377 1460 l 2
 389 1498 400 1500 442 1500 c 2
 497 1500 l 2
 698 1500 792 1468 875 1543 c 0
 891 1558 903 1564 934 1564 c 2
 1039 1564 l 2
 1065 1564 1074 1557 1064 1534 c 2
 1054 1500 l 2
 1003 1334 962 1120 628 1120 c 2
 473 1120 l 2
 435 1120 422 1111 417 1078 c 2
 379 930 l 2
 373 893 355 850 362 846 c 0
 375 837 398 863 428 896 c 0
 489 962 567 1000 678 1000 c 0
 970 1000 943 780 881 500 c 0
 806 160 670 -20 328 -20 c 0
 24 -20 -75 114 -30 318 c 0
EndSplineSet
Substitution2: "'onum' Oldstyle Figures lookup 1 subtable" five.oldstyle
Substitution2: "'tnum' Tabular Numbers lookup 2 subtable" uniFF15
EndChar

StartChar: six
Encoding: 54 54 8
GlifName: six
Width: 1010
Flags: W
HStem: -20 230<213 475.121> 722 238<520 856> 1366 154<661.642 902>
LayerCount: 2
Fore
SplineSet
754 1342 m 0
 758 1358 749 1366 731 1366 c 0
 633 1366 590 1197 496 864 c 0
 486 829 478 815 484 811 c 0
 492 806 505 817 524 842 c 0
 581 914 655 960 745 960 c 0
 967 960 1030 810 961 500 c 0
 879 130 676 -20 374 -20 c 0
 52 -20 -62 170 64 740 c 0
 170 1220 393 1520 765 1520 c 0
 1039 1520 1105 1376 1071 1222 c 0
 1041 1086 940 990 801 990 c 0
 667 990 594 1062 619 1176 c 0
 644 1288 748 1316 754 1342 c 0
554 470 m 0
 596 658 576 722 538 722 c 0
 502 722 437 620 402 460 c 0
 367 302 367 210 425 210 c 0
 473 210 515 292 554 470 c 0
EndSplineSet
Substitution2: "'tnum' Tabular Numbers lookup 2 subtable" uniFF16
EndChar

StartChar: seven
Encoding: 55 55 9
GlifName: seven
Width: 1027
Flags: W
HStem: -20 21G<288 441> 1134 386<368.446 554.841> 1480 20G<1049 1209.5>
LayerCount: 2
Fore
SplineSet
88 982 m 0
 179 1347 326 1520 527 1520 c 0
 721 1520 715 1400 881 1400 c 0
 949 1400 988 1427 1018 1471 c 0
 1030 1489 1035 1500 1063 1500 c 2
 1192 1500 l 2
 1227 1500 1231 1493 1219 1460 c 0
 1162 1305 932 993 734 756 c 0
 593 586 536 532 521 464 c 0
 500 368 676 368 642 216 c 0
 617 102 520 -20 362 -20 c 0
 214 -20 121 74 160 252 c 0
 199 430 320 540 497 762 c 0
 594 884 652 965 778 1100 c 0
 816 1141 849 1176 841 1186 c 0
 829 1201 791 1165 762 1136 c 0
 714 1088 673 1076 619 1076 c 0
 529 1076 542 1134 460 1134 c 0
 393 1134 297 1082 264 980 c 0
 257 957 261 946 233 946 c 2
 117 946 l 2
 87 946 81 954 88 982 c 0
EndSplineSet
Substitution2: "'onum' Oldstyle Figures lookup 1 subtable" seven.oldstyle
Substitution2: "'tnum' Tabular Numbers lookup 2 subtable" uniFF17
EndChar

StartChar: eight
Encoding: 56 56 10
GlifName: eight
Width: 1050
Flags: W
HStem: -20 190<201.205 486.754> 1330 190<635.436 893.143>
LayerCount: 2
Fore
SplineSet
398 444 m 0
 347 216 380 170 428 170 c 0
 476 170 517 216 568 444 c 0
 616 662 598 720 550 720 c 0
 502 720 446 662 398 444 c 0
185 1150 m 0
 234 1370 405 1520 727 1520 c 0
 1059 1520 1164 1370 1115 1150 c 0
 1083 1004 957 897 822 842 c 0
 788 828 762 824 759 810 c 0
 756 798 781 792 807 780 c 0
 947 716 1021 591 983 420 c 0
 925 160 748 -20 386 -20 c 0
 24 -20 -65 160 -7 420 c 0
 33 600 166 731 347 790 c 0
 370 797 383 797 386 812 c 0
 389 826 366 827 353 832 c 0
 230 884 150 994 185 1150 c 0
565 1105 m 0
 532 957 552 900 590 900 c 0
 648 900 672 957 705 1105 c 0
 738 1253 739 1330 691 1330 c 0
 643 1330 598 1253 565 1105 c 0
EndSplineSet
Substitution2: "'tnum' Tabular Numbers lookup 2 subtable" uniFF18
EndChar

StartChar: nine
Encoding: 57 57 11
GlifName: nine
Width: 1010
Flags: W
HStem: -20 154<181 421.346> 540 238<227 562> 1290 230<601.171 870>
LayerCount: 2
Fore
SplineSet
329 158 m 0
 325 142 334 134 352 134 c 0
 450 134 493 303 587 636 c 0
 597 671 605 685 599 689 c 0
 591 694 578 683 559 658 c 0
 502 586 428 540 338 540 c 0
 116 540 53 690 122 1000 c 0
 204 1370 407 1520 709 1520 c 0
 1031 1520 1144 1330 1018 760 c 0
 912 280 690 -20 318 -20 c 0
 44 -20 -22 124 12 278 c 0
 42 414 142 510 281 510 c 0
 415 510 489 438 464 324 c 0
 439 212 335 184 329 158 c 0
528 1030 m 0
 486 842 506 778 544 778 c 0
 580 778 646 880 681 1040 c 0
 716 1198 716 1290 658 1290 c 0
 610 1290 567 1208 528 1030 c 0
EndSplineSet
Substitution2: "'onum' Oldstyle Figures lookup 1 subtable" nine.oldstyle
Substitution2: "'tnum' Tabular Numbers lookup 2 subtable" uniFF19
EndChar

StartChar: A
Encoding: 65 65 12
GlifName: A_
Width: 1390
Flags: W
HStem: 0 270<-79.6841 90.997 377.997 440 530.018 655.35 1179.43 1309.99> 420 250<539.562 663.819> 1490 20G<663 1109.5>
AnchorPoint: "Anchor-0" 903 1500 basechar 0
AnchorPoint: "Anchor-1" 486 0 basechar 0
AnchorPoint: "Anchor-2" 1056 0 basechar 0
AnchorPoint: "Anchor-3" 1056 0 basechar 0
LayerCount: 2
Fore
SplineSet
659 999 m 2
 548 735 l 2
 536 706 521 670 575 670 c 2
 636 670 l 2
 682 670 682 703 684 731 c 2
 704 1003 l 2
 705 1023 698 1030 690 1030 c 0
 679 1030 666 1016 659 999 c 2
-80 57 m 2
 -80 221 l 2
 -80 255 -72 270 -34 270 c 2
 51 270 l 2
 84 270 81 285 91 307 c 2
 623 1477 l 2
 637 1508 640 1510 686 1510 c 2
 1086 1510 l 2
 1133 1510 1151 1499 1152 1467 c 2
 1178 331 l 2
 1179 293 1188 270 1245 270 c 2
 1257 270 l 2
 1292 270 1310 270 1310 231 c 2
 1310 45 l 2
 1310 5 1304 0 1265 0 c 2
 571 0 l 2
 531 0 530 9 530 49 c 2
 530 227 l 2
 530 265 536 270 573 270 c 2
 607 270 l 2
 655 270 651 280 656 319 c 2
 664 387 l 2
 667 414 656 420 617 420 c 2
 470 420 l 2
 431 420 418 423 408 395 c 2
 378 313 l 2
 367 282 377 270 403 270 c 2
 407 270 l 2
 439 270 440 261 440 229 c 2
 440 37 l 2
 440 4 430 0 399 0 c 2
 -14 0 l 2
 -70 0 -80 1 -80 57 c 2
EndSplineSet
Substitution2: "'c2sc' Capitals to Small Capitals in Latin lookup 1 subtable" a.sc
EndChar

StartChar: B
Encoding: 66 66 13
GlifName: B_
Width: 1210
Flags: W
HStem: 0 270<-64.6026 70.3197 497.575 632.523> 1230 270<160.179 259.879 694.562 790.341>
VStem: 703 477<359.261 632.463> 792 494<1046.44 1340>
AnchorPoint: "Anchor-0" 723 1500 basechar 0
AnchorPoint: "Anchor-1" 426 0 basechar 0
AnchorPoint: "Anchor-2" 426 0 basechar 0
LayerCount: 2
Fore
SplineSet
670 0 m 2
 -18 0 l 2
 -64 0 -65 19 -65 66 c 2
 -65 240 l 2
 -65 266 -54 270 -30 270 c 2
 8 270 l 2
 52 270 66 289 75 332 c 2
 260 1178 l 2
 260 1214 254 1230 219 1230 c 2
 203 1230 l 2
 166 1230 160 1236 160 1272 c 2
 160 1448 l 2
 160 1488 169 1500 207 1500 c 2
 820 1500 l 2
 1132 1500 1286 1440 1286 1240 c 0
 1286 965 1074 859 945 805 c 0
 927 797 917 789 917 781 c 0
 917 773 929 766 951 760 c 0
 1123 714 1180 613 1180 510 c 0
 1180 240 1002 0 670 0 c 2
560 270 m 2
 642 270 703 422 703 540 c 0
 703 608 672 640 630 640 c 2
 611 640 l 2
 585 640 566 623 560 596 c 2
 500 326 l 2
 491 287 496 270 535 270 c 2
 560 270 l 2
662 910 m 2
 685 910 l 2
 737 910 792 1072 792 1160 c 0
 792 1208 779 1230 747 1230 c 2
 738 1230 l 2
 707 1230 704 1227 697 1198 c 2
 645 969 l 2
 634 921 638 910 662 910 c 2
EndSplineSet
Substitution2: "'c2sc' Capitals to Small Capitals in Latin lookup 1 subtable" b.sc
EndChar

StartChar: C
Encoding: 67 67 14
GlifName: C_
Width: 1208
Flags: W
HStem: -40 268<358 724.358> 1284 256<559.175 921.927> 1490 20G<1166.5 1349.5>
VStem: 27 509<251.239 722.383>
AnchorPoint: "Anchor-0" 905 1500 basechar 0
AnchorPoint: "Anchor-1" 537 0 basechar 0
AnchorPoint: "Anchor-2" 537 0 basechar 0
LayerCount: 2
Fore
SplineSet
1197 542 m 0
 1080 202 887 -40 542 -40 c 0
 174 -40 27 134 27 429 c 0
 27 999 332 1540 792 1540 c 0
 912 1540 981 1487 1024 1431 c 0
 1053 1393 1054 1395 1090 1444 c 2
 1122 1488 l 2
 1138 1509 1148 1510 1185 1510 c 2
 1325 1510 l 2
 1374 1510 1373 1501 1362 1452 c 2
 1256 974 l 2
 1248 936 1242 930 1202 930 c 2
 989 930 l 2
 941 930 936 941 936 977 c 0
 936 1157 955 1284 855 1284 c 0
 712 1284 536 713 536 405 c 0
 536 288 567 228 641 228 c 0
 727 228 795 338 876 522 c 0
 900 577 910 590 959 590 c 2
 1155 590 l 2
 1208 590 1210 579 1197 542 c 0
EndSplineSet
Substitution2: "'c2sc' Capitals to Small Capitals in Latin lookup 1 subtable" c.sc
EndChar

StartChar: D
Encoding: 68 68 15
GlifName: D_
Width: 1320
Flags: W
HStem: 0 270<-70 69.2922 539.218 664.646> 1230 270<160.194 261.406 732.629 857.327>
VStem: 890 490<736.42 1206.58>
AnchorPoint: "Anchor-0" 783 1500 basechar 0
AnchorPoint: "Anchor-1" 483 0 basechar 0
AnchorPoint: "Anchor-2" 483 0 basechar 0
LayerCount: 2
Fore
SplineSet
-70 34 m 2
 -70 230 l 2
 -70 263 -62 270 -31 270 c 2
 33 270 l 2
 69 270 62 281 70 316 c 2
 260 1179 l 2
 269 1220 254 1230 213 1230 c 2
 209 1230 l 2
 165 1230 160 1236 160 1278 c 2
 160 1447 l 2
 160 1492 170 1500 213 1500 c 2
 820 1500 l 2
 1226 1500 1380 1326 1380 1050 c 0
 1380 645 1206 0 610 0 c 2
 -22 0 l 2
 -55 0 -70 1 -70 34 c 2
578 270 m 2
 600 270 l 2
 758 270 890 816 890 1060 c 0
 890 1174 858 1230 780 1230 c 2
 769 1230 l 2
 742 1230 740 1220 730 1174 c 2
 540 316 l 2
 531 274 543 270 578 270 c 2
EndSplineSet
Substitution2: "'c2sc' Capitals to Small Capitals in Latin lookup 1 subtable" d.sc
EndChar

StartChar: E
Encoding: 69 69 16
GlifName: E_
Width: 1170
Flags: W
HStem: 0 270<-69.6149 69.9973 539.997 786.236> 1230 270<165.041 265.002 735.936 976.574>
AnchorPoint: "Anchor-0" 753 1500 basechar 0
AnchorPoint: "Anchor-1" 456 0 basechar 0
AnchorPoint: "Anchor-2" 896 0 basechar 0
AnchorPoint: "Anchor-3" 896 0 basechar 0
LayerCount: 2
Fore
SplineSet
600 592 m 2
 540 310 l 2
 530 265 549 270 594 270 c 2
 620 270 l 2
 804 270 882 361 929 592 c 0
 939 642 945 650 1000 650 c 2
 1120 650 l 2
 1165 650 1169 642 1160 600 c 2
 1040 40 l 2
 1031 0 1038 0 996 0 c 2
 -20 0 l 2
 -60 0 -70 13 -70 56 c 2
 -70 218 l 2
 -70 252 -67 270 -34 270 c 2
 16 270 l 2
 59 270 61 271 70 312 c 2
 265 1192 l 2
 272 1225 257 1230 221 1230 c 2
 211 1230 l 2
 169 1230 165 1238 165 1278 c 2
 165 1454 l 2
 165 1499 179 1500 221 1500 c 2
 1290 1500 l 2
 1329 1500 1332 1489 1332 1452 c 2
 1220 948 l 2
 1212 912 1210 910 1172 910 c 2
 1022 910 l 2
 992 910 984 925 989 950 c 0
 1033 1154 1005 1230 835 1230 c 2
 793 1230 l 2
 754 1230 745 1224 735 1183 c 2
 670 918 l 2
 659 873 666 860 678 860 c 2
 679 860 l 2
 702 860 740 945 766 1038 c 0
 774 1068 793 1086 821 1086 c 2
 912 1086 l 2
 955 1086 969 1078 960 1038 c 2
 830 458 l 2
 823 425 815 416 778 416 c 2
 690 416 l 2
 649 416 626 436 635 468 c 0
 659 559 659 650 632 650 c 2
 631 650 l 2
 614 650 608 631 600 592 c 2
EndSplineSet
Substitution2: "'c2sc' Capitals to Small Capitals in Latin lookup 1 subtable" e.sc
EndChar

StartChar: F
Encoding: 70 70 17
GlifName: F_
Width: 1150
Flags: W
HStem: 0 270<-68.5566 69.7641 540.312 680.924> 1230 270<170 265.002 732.656 981.314>
VStem: 629 191<376 469> 769 191<973 1066>
AnchorPoint: "Anchor-0" 793 1500 basechar 0
AnchorPoint: "Anchor-1" 266 0 basechar 0
AnchorPoint: "Anchor-2" 266 0 basechar 0
LayerCount: 2
Fore
SplineSet
-69 55 m 2
 -69 231 l 2
 -69 259 -60 270 -31 270 c 2
 28 270 l 2
 58 270 62 279 71 318 c 2
 265 1195 l 2
 271 1224 262 1230 234 1230 c 2
 195 1230 l 2
 172 1230 170 1248 170 1272 c 2
 170 1464 l 2
 170 1489 179 1500 204 1500 c 2
 1299 1500 l 2
 1331 1500 1342 1491 1335 1460 c 2
 1214 921 l 2
 1208 894 1187 890 1158 890 c 2
 1030 890 l 2
 994 890 977 891 984 925 c 0
 1029 1135 1042 1230 820 1230 c 2
 782 1230 l 2
 750 1230 742 1228 735 1197 c 2
 660 851 l 2
 660 841 663 837 669 837 c 2
 671 837 l 2
 714 837 741 929 769 1049 c 0
 772 1064 788 1066 804 1066 c 2
 927 1066 l 2
 948 1066 965 1057 960 1036 c 2
 820 406 l 2
 815 383 804 376 778 376 c 2
 658 376 l 2
 629 376 625 397 629 423 c 0
 647 541 652 615 620 615 c 2
 619 615 l 2
 607 615 603 599 599 580 c 2
 541 317 l 2
 533 279 546 270 588 270 c 2
 644 270 l 2
 681 270 681 250 681 213 c 2
 681 47 l 2
 681 5 655 0 614 0 c 2
 -28 0 l 2
 -61 0 -69 23 -69 55 c 2
EndSplineSet
Substitution2: "'c2sc' Capitals to Small Capitals in Latin lookup 1 subtable" f.sc
EndChar

StartChar: G
Encoding: 71 71 18
GlifName: G_
Width: 1310
Flags: W
HStem: -40 250<341.164 636.595> 590 270<675.487 741.811 1191.47 1303.76> 1284 256<774.989 915.143> 1490 20G<1175.5 1355>
VStem: 15 500<216.939 672.01> 675 629<590.235 859.369>
AnchorPoint: "Anchor-0" 895 1500 basechar 0
AnchorPoint: "Anchor-1" 507 0 basechar 0
AnchorPoint: "Anchor-2" 507 0 basechar 0
LayerCount: 2
Fore
SplineSet
743 860 m 2
 1245 860 l 2
 1290 860 1304 855 1304 808 c 2
 1304 626 l 2
 1304 592 1283 590 1248 590 c 2
 1238 590 l 2
 1207 590 1200 586 1193 556 c 2
 1144 334 l 2
 1134 288 1121 278 1098 251 c 0
 970 102 868 -40 531 -40 c 0
 156 -40 15 134 15 429 c 0
 15 1013 315 1540 801 1540 c 0
 947 1540 995 1471 1015 1438 c 0
 1038 1400 1059 1412 1091 1444 c 2
 1137 1492 l 2
 1150 1505 1163 1510 1188 1510 c 2
 1338 1510 l 2
 1372 1510 1384 1507 1377 1474 c 2
 1278 1029 l 2
 1268 985 1264 970 1220 970 c 2
 1024 970 l 2
 967 970 973 983 965 1020 c 0
 929 1192 935 1284 845 1284 c 0
 690 1284 515 640 515 343 c 0
 515 256 534 210 577 210 c 0
 635 210 660 285 697 384 c 0
 708 414 715 431 725 474 c 2
 741 544 l 2
 750 583 748 590 710 590 c 2
 706 590 l 2
 660 590 675 610 675 652 c 2
 675 810 l 2
 675 858 698 860 743 860 c 2
EndSplineSet
Substitution2: "'c2sc' Capitals to Small Capitals in Latin lookup 1 subtable" g.sc
EndChar

StartChar: H
Encoding: 72 72 19
GlifName: H_
Width: 1440
Flags: W
HStem: 0 270<-68.9914 68.4896 536.523 618.357 661.947 779.019 1248.48 1348.15> 650 250<678.664 846.485> 1230 270<160.655 260.759 730.002 848.273 890.488 968.438 1441.66 1579.42>
AnchorPoint: "Anchor-0" 855 1500 basechar 0
AnchorPoint: "Anchor-1" 636 0 basechar 0
AnchorPoint: "Anchor-2" 636 0 basechar 0
LayerCount: 2
Fore
SplineSet
-70 67 m 2
 -70 206 l 2
 -70 251 -68 270 -23 270 c 2
 5 270 l 2
 34 270 60 273 70 320 c 2
 260 1184 l 2
 269 1223 249 1230 206 1230 c 2
 205 1230 l 2
 173 1230 160 1235 160 1290 c 2
 160 1444 l 2
 160 1493 185 1500 230 1500 c 2
 770 1500 l 2
 827 1500 850 1494 850 1432 c 2
 850 1278 l 2
 850 1235 844 1230 803 1230 c 2
 793 1230 l 2
 767 1230 737 1223 730 1188 c 2
 680 950 l 2
 671 908 692 900 742 900 c 2
 867 900 l 2
 917 900 910 913 920 962 c 2
 970 1196 l 2
 977 1227 968 1230 945 1230 c 2
 937 1230 l 2
 897 1230 890 1233 890 1282 c 2
 890 1439 l 2
 890 1493 898 1500 950 1500 c 2
 1520 1500 l 2
 1558 1500 1580 1493 1580 1461 c 2
 1580 1288 l 2
 1580 1249 1572 1230 1530 1230 c 2
 1481 1230 l 2
 1443 1230 1448 1216 1440 1179 c 2
 1250 320 l 2
 1242 284 1231 270 1269 270 c 2
 1299 270 l 2
 1344 270 1350 260 1350 213 c 2
 1350 81 l 2
 1350 8 1341 0 1270 0 c 2
 740 0 l 2
 681 0 660 7 660 70 c 2
 660 225 l 2
 660 263 673 270 709 270 c 2
 718 270 l 2
 745 270 770 273 780 318 c 2
 845 599 l 2
 854 640 846 650 806 650 c 2
 662 650 l 2
 621 650 615 638 605 597 c 2
 540 329 l 2
 530 287 531 270 575 270 c 2
 577 270 l 2
 607 270 620 267 620 228 c 2
 620 65 l 2
 620 6 594 0 540 0 c 2
 0 0 l 2
 -58 0 -70 6 -70 67 c 2
EndSplineSet
Substitution2: "'c2sc' Capitals to Small Capitals in Latin lookup 1 subtable" h.sc
EndChar

StartChar: I
Encoding: 73 73 20
GlifName: I_
Width: 770
Flags: W
HStem: 0 270<-69.8438 89.1812 559.997 679.956> 1230 270<160.145 281.994 751.918 909.738>
AnchorPoint: "Anchor-0" 565 1500 basechar 0
AnchorPoint: "Anchor-1" 242 0 basechar 0
AnchorPoint: "Anchor-2" 242 0 basechar 0
AnchorPoint: "Anchor-3" 242 0 basechar 0
LayerCount: 2
Fore
SplineSet
-70 56 m 2
 -70 221 l 2
 -70 266 -57 270 -15 270 c 2
 43 270 l 2
 81 270 81 278 90 317 c 2
 280 1176 l 2
 289 1217 278 1230 235 1230 c 2
 213 1230 l 2
 172 1230 160 1234 160 1278 c 2
 160 1443 l 2
 160 1491 162 1500 210 1500 c 2
 856 1500 l 2
 904 1500 910 1489 910 1444 c 2
 910 1284 l 2
 910 1236 903 1230 857 1230 c 2
 800 1230 l 2
 756 1230 759 1218 750 1178 c 2
 560 314 l 2
 551 273 570 270 614 270 c 2
 632 270 l 2
 665 270 680 269 680 236 c 2
 680 50 l 2
 680 5 674 0 630 0 c 2
 -20 0 l 2
 -66 0 -70 9 -70 56 c 2
EndSplineSet
Substitution2: "'c2sc' Capitals to Small Capitals in Latin lookup 1 subtable" i.sc
EndChar

StartChar: J
Encoding: 74 74 21
GlifName: J_
Width: 1112
Flags: W
HStem: -40 230<347.551 444.607> 1230 270<454.097 656.617 1105.36 1263.9>
VStem: -50 390<192.611 492>
AnchorPoint: "Anchor-0" 895 1500 basechar 0
AnchorPoint: "Anchor-1" 288 0 basechar 0
AnchorPoint: "Anchor-2" 288 0 basechar 0
LayerCount: 2
Fore
SplineSet
-50 390 m 0
 -50 594 38 740 218 740 c 0
 372 740 446 648 446 522 c 0
 446 342 340 304 340 248 c 0
 340 214 368 190 402 190 c 0
 454 190 456 270 502 480 c 2
 654 1172 l 2
 666 1225 641 1230 585 1230 c 2
 512 1230 l 2
 468 1230 454 1231 454 1278 c 2
 454 1442 l 2
 454 1491 455 1500 504 1500 c 2
 1214 1500 l 2
 1256 1500 1264 1493 1264 1449 c 2
 1264 1272 l 2
 1264 1231 1252 1230 1211 1230 c 2
 1142 1230 l 2
 1107 1230 1112 1215 1104 1181 c 2
 962 540 l 2
 877 180 714 -40 382 -40 c 0
 68 -40 -50 170 -50 390 c 0
EndSplineSet
Substitution2: "'c2sc' Capitals to Small Capitals in Latin lookup 1 subtable" j.sc
EndChar

StartChar: K
Encoding: 75 75 22
GlifName: K_
Width: 1480
Flags: W
HStem: 0 270<-59.8071 70.9976 532.741 611.97 1249.72 1393.86> 1224 276<170.093 261.437 733.191 881.649 916.164 970 1380.56 1594.97>
AnchorPoint: "Anchor-0" 885 1500 basechar 0
AnchorPoint: "Anchor-1" 640 0 basechar 0
AnchorPoint: "Anchor-2" 640 0 basechar 0
LayerCount: 2
Fore
SplineSet
-60 48 m 2
 -60 215 l 2
 -60 266 -51 270 -2 270 c 2
 16 270 l 2
 64 270 63 274 71 312 c 2
 260 1174 l 2
 271 1226 266 1230 206 1230 c 2
 222 1230 l 2
 184 1230 170 1231 170 1272 c 2
 170 1462 l 2
 170 1493 174 1500 204 1500 c 2
 818 1500 l 2
 863 1500 882 1496 882 1447 c 2
 882 1270 l 2
 882 1226 871 1224 830 1224 c 2
 806 1224 l 2
 752 1224 738 1205 729 1164 c 2
 672 906 l 2
 665 873 687 858 719 895 c 2
 964 1173 l 2
 989 1204 995 1224 970 1224 c 2
 954 1224 l 2
 921 1224 916 1231 916 1262 c 2
 916 1450 l 2
 916 1499 941 1500 986 1500 c 2
 1547 1500 l 2
 1595 1500 1595 1500 1595 1452 c 2
 1595 1272 l 2
 1595 1231 1591 1224 1551 1224 c 2
 1480 1224 l 2
 1428 1224 1412 1222 1390 1196 c 2
 1088 845 l 2
 1041 790 1073 808 1128 775 c 0
 1374 630 1134 270 1316 270 c 2
 1346 270 l 2
 1387 270 1394 265 1394 222 c 2
 1394 52 l 2
 1394 2 1383 0 1336 0 c 2
 1094 0 l 2
 566 0 818 319 761 566 c 0
 748 623 726 611 696 574 c 2
 584 437 l 2
 569 419 555 413 549 384 c 2
 534 318 l 2
 525 276 516 270 570 270 c 2
 574 270 l 2
 602 270 612 266 612 236 c 2
 612 46 l 2
 612 0 597 0 554 0 c 2
 -22 0 l 2
 -60 0 -60 10 -60 48 c 2
EndSplineSet
Substitution2: "'c2sc' Capitals to Small Capitals in Latin lookup 1 subtable" k.sc
EndChar

StartChar: L
Encoding: 76 76 23
GlifName: L_
Width: 1100
Flags: W
HStem: 0 270<-79.964 67.4886 537.525 714.098> 1230 270<170.087 261.44 730.002 919.811>
AnchorPoint: "Anchor-0" 543 1500 basechar 0
AnchorPoint: "Anchor-1" 406 0 basechar 0
AnchorPoint: "Anchor-2" 406 0 basechar 0
LayerCount: 2
Fore
SplineSet
-80 48 m 2
 -80 234 l 2
 -80 261 -77 270 -51 270 c 2
 7 270 l 2
 41 270 60 279 70 323 c 2
 260 1180 l 2
 269 1219 257 1230 217 1230 c 2
 205 1230 l 2
 175 1230 170 1236 170 1268 c 2
 170 1446 l 2
 170 1491 172 1500 217 1500 c 2
 851 1500 l 2
 891 1500 920 1495 920 1452 c 2
 920 1278 l 2
 920 1234 908 1230 867 1230 c 2
 799 1230 l 2
 760 1230 738 1227 730 1190 c 2
 540 326 l 2
 530 281 542 270 589 270 c 2
 610 270 l 2
 733 270 753 348 844 646 c 0
 856 685 873 690 916 690 c 2
 1034 690 l 2
 1067 690 1085 686 1085 654 c 2
 950 52 l 2
 941 11 917 0 875 0 c 2
 -35 0 l 2
 -75 0 -80 6 -80 48 c 2
EndSplineSet
Substitution2: "'c2sc' Capitals to Small Capitals in Latin lookup 1 subtable" l.sc
EndChar

StartChar: M
Encoding: 77 77 24
GlifName: M_
Width: 1830
Flags: W
HStem: -30 21G<556.5 855.5> 0 270<-79.8377 83.9375 355.955 449.854 1060.08 1200.04 1630 1729.67> 1230 270<241.326 329.003 1790 1928.3>
VStem: -80 530<0.18869 270>
AnchorPoint: "Anchor-0" 1105 1500 basechar 0
AnchorPoint: "Anchor-1" 696 0 basechar 0
AnchorPoint: "Anchor-2" 696 0 basechar 0
LayerCount: 2
Fore
SplineSet
1254 833 m 2
 907 21 l 2
 889 -21 885 -30 826 -30 c 2
 586 -30 l 2
 527 -30 501 -20 504 21 c 2
 577 887 l 2
 583 963 602 1098 576 1097 c 0
 558 1096 549 1041 531 973 c 2
 362 341 l 2
 350 296 349 270 404 270 c 2
 406 270 l 2
 443 270 450 263 450 225 c 2
 450 51 l 2
 450 2 438 0 392 0 c 2
 -28 0 l 2
 -75 0 -80 6 -80 55 c 2
 -80 235 l 2
 -80 263 -77 270 -50 270 c 2
 8 270 l 2
 68 270 81 297 95 347 c 2
 329 1195 l 2
 338 1226 324 1230 292 1230 c 2
 288 1230 l 2
 251 1230 240 1249 240 1287 c 2
 240 1439 l 2
 240 1480 258 1500 296 1500 c 2
 931 1500 l 2
 1010 1500 1024 1471 1020 1417 c 2
 986 989 l 2
 981 925 969 853 989 853 c 0
 1011 853 1030 891 1056 957 c 2
 1257 1459 l 2
 1271 1496 1302 1500 1354 1500 c 2
 1850 1500 l 2
 1901 1500 1930 1492 1930 1437 c 2
 1930 1291 l 2
 1930 1242 1922 1230 1872 1230 c 2
 1840 1230 l 2
 1797 1230 1797 1226 1790 1187 c 2
 1630 311 l 2
 1624 277 1626 270 1664 270 c 2
 1694 270 l 2
 1727 270 1730 253 1730 219 c 2
 1730 55 l 2
 1730 12 1718 0 1672 0 c 2
 1106 0 l 2
 1062 0 1060 8 1060 53 c 2
 1060 223 l 2
 1060 268 1072 270 1114 270 c 2
 1140 270 l 2
 1182 270 1194 282 1202 322 c 2
 1270 683 l 2
 1295 817 1357 957 1320 957 c 0
 1295 957 1291 919 1254 833 c 2
EndSplineSet
Substitution2: "'c2sc' Capitals to Small Capitals in Latin lookup 1 subtable" m.sc
EndChar

StartChar: N
Encoding: 78 78 25
GlifName: N_
Width: 1250
Flags: W
HStem: -30 21G<630 962> 0 270<-79.2695 57.1707 327.852 429.804> 1230 270<140.64 251.69 900.168 989.219 1261.53 1399.52>
VStem: -80 510<0.769901 269.27>
AnchorPoint: "Anchor-0" 735 1500 basechar 0
AnchorPoint: "Anchor-1" 486 0 basechar 0
AnchorPoint: "Anchor-2" 486 0 basechar 0
LayerCount: 2
Fore
SplineSet
199 1230 m 2
 185 1230 l 2
 150 1230 140 1233 140 1267 c 2
 140 1436 l 2
 140 1494 149 1500 205 1500 c 2
 647 1500 l 2
 720 1500 759 1500 768 1459 c 2
 890 899 l 2
 894 880 904 866 912 866 c 0
 921 866 931 880 940 927 c 2
 990 1191 l 2
 995 1219 987 1230 959 1230 c 2
 945 1230 l 2
 901 1230 900 1241 900 1285 c 2
 900 1449 l 2
 900 1497 914 1500 959 1500 c 2
 1363 1500 l 2
 1390 1500 1400 1494 1400 1465 c 2
 1400 1293 l 2
 1400 1234 1391 1230 1351 1230 c 2
 1315 1230 l 2
 1278 1230 1268 1215 1260 1181 c 2
 1000 10 l 2
 992 -25 981 -30 943 -30 c 2
 660 -30 l 2
 600 -30 566 -13 559 37 c 2
 469 663 l 2
 466 684 454 696 440 696 c 0
 426 696 410 675 400 631 c 2
 330 325 l 2
 320 280 335 270 381 270 c 2
 395 270 l 2
 423 270 430 262 430 232 c 2
 430 50 l 2
 430 1 403 0 359 0 c 2
 -13 0 l 2
 -71 0 -80 5 -80 65 c 2
 -80 209 l 2
 -80 259 -69 270 -19 270 c 2
 9 270 l 2
 55 270 50 281 60 326 c 2
 250 1179 l 2
 261 1228 240 1230 199 1230 c 2
EndSplineSet
Substitution2: "'c2sc' Capitals to Small Capitals in Latin lookup 1 subtable" n.sc
EndChar

StartChar: O
Encoding: 79 79 26
GlifName: O_
Width: 1240
Flags: W
HStem: -40 260<485.798 593.996> 1280 260<718.004 826.202>
VStem: 14 466<225.054 667.818> 832 466<832.182 1274.95>
AnchorPoint: "Anchor-0" 815 1500 basechar 0
AnchorPoint: "Anchor-1" 516 0 basechar 0
AnchorPoint: "Anchor-2" 516 0 basechar 0
LayerCount: 2
Fore
SplineSet
811 1540 m 1
 1144 1540 1298 1351 1298 1067 c 0
 1298 450 1011 -40 501 -40 c 1
 538 220 l 1
 679 220 832 919 832 1181 c 0
 832 1255 812 1280 774 1280 c 1
 811 1540 l 1
501 -40 m 1
 168 -40 14 149 14 433 c 0
 14 1050 301 1540 811 1540 c 1
 774 1280 l 1
 633 1280 480 581 480 319 c 0
 480 245 500 220 538 220 c 1
 501 -40 l 1
EndSplineSet
Substitution2: "'c2sc' Capitals to Small Capitals in Latin lookup 1 subtable" o.sc
EndChar

StartChar: P
Encoding: 80 80 27
GlifName: P_
Width: 1230
Flags: W
HStem: 0 270<-44.9448 70.9843 538.772 704.945> 1230 270<140.161 260.853 730.002 826.827>
VStem: 840 500<946.298 1225.46>
AnchorPoint: "Anchor-0" 755 1500 basechar 0
AnchorPoint: "Anchor-1" 242 0 basechar 0
AnchorPoint: "Anchor-2" 242 0 basechar 0
LayerCount: 2
Fore
SplineSet
692 830 m 2
 700 830 l 2
 782 830 840 1042 840 1150 c 0
 840 1208 832 1230 780 1230 c 2
 776 1230 l 2
 741 1230 737 1219 730 1186 c 2
 660 874 l 2
 652 838 655 830 692 830 c 2
584 508 m 2
 540 318 l 2
 530 276 547 270 592 270 c 2
 661 270 l 2
 703 270 705 262 705 220 c 2
 705 56 l 2
 705 10 705 0 659 0 c 2
 3 0 l 2
 -37 0 -45 4 -45 46 c 2
 -45 220 l 2
 -45 263 -41 270 1 270 c 2
 17 270 l 2
 73 270 64 282 75 334 c 2
 260 1182 l 2
 270 1227 251 1230 204 1230 c 2
 194 1230 l 2
 148 1230 140 1232 140 1278 c 2
 140 1448 l 2
 140 1496 151 1500 196 1500 c 2
 810 1500 l 2
 1172 1500 1340 1440 1340 1200 c 0
 1340 770 1062 560 700 560 c 2
 644 560 l 2
 601 560 593 549 584 508 c 2
EndSplineSet
Substitution2: "'c2sc' Capitals to Small Capitals in Latin lookup 1 subtable" p.sc
EndChar

StartChar: Q
Encoding: 81 81 28
GlifName: Q_
Width: 1240
Flags: W
HStem: -500 162<702.713 765.329> -216 162<326.749 407.395> -40 21G<334.5 756> 1280 260<716.602 985.101>
VStem: 14 466<224.366 659.06> 768 360<-337.372 -174.06> 832 466<842.151 1274.95>
AnchorPoint: "Anchor-0" 815 1500 basechar 0
LayerCount: 2
Fore
SplineSet
480 321 m 0
 480 246 491 220 529 220 c 0
 670 220 832 919 832 1181 c 0
 832 1255 812 1280 774 1280 c 0
 645 1280 480 585 480 321 c 0
-40 -308 m 0
 -40 -78 200 -54 358 -54 c 0
 717 -54 663 -338 738 -338 c 0
 762 -338 768 -332 768 -320 c 0
 768 -290 726 -312 726 -220 c 0
 726 -136 802 -54 916 -54 c 0
 1030 -54 1128 -128 1128 -236 c 0
 1128 -486 898 -500 740 -500 c 0
 361 -500 471 -216 356 -216 c 0
 334 -216 326 -218 326 -230 c 0
 326 -254 372 -242 372 -334 c 0
 372 -418 312 -500 178 -500 c 0
 44 -500 -40 -424 -40 -308 c 0
14 433 m 0
 14 1050 284 1540 811 1540 c 0
 1144 1540 1298 1351 1298 1067 c 0
 1298 450 1011 -40 501 -40 c 0
 168 -40 14 149 14 433 c 0
EndSplineSet
Substitution2: "'c2sc' Capitals to Small Capitals in Latin lookup 1 subtable" q.sc
EndChar

StartChar: R
Encoding: 82 82 29
GlifName: R_
Width: 1356
Flags: W
HStem: -40 348<822 1157.5> 0 270<-80 67.6386 539.998 629.5> 1230 270<171.067 262.626 732.044 842.973>
VStem: 678 448<125 471.708> 844 466<969.942 1227.56>
AnchorPoint: "Anchor-0" 825 1500 basechar 0
AnchorPoint: "Anchor-1" 556 0 basechar 0
AnchorPoint: "Anchor-2" 556 0 basechar 0
LayerCount: 2
Fore
SplineSet
1316 273 m 0
 1244 95 1130 -40 920 -40 c 0
 724 -40 678 63 678 187 c 0
 678 304 721 441 721 529 c 0
 721 584 704 620 650 620 c 2
 648 620 l 2
 610 620 608 608 600 572 c 2
 540 310 l 2
 533 281 541 270 572 270 c 2
 584 270 l 2
 620 270 630 263 630 224 c 2
 630 72 l 2
 630 13 629 0 570 0 c 2
 -37 0 l 2
 -71 0 -80 5 -80 38 c 2
 -80 226 l 2
 -80 263 -74 270 -38 270 c 2
 3 270 l 2
 50 270 60 278 70 322 c 2
 261 1179 l 2
 271 1223 260 1230 217 1230 c 2
 215 1230 l 2
 173 1230 171 1242 171 1282 c 2
 171 1462 l 2
 171 1496 181 1500 216 1500 c 2
 851 1500 l 2
 1193 1500 1310 1399 1310 1209 c 0
 1310 948 1188 815 1093 732 c 0
 1067 710 1048 702 1048 691 c 0
 1048 685 1057 678 1076 668 c 0
 1152 626 1177 575 1177 525 c 0
 1177 452 1126 375 1126 334 c 0
 1126 316 1134 308 1148 308 c 0
 1167 308 1180 324 1193 358 c 0
 1203 384 1213 388 1251 374 c 2
 1304 354 l 2
 1336 342 1332 313 1316 273 c 0
705 880 m 2
 713 880 l 2
 795 880 844 1072 844 1170 c 0
 844 1218 822 1230 780 1230 c 2
 762 1230 l 2
 734 1230 739 1219 731 1182 c 2
 674 926 l 2
 664 879 677 880 705 880 c 2
EndSplineSet
Substitution2: "'c2sc' Capitals to Small Capitals in Latin lookup 1 subtable" r.sc
Substitution2: "'ss01' Style Set 1 lookup 3 subtable" R.alt
EndChar

StartChar: S
Encoding: 83 83 30
GlifName: S_
Width: 1070
Flags: W
HStem: -40 292<345.792 677> -10 21G<-67.5 95.5> 1228 302<508 782.85> 1480 20G<994.5 1182.5>
VStem: 19 234<473.685 589.576> 170 458<821.061 1211.93> 572 462<282.772 534.208> 869 234<951.244 1068.49>
AnchorPoint: "Anchor-0" 735 1500 basechar 0
AnchorPoint: "Anchor-1" 405 0 basechar 0
AnchorPoint: "Anchor-2" 405 0 basechar 0
LayerCount: 2
Fore
SplineSet
628 1136 m 0
 628 916 1034 940 1034 490 c 0
 1034 143 793 -40 561 -40 c 0
 361 -40 290 34 254 87 c 0
 224 131 217 103 175 51 c 2
 150 17 l 2
 132 -6 114 -10 77 -10 c 2
 -48 -10 l 2
 -87 -10 -100 -3 -92 35 c 2
 19 537 l 2
 28 579 34 590 75 590 c 2
 201 590 l 2
 248 590 253 582 253 541 c 0
 253 395 309 252 426 252 c 0
 518 252 572 290 572 390 c 0
 572 700 170 616 170 1028 c 0
 170 1358 407 1530 609 1530 c 0
 761 1530 806 1473 860 1415 c 0
 890 1383 886 1383 925 1430 c 2
 960 1473 l 2
 976 1492 978 1500 1011 1500 c 2
 1165 1500 l 2
 1200 1500 1210 1491 1202 1454 c 2
 1103 1005 l 2
 1092 957 1084 950 1034 950 c 2
 925 950 l 2
 859 950 873 966 869 1017 c 0
 856 1173 803 1228 732 1228 c 0
 670 1228 628 1195 628 1136 c 0
EndSplineSet
Substitution2: "'c2sc' Capitals to Small Capitals in Latin lookup 1 subtable" s.sc
EndChar

StartChar: T
Encoding: 84 84 31
GlifName: T_
Width: 1250
Flags: W
HStem: 0 270<190.145 355.536 782.688 899.607> 1240 260<450.951 547.001 976.002 1075.73>
VStem: 100 241<871.318 972.95> 1059 241<871.591 993.818>
AnchorPoint: "Anchor-0" 824 1500 basechar 0
AnchorPoint: "Anchor-1" 526 0 basechar 0
AnchorPoint: "Anchor-2" 526 0 basechar 0
LayerCount: 2
Fore
SplineSet
190 51 m 2
 190 220 l 2
 190 260 197 270 236 270 c 2
 298 270 l 2
 351 270 349 284 360 335 c 2
 547 1202 l 2
 552 1225 551 1240 526 1240 c 2
 520 1240 l 2
 471 1240 407 1174 341 927 c 0
 329 881 326 870 274 870 c 2
 153 870 l 2
 114 870 92 874 100 911 c 2
 220 1442 l 2
 229 1483 231 1500 274 1500 c 2
 1370 1500 l 2
 1402 1500 1417 1486 1410 1452 c 2
 1300 927 l 2
 1290 878 1281 870 1228 870 c 2
 1120 870 l 2
 1068 870 1049 877 1059 925 c 0
 1113 1174 1080 1240 1020 1240 c 2
 1008 1240 l 2
 978 1240 982 1225 976 1197 c 2
 790 350 l 2
 777 290 773 270 826 270 c 2
 843 270 l 2
 889 270 900 258 900 215 c 2
 900 55 l 2
 900 7 890 0 844 0 c 2
 244 0 l 2
 202 0 190 6 190 51 c 2
EndSplineSet
Substitution2: "'c2sc' Capitals to Small Capitals in Latin lookup 1 subtable" t.sc
EndChar

StartChar: U
Encoding: 85 85 32
GlifName: U_
Width: 1340
Flags: W
HStem: -40 294<370.5 798.749> 1230 270<170.639 261.28 737.028 889.935 950.81 1061.59 1345.27 1489.79>
VStem: 96 476<278.591 619.853>
AnchorPoint: "Anchor-0" 915 1500 basechar 0
AnchorPoint: "Anchor-1" 546 0 basechar 0
AnchorPoint: "Anchor-2" 821 80 basechar 0
AnchorPoint: "Anchor-3" 821 80 basechar 0
LayerCount: 2
Fore
SplineSet
730 1164 m 2
 614 660 l 2
 589 550 572 461 572 396 c 0
 572 301 607 254 700 254 c 0
 818 254 876 348 932 600 c 2
 1060 1179 l 2
 1068 1216 1061 1230 1016 1230 c 2
 1010 1230 l 2
 962 1230 950 1242 950 1287 c 2
 950 1427 l 2
 950 1481 952 1500 1006 1500 c 2
 1442 1500 l 2
 1485 1500 1490 1491 1490 1446 c 2
 1490 1285 l 2
 1490 1237 1483 1230 1443 1230 c 2
 1432 1230 l 2
 1380 1230 1352 1220 1340 1169 c 2
 1210 600 l 2
 1117 191 926 -40 550 -40 c 0
 191 -40 96 105 96 308 c 0
 96 402 116 509 140 620 c 2
 260 1179 l 1
 266 1214 266 1230 226 1230 c 2
 220 1230 l 2
 181 1230 170 1232 170 1281 c 2
 170 1437 l 2
 170 1486 177 1500 224 1500 c 2
 848 1500 l 2
 885 1500 890 1491 890 1452 c 2
 890 1279 l 2
 890 1239 884 1230 841 1230 c 2
 816 1230 l 2
 762 1230 742 1216 730 1164 c 2
EndSplineSet
Substitution2: "'c2sc' Capitals to Small Capitals in Latin lookup 1 subtable" u.sc
EndChar

StartChar: V
Encoding: 86 86 33
GlifName: V_
Width: 1390
Flags: W
HStem: -10 21G<360.5 802> 1230 270<160.013 280.572 804.523 939.924 1050 1082 1369 1549.01>
AnchorPoint: "Anchor-0" 995 1500 basechar 0
AnchorPoint: "Anchor-1" 582 0 basechar 0
AnchorPoint: "Anchor-2" 582 0 basechar 0
LayerCount: 2
Fore
SplineSet
313 33 m 2
 282 1169 l 2
 281 1207 272 1230 215 1230 c 2
 213 1230 l 2
 178 1230 160 1230 160 1269 c 2
 160 1455 l 2
 160 1495 166 1500 205 1500 c 2
 889 1500 l 2
 929 1500 940 1491 940 1451 c 2
 940 1273 l 2
 940 1235 934 1230 897 1230 c 2
 883 1230 l 2
 825 1230 807 1219 804 1181 c 2
 756 497 l 2
 755 479 755 470 767 470 c 0
 788 470 793 482 801 501 c 2
 1082 1187 l 2
 1095 1219 1095 1230 1079 1230 c 2
 1075 1230 l 2
 1053 1230 1050 1239 1050 1271 c 2
 1050 1463 l 2
 1050 1496 1060 1500 1091 1500 c 2
 1484 1500 l 2
 1540 1500 1550 1489 1550 1433 c 2
 1550 1279 l 2
 1550 1245 1542 1230 1504 1230 c 2
 1419 1230 l 2
 1386 1230 1379 1215 1369 1193 c 2
 842 23 l 2
 828 -8 825 -10 779 -10 c 2
 379 -10 l 2
 342 -10 314 1 313 33 c 2
EndSplineSet
Substitution2: "'c2sc' Capitals to Small Capitals in Latin lookup 1 subtable" v.sc
EndChar

StartChar: W
Encoding: 87 87 34
GlifName: W_
Width: 1920
Flags: W
HStem: -20 21G<370.5 648 1045 1340.5> 1230 270<160.206 267.258 785.562 859.398 930.272 997.039 1443.54 1529.72 1580.31 1622.67 1909.14 2079.94>
VStem: 1580 500<1230.04 1499.64>
AnchorPoint: "Anchor-0" 1265 1500 basechar 0
AnchorPoint: "Anchor-1" 866 0 basechar 0
AnchorPoint: "Anchor-2" 866 0 basechar 0
LayerCount: 2
Fore
SplineSet
881 936 m 2
 966 1092 l 2
 985 1127 994 1138 995 1162 c 2
 997 1210 l 2
 998 1227 988 1230 965 1230 c 2
 949 1230 l 2
 931 1230 930 1239 930 1278 c 2
 930 1435 l 2
 930 1489 931 1500 985 1500 c 2
 1453 1500 l 2
 1487 1500 1530 1498 1530 1460 c 2
 1530 1294 l 2
 1530 1251 1529 1230 1512 1230 c 2
 1470 1230 l 2
 1453 1230 1441 1211 1444 1178 c 2
 1456 1060 l 2
 1463 996 1453 893 1479 893 c 0
 1488 893 1508 913 1522 946 c 2
 1613 1164 l 2
 1632 1211 1643 1230 1619 1230 c 2
 1607 1230 l 2
 1592 1230 1580 1236 1580 1284 c 2
 1580 1442 l 2
 1580 1494 1587 1500 1637 1500 c 2
 2019 1500 l 2
 2060 1500 2080 1498 2080 1453 c 2
 2080 1272 l 2
 2080 1233 2071 1230 2031 1230 c 2
 1983 1230 l 2
 1923 1230 1921 1213 1903 1172 c 2
 1383 18 l 2
 1367 -17 1365 -20 1316 -20 c 2
 1073 -20 l 2
 1017 -20 1011 -11 1014 32 c 2
 1053 608 l 2
 1056 659 1065 693 1023 693 c 0
 993 693 985 662 970 628 c 2
 705 28 l 2
 689 -8 672 -20 624 -20 c 2
 392 -20 l 2
 349 -20 335 -11 333 26 c 2
 268 1176 l 2
 265 1225 261 1230 213 1230 c 2
 207 1230 l 2
 167 1230 160 1235 160 1276 c 2
 160 1448 l 2
 160 1498 176 1500 223 1500 c 2
 791 1500 l 2
 844 1500 860 1499 860 1442 c 2
 860 1290 l 2
 860 1239 848 1230 817 1230 c 2
 813 1230 l 2
 785 1230 783 1221 785 1196 c 2
 797 1024 l 2
 801 964 800 882 824 882 c 0
 845 882 864 905 881 936 c 2
EndSplineSet
Substitution2: "'c2sc' Capitals to Small Capitals in Latin lookup 1 subtable" w.sc
EndChar

StartChar: X
Encoding: 88 88 35
GlifName: X_
Width: 1370
Flags: W
HStem: 0 270<-89.8652 92.6562 431.637 466.902 540.015 618.693 1180.64 1279.99> 1230 270<180.572 281.255 811.745 919.836 950.098 978 1314.22 1499.99>
VStem: 419 596<658.125 873.969>
AnchorPoint: "Anchor-0" 935 1500 basechar 0
AnchorPoint: "Anchor-1" 506 0 basechar 0
AnchorPoint: "Anchor-2" 506 0 basechar 0
LayerCount: 2
Fore
SplineSet
236 1230 m 2
 226 1230 l 2
 196 1230 180 1236 180 1288 c 2
 180 1431 l 2
 180 1489 182 1500 240 1500 c 2
 862 1500 l 2
 907 1500 920 1496 920 1448 c 2
 920 1280 l 2
 920 1240 918 1230 878 1230 c 2
 846 1230 l 2
 803 1230 806 1209 813 1181 c 2
 837 1069 l 2
 841 1050 847 1041 854 1041 c 0
 866 1041 882 1060 901 1087 c 2
 975 1187 l 2
 997 1221 1000 1230 978 1230 c 2
 976 1230 l 2
 952 1230 950 1243 950 1255 c 2
 950 1446 l 2
 950 1492 953 1500 998 1500 c 2
 1466 1500 l 2
 1495 1500 1500 1492 1500 1461 c 2
 1500 1275 l 2
 1500 1232 1492 1230 1448 1230 c 2
 1400 1230 l 2
 1352 1230 1342 1221 1328 1204 c 2
 1034 846 l 2
 1021 830 1015 816 1015 798 c 0
 1015 781 1021 761 1032 731 c 2
 1183 307 l 2
 1194 275 1213 270 1236 270 c 2
 1246 270 l 2
 1275 270 1280 263 1280 225 c 2
 1280 43 l 2
 1280 2 1272 0 1230 0 c 2
 596 0 l 2
 552 0 540 1 540 45 c 2
 540 222 l 2
 540 260 542 270 560 270 c 2
 574 270 l 2
 610 270 626 291 616 329 c 2
 584 454 l 2
 581 466 576 471 570 471 c 0
 565 471 559 467 554 461 c 2
 435 317 l 2
 410 287 408 270 434 270 c 2
 442 270 l 2
 464 270 470 260 470 215 c 2
 470 79 l 2
 470 18 453 0 396 0 c 2
 -42 0 l 2
 -89 0 -90 11 -90 59 c 2
 -90 211 l 2
 -90 258 -89 270 -42 270 c 2
 0 270 l 2
 55 270 65 278 88 305 c 2
 386 658 l 2
 410 687 419 708 419 732 c 0
 419 749 413 767 406 791 c 2
 283 1181 l 2
 271 1219 250 1230 236 1230 c 2
EndSplineSet
Substitution2: "'c2sc' Capitals to Small Capitals in Latin lookup 1 subtable" x.sc
EndChar

StartChar: Y
Encoding: 89 89 36
GlifName: Y_
Width: 1380
Flags: W
HStem: 0 270<260.01 408.757 879.277 989.971> 1230 270<164.785 265.344 811.183 902.479 993.166 1033.87 1392.01 1543>
VStem: 993 550<1230 1498.29>
AnchorPoint: "Anchor-0" 935 1500 basechar 0
AnchorPoint: "Anchor-1" 616 0 basechar 0
AnchorPoint: "Anchor-2" 616 0 basechar 0
LayerCount: 2
Fore
SplineSet
260 36 m 2
 260 224 l 2
 260 262 263 270 300 270 c 2
 356 270 l 2
 396 270 401 280 410 319 c 2
 443 463 l 2
 455 514 443 527 434 561 c 2
 267 1184 l 2
 249 1220 242 1230 212 1230 c 2
 206 1230 l 2
 164 1230 163 1239 163 1281 c 2
 163 1430 l 2
 163 1492 182 1500 240 1500 c 2
 834 1500 l 2
 885 1500 903 1497 903 1442 c 2
 903 1277 l 2
 903 1237 892 1230 867 1230 c 2
 862 1230 l 2
 822 1230 803 1223 813 1176 c 2
 847 1016 l 2
 854 984 851 961 869 961 c 0
 884 961 888 977 918 1020 c 2
 1029 1180 l 2
 1057 1220 1052 1230 1030 1230 c 2
 1023 1230 l 2
 1002 1230 993 1232 993 1283 c 2
 993 1450 l 2
 993 1495 999 1500 1043 1500 c 2
 1464 1500 l 2
 1498 1500 1543 1499 1543 1461 c 2
 1543 1257 l 2
 1543 1232 1532 1230 1506 1230 c 2
 1450 1230 l 2
 1431 1230 1415 1219 1392 1188 c 2
 996 659 l 2
 972 626 946 613 933 553 c 2
 880 317 l 2
 872 281 873 270 910 270 c 2
 949 270 l 2
 988 270 990 261 990 221 c 2
 990 39 l 2
 990 8 986 0 956 0 c 2
 292 0 l 2
 265 0 260 7 260 36 c 2
EndSplineSet
Substitution2: "'c2sc' Capitals to Small Capitals in Latin lookup 1 subtable" y.sc
EndChar

StartChar: Z
Encoding: 90 90 37
GlifName: Z_
Width: 1190
Flags: W
HStem: 0 270<547.004 780.281> 1230 270<500.345 691.988>
VStem: 90 241<850.594 952.5> 929 241<554.554 688.375>
AnchorPoint: "Anchor-0" 735 1500 basechar 0
AnchorPoint: "Anchor-1" 456 0 basechar 0
AnchorPoint: "Anchor-2" 456 0 basechar 0
LayerCount: 2
Fore
SplineSet
-100 60 m 2
 -100 165 l 2
 -100 232 -78 263 -54 299 c 2
 662 1166 l 2
 679 1186 692 1198 692 1208 c 0
 692 1224 675 1230 650 1230 c 2
 640 1230 l 2
 490 1230 380 1103 331 896 c 0
 320 851 310 850 262 850 c 2
 136 850 l 2
 100 850 83 852 90 886 c 2
 210 1456 l 2
 218 1496 238 1500 280 1500 c 2
 1196 1500 l 2
 1245 1500 1260 1490 1260 1438 c 2
 1260 1242 l 2
 1260 1172 1241 1128 1212 1094 c 2
 582 367 l 2
 558 339 547 308 547 288 c 0
 547 277 552 270 600 270 c 2
 640 270 l 2
 810 270 868 386 929 626 c 0
 943 679 944 690 1000 690 c 2
 1128 690 l 2
 1175 690 1179 654 1170 614 c 2
 1040 62 l 2
 1027 7 1030 0 974 0 c 2
 -32 0 l 2
 -90 0 -100 2 -100 60 c 2
EndSplineSet
Substitution2: "'c2sc' Capitals to Small Capitals in Latin lookup 1 subtable" z.sc
EndChar

StartChar: a
Encoding: 97 97 38
GlifName: a
Width: 1036
Flags: W
HStem: -50 234<641 861.591> -40 200<203 447> 880 198<391 612.843>
VStem: 2 385<161.258 431.24> 909 130<189.871 301.368>
AnchorPoint: "Anchor-0" 671 1040 basechar 0
AnchorPoint: "Anchor-1" 505 0 basechar 0
AnchorPoint: "Anchor-2" 505 0 basechar 0
AnchorPoint: "Anchor-3" 1007 10 basechar 0
LayerCount: 2
Fore
SplineSet
613 840 m 0
 614 862 605 880 588 880 c 0
 512 880 388 238 387 200 c 0
 387 182 390 160 409 160 c 0
 485 160 612 782 613 840 c 0
1039 231 m 0
 992 49 857 -50 683 -50 c 0
 599 -50 532 -7 512 49 c 0
 506 65 505 72 503 79 c 0
 495 106 488 97 464 61 c 0
 424 1 357 -40 271 -40 c 0
 135 -40 2 70 2 330 c 0
 2 770 275 1078 507 1078 c 0
 612 1078 653 1011 657 957 c 0
 659 925 677 915 689 974 c 2
 695 1008 l 2
 700 1032 707 1040 740 1040 c 2
 1009 1040 l 2
 1057 1040 1057 1031 1047 994 c 2
 854 252 l 2
 851 240 844 212 844 202 c 0
 844 192 849 184 858 184 c 0
 869 184 878 186 909 280 c 0
 919 310 917 316 967 307 c 2
 1023 297 l 2
 1046 293 1052 281 1039 231 c 0
EndSplineSet
Substitution2: "'smcp' Lowercase to Small Capitals in Latin lookup 0 subtable" a.sc
EndChar

StartChar: b
Encoding: 98 98 39
GlifName: b
Width: 1082
Flags: W
HStem: -40 150<432.819 487.179> 851 227<622 906.5> 1540 20G<211.5 721>
VStem: 663 420<596.756 846.122>
AnchorPoint: "Anchor-0" 1101 1040 basechar 0
AnchorPoint: "Anchor-1" 455 -20 basechar 0
AnchorPoint: "Anchor-2" 455 -20 basechar 0
LayerCount: 2
Back
SplineSet
434 169 m 0
 429 126 437 110 451 110 c 0
 529 110 662 762 663 810 c 0
 664 838 654 851 640 851 c 0
 604 851 553 730 508 525 c 2
 447 243 l 2
 441 217 437 194 434 169 c 0
38 282 m 2
 269 1291 l 2
 279 1335 276 1350 237 1350 c 2
 224 1350 l 2
 194 1350 191 1358 191 1389 c 2
 191 1519 l 2
 191 1553 195 1560 228 1560 c 2
 699 1560 l 2
 743 1560 745 1555 735 1513 c 2
 631 1039 l 2
 621 994 629 973 659 1004 c 0
 684 1030 738 1078 829 1078 c 0
 984 1078 1083 960 1083 710 c 0
 1083 300 799 -40 468 -40 c 0
 279 -40 126 33 57 152 c 0
 29 200 24 221 38 282 c 2
EndSplineSet
Fore
SplineSet
434 169 m 0
 429 126 437 110 451 110 c 0
 529 110 662 762 663 810 c 0
 664 838 654 851 640 851 c 0
 604 851 553 730 508 525 c 2
 447 243 l 2
 441 217 437 194 434 169 c 0
38 282 m 2
 269 1291 l 2
 279 1335 276 1350 237 1350 c 2
 224 1350 l 2
 194 1350 191 1358 191 1389 c 2
 191 1519 l 2
 191 1553 195 1560 228 1560 c 2
 699 1560 l 2
 743 1560 745 1555 735 1513 c 2
 631 1039 l 2
 621 994 629 973 659 1004 c 0
 684 1030 738 1078 829 1078 c 0
 984 1078 1083 960 1083 710 c 0
 1083 300 799 -40 468 -40 c 0
 279 -40 126 33 57 152 c 0
 29 200 24 221 38 282 c 2
EndSplineSet
Substitution2: "'smcp' Lowercase to Small Capitals in Latin lookup 0 subtable" b.sc
EndChar

StartChar: c
Encoding: 99 99 40
GlifName: c
Width: 952
Flags: W
HStem: -20 180<392.185 493.709> 880 180<546.368 609.887>
VStem: 3 385<192.104 442.824> 611 360<640 876.427>
AnchorPoint: "Anchor-0" 679 1040 basechar 0
AnchorPoint: "Anchor-1" 428 0 basechar 0
AnchorPoint: "Anchor-2" 428 0 basechar 0
LayerCount: 2
Fore
SplineSet
971 718 m 0
 971 562 871 474 743 474 c 0
 631 474 533 526 533 650 c 0
 536 776 611 804 611 848 c 0
 611 870 601 880 583 880 c 0
 504 880 389 258 388 220 c 0
 387 171 408 160 427 160 c 0
 480 160 509 218 541 309 c 0
 550 335 558 346 599 346 c 2
 830 346 l 2
 872 346 880 339 868 302 c 0
 804 110 687 -20 408 -20 c 0
 145 -20 3 158 3 390 c 0
 3 770 281 1060 562 1060 c 0
 818 1060 971 922 971 718 c 0
EndSplineSet
Substitution2: "'smcp' Lowercase to Small Capitals in Latin lookup 0 subtable" c.sc
EndChar

StartChar: d
Encoding: 100 100 41
GlifName: d
Width: 1036
Flags: W
HStem: -50 234<664 897.195> -40 198<202.5 445> 880 198<391 612.875> 1540 20G<708 1147>
VStem: 3 385<162.5 430.624> 910 129<192.447 301.366>
AnchorPoint: "Anchor-0" 470 1040 basechar 0
AnchorPoint: "Anchor-1" 1588 1040 basechar 0
AnchorPoint: "Anchor-2" 432 0 basechar 0
LayerCount: 2
Fore
SplineSet
613 840 m 0
 613 861 607 880 588 880 c 0
 512 880 389 248 388 200 c 0
 387 172 394 158 407 158 c 0
 483 158 611 772 613 840 c 0
1039 232 m 0
 994 58 905 -50 720 -50 c 0
 608 -50 530 -11 508 60 c 0
 504 74 502 90 496 94 c 0
 484 102 475 76 462 57 c 0
 423 1 355 -40 269 -40 c 0
 136 -40 3 70 3 330 c 0
 3 770 275 1078 507 1078 c 0
 611 1078 654 1008 657 961 c 0
 660 919 676 922 689 974 c 2
 770 1313 l 2
 778 1346 774 1350 737 1350 c 2
 731 1350 l 2
 696 1350 684 1353 686 1399 c 2
 689 1517 l 2
 690 1552 694 1560 722 1560 c 2
 1111 1560 l 2
 1183 1560 1190 1552 1175 1494 c 2
 854 252 l 2
 848 231 844 212 844 202 c 0
 844 190 845 184 854 184 c 0
 877 184 886 217 910 287 c 0
 920 317 932 313 951 310 c 2
 1022 297 l 2
 1051 292 1049 272 1039 232 c 0
EndSplineSet
Substitution2: "'smcp' Lowercase to Small Capitals in Latin lookup 0 subtable" d.sc
EndChar

StartChar: e
Encoding: 101 101 42
GlifName: e
Width: 924
Flags: W
HStem: -20 178<392.997 490.913> 1040 20G<424 683>
VStem: 606 337<705.026 878.448>
AnchorPoint: "Anchor-0" 624 1040 basechar 0
AnchorPoint: "Anchor-1" 429 20 basechar 0
AnchorPoint: "Anchor-2" 429 20 basechar 0
AnchorPoint: "Anchor-3" 733 102 basechar 0
LayerCount: 2
Fore
SplineSet
4 390 m 0
 4 780 285 1060 563 1060 c 0
 803 1060 943 940 943 746 c 0
 943 456 698 423 434 395 c 0
 415 393 415 386 411 365 c 0
 380 217 378 158 428 158 c 0
 472 158 514 219 543 311 c 0
 551 337 567 346 605 346 c 2
 806 346 l 2
 865 346 874 337 857 290 c 0
 797 122 673 -20 409 -20 c 0
 138 -20 4 158 4 390 c 0
481 569 m 0
 522 589 605 784 606 848 c 0
 606 866 606 880 588 880 c 0
 556 880 520 804 465 602 c 0
 457 571 460 559 481 569 c 0
EndSplineSet
Substitution2: "'smcp' Lowercase to Small Capitals in Latin lookup 0 subtable" e.sc
EndChar

StartChar: f
Encoding: 102 102 43
GlifName: f
Width: 659
Flags: W
HStem: 830 210<66.0379 133.914 571.998 679.842> 1420 180<604.05 823.5>
AnchorPoint: "Anchor-0" 687 1692 basechar 0
AnchorPoint: "Anchor-1" 216 0 basechar 0
AnchorPoint: "Anchor-2" 216 0 basechar 0
LayerCount: 2
Fore
SplineSet
-72 -233 m 2
 132 777 l 2
 141 822 140 830 103 830 c 2
 100 830 l 2
 68 830 66 838 66 871 c 2
 66 988 l 2
 66 1031 67 1040 110 1040 c 2
 132 1040 l 2
 178 1040 185 1047 191 1078 c 2
 204 1144 l 2
 274 1508 444 1600 713 1600 c 0
 934 1600 1068 1482 1068 1308 c 0
 1068 1162 960 1074 832 1074 c 0
 731 1074 641 1136 644 1260 c 0
 646 1352 693 1376 694 1400 c 0
 694 1412 680 1420 660 1420 c 0
 559 1420 603 1250 575 1100 c 2
 572 1084 l 2
 565 1051 565 1040 601 1040 c 2
 647 1040 l 2
 682 1040 686 1032 684 988 c 2
 680 868 l 2
 679 832 673 830 643 830 c 2
 566 830 l 2
 525 830 520 820 512 779 c 2
 322 -242 l 2
 312 -294 306 -300 248 -300 c 2
 -11 -300 l 2
 -79 -300 -83 -285 -72 -233 c 2
EndSplineSet
Substitution2: "'smcp' Lowercase to Small Capitals in Latin lookup 0 subtable" f.sc
EndChar

StartChar: g
Encoding: 103 103 44
GlifName: g
Width: 821
Flags: W
HStem: -530 204<17.4469 330.847> -104 342<267.653 385.826> 340 180<346 430.465> 1171 211<691.648 872.5>
VStem: -202 339<-314.209 -171.695> -83 350<101 293> 46 325<522.471 769.99> 386 331<-224.141 -104> 497 330<624.993 899.003> 724 286<1062.73 1170.98>
AnchorPoint: "Anchor-0" 433 1040 basechar 0
AnchorPoint: "Anchor-1" 156 -565 basechar 0
AnchorPoint: "Anchor-2" 156 -565 basechar 0
LayerCount: 2
Fore
SplineSet
-202 -300 m 0
 -202 -196 -119 -100 -18 -55 c 0
 13 -41 13 -37 -6 -21 c 0
 -63 26 -83 74 -83 128 c 0
 -83 248 28 343 142 391 c 0
 172 404 173 413 155 426 c 0
 87 476 46 546 46 635 c 0
 46 918 322 1080 474 1080 c 0
 476 1080 477 1080 479 1080 c 0
 502 1080 502 1082 513 1109 c 0
 564 1239 634 1382 804 1382 c 0
 941 1382 1010 1290 1010 1186 c 0
 1010 1101 960 1015 854 1015 c 0
 780 1015 723 1058 724 1116 c 0
 725 1144 738 1171 725 1171 c 0
 702 1171 678 1102 671 1080 c 0
 663 1056 662 1051 676 1043 c 0
 766 997 827 910 827 796 c 0
 827 506 562 340 348 340 c 0
 344 340 332 341 320 342 c 0
 312 343 304 341 292 330 c 0
 282 321 267 302 267 284 c 0
 267 264 267 238 330 238 c 0
 375 238 435 240 494 240 c 0
 677 240 717 134 717 -24 c 0
 717 -311 483 -530 149 -530 c 0
 -108 -530 -202 -454 -202 -300 c 0
197 -110 m 0
 160 -143 138 -190 137 -246 c 0
 136 -308 178 -326 225 -326 c 0
 309 -326 384 -265 386 -158 c 0
 387 -121 374 -104 347 -104 c 0
 327 -104 315 -104 302 -104 c 0
 282 -104 264 -104 244 -102 c 0
 225 -100 212 -97 197 -110 c 0
371 553 m 0
 370 526 382 520 395 520 c 0
 443 520 495 775 497 870 c 0
 498 895 495 900 482 900 c 0
 434 900 374 650 371 553 c 0
EndSplineSet
Substitution2: "'smcp' Lowercase to Small Capitals in Latin lookup 0 subtable" g.sc
EndChar

StartChar: h
Encoding: 104 104 45
GlifName: h
Width: 1072
Flags: W
HStem: -40 224<640 908.2> 0 21G<5.5 339> 806 272<567.5 935> 1540 20G<227 681.5>
VStem: 466 406<95 337.234>
AnchorPoint: "Anchor-0" 1107 1039 basechar 0
AnchorPoint: "Anchor-1" 379 0 basechar 0
AnchorPoint: "Anchor-2" 379 0 basechar 0
LayerCount: 2
Fore
SplineSet
1058 207 m 0
 1009 60 906 -40 750 -40 c 0
 530 -40 466 44 466 146 c 0
 466 184 475 220 484 250 c 2
 588 620 l 2
 626 748 640 806 593 806 c 0
 542 806 502 588 445 327 c 2
 387 62 l 2
 376 10 370 0 308 0 c 2
 44 0 l 2
 -33 0 -41 8 -27 68 c 2
 259 1308 l 2
 268 1345 254 1350 226 1350 c 2
 222 1350 l 2
 193 1350 187 1355 187 1396 c 2
 187 1498 l 2
 187 1558 198 1560 256 1560 c 2
 648 1560 l 2
 715 1560 718 1555 705 1498 c 2
 585 966 l 2
 569 890 585 893 614 939 c 0
 678 1039 764 1078 856 1078 c 0
 1014 1078 1125 1014 1018 682 c 2
 882 250 l 2
 876 232 872 210 872 202 c 0
 872 191 875 184 885 184 c 0
 899 184 909 204 928 262 c 0
 944 309 944 315 976 309 c 2
 1058 294 l 2
 1088 289 1079 269 1058 207 c 0
EndSplineSet
Substitution2: "'smcp' Lowercase to Small Capitals in Latin lookup 0 subtable" h.sc
EndChar

StartChar: i
Encoding: 105 105 46
GlifName: i
Width: 584
Flags: W
HStem: -50 234<147 415.89> 1170 420<290.023 589.176>
VStem: -7 408<94 378.531> 204 474<1253.79 1510.28>
AnchorPoint: "Anchor-1" 154 10 basechar 0
AnchorPoint: "Anchor-2" 154 10 basechar 0
AnchorPoint: "Anchor-3" 259 30 basechar 0
LayerCount: 2
Fore
SplineSet
584 980 m 2
 409 252 l 2
 406 240 401 212 401 202 c 0
 401 191 403 184 410 184 c 0
 426 184 436 210 456 271 c 0
 469 310 474 315 501 310 c 2
 574 297 l 2
 607 291 596 255 582 212 c 0
 516 13 393 -50 229 -50 c 0
 65 -50 -7 34 -7 154 c 0
 -7 192 6 249 13 280 c 2
 123 772 l 2
 134 821 136 830 106 830 c 2
 100 830 l 2
 58 830 53 836 53 880 c 2
 53 998 l 2
 53 1037 63 1040 100 1040 c 2
 532 1040 l 2
 598 1040 598 1035 584 980 c 2
204 1380 m 0
 204 1516 310 1590 440 1590 c 0
 570 1590 679 1516 678 1380 c 0
 673 1244 570 1170 440 1170 c 0
 310 1170 204 1244 204 1380 c 0
EndSplineSet
Substitution2: "'smcp' Lowercase to Small Capitals in Latin lookup 0 subtable" i.sc
EndChar

StartChar: j
Encoding: 106 106 47
GlifName: j
Width: 544
Flags: W
HStem: -520 180<-232 -18.3301> -34 20G<-311.5 -194> 1170 420<298.635 589.435>
VStem: 219 458<1253.79 1506.21>
AnchorPoint: "Anchor-1" -346 -565 basechar 0
AnchorPoint: "Anchor-2" -346 -565 basechar 0
LayerCount: 2
Fore
SplineSet
579 970 m 2
 359 0 l 2
 285 -322 256 -520 -121 -520 c 0
 -343 -520 -478 -392 -478 -258 c 0
 -478 -102 -370 -14 -253 -14 c 0
 -135 -14 -62 -76 -63 -190 c 0
 -63 -282 -115 -290 -116 -318 c 0
 -116 -330 -100 -340 -69 -340 c 0
 61 -340 -40 -33 11 206 c 2
 130 764 l 2
 141 815 149 830 114 830 c 2
 108 830 l 2
 71 830 71 846 72 888 c 2
 75 982 l 2
 77 1033 82 1040 122 1040 c 2
 522 1040 l 2
 598 1040 592 1027 579 970 c 2
219 1380 m 0
 222 1516 315 1590 437 1590 c 0
 569 1590 677 1516 677 1380 c 0
 677 1244 569 1170 437 1170 c 0
 312 1170 216 1244 219 1380 c 0
EndSplineSet
Substitution2: "'smcp' Lowercase to Small Capitals in Latin lookup 0 subtable" j.sc
EndChar

StartChar: k
Encoding: 107 107 48
GlifName: k
Width: 1067
Flags: W
HStem: -50 234<628.5 877.498> 0 21G<1.5 374.5> 890 190<780.863 987> 1540 20G<244.5 682.5>
VStem: 826 319<689.884 888.205> 919 129<199.335 295.851>
AnchorPoint: "Anchor-0" 1129 1040 basechar 0
AnchorPoint: "Anchor-1" 406 0 basechar 0
AnchorPoint: "Anchor-2" 406 0 basechar 0
LayerCount: 2
Fore
SplineSet
1048 241 m 0
 976 8 866 -50 706 -50 c 0
 551 -50 473 21 494 192 c 2
 510 320 l 2
 513 351 517 383 517 414 c 0
 517 436 517 447 514 447 c 0
 510 447 509 446 505 446 c 0
 501 446 497 447 494 448 c 0
 487 449 486 446 483 434 c 2
 406 52 l 2
 396 9 400 0 349 0 c 2
 35 0 l 2
 -32 0 -21 8 -9 60 c 2
 273 1294 l 2
 283 1341 284 1350 255 1350 c 2
 245 1350 l 2
 212 1350 207 1356 207 1398 c 2
 207 1498 l 2
 207 1557 216 1560 273 1560 c 2
 652 1560 l 2
 713 1560 728 1551 713 1482 c 2
 559 780 l 2
 554 760 550 753 560 755 c 0
 567 756 571 757 577 757 c 0
 581 757 588 756 592 756 c 0
 597 756 599 760 605 775 c 0
 608 781 609 787 612 794 c 0
 686 966 742 1080 910 1080 c 0
 1064 1080 1145 972 1145 828 c 0
 1145 700 1048 598 936 598 c 0
 837 598 782 666 784 756 c 0
 785 820 825 853 826 875 c 0
 826 884 824 890 816 890 c 0
 801 890 777 855 741 750 c 0
 739 745 736 740 734 734 c 0
 727 718 727 702 750 682 c 0
 839 605 867 477 847 336 c 2
 837 228 l 2
 833 200 837 184 860 184 c 0
 882 184 898 224 919 292 c 0
 928 319 947 309 973 305 c 2
 1034 296 l 2
 1052 293 1059 278 1048 241 c 0
EndSplineSet
Substitution2: "'smcp' Lowercase to Small Capitals in Latin lookup 0 subtable" k.sc
EndChar

StartChar: l
Encoding: 108 108 49
GlifName: l
Width: 583
Flags: W
HStem: -50 234<148 416.216> 1540 20G<196.5 680>
VStem: -6 408<94 371.938>
AnchorPoint: "Anchor-0" 466 1696 basechar 0
AnchorPoint: "Anchor-1" 785 1040 basechar 0
AnchorPoint: "Anchor-2" 280 0 basechar 0
LayerCount: 2
Fore
SplineSet
699 1500 m 2
 410 252 l 2
 407 240 402 212 402 202 c 0
 402 191 403 184 410 184 c 0
 426 184 436 210 456 271 c 0
 469 310 474 315 501 310 c 2
 574 297 l 2
 607 291 596 255 582 212 c 0
 516 13 393 -50 230 -50 c 0
 66 -50 -6 34 -6 154 c 0
 -6 192 7 249 14 280 c 2
 238 1292 l 2
 249 1341 251 1350 221 1350 c 2
 215 1350 l 2
 173 1350 168 1356 168 1400 c 2
 168 1518 l 2
 168 1557 178 1560 215 1560 c 2
 647 1560 l 2
 713 1560 713 1555 699 1500 c 2
EndSplineSet
Substitution2: "'smcp' Lowercase to Small Capitals in Latin lookup 0 subtable" l.sc
EndChar

StartChar: m
Encoding: 109 109 50
GlifName: m
Width: 1537
Flags: W
HStem: -40 224<1098 1392.18> 0 21G<-13 333.5 451.5 835.5> 796 282<560 875 1049 1393>
VStem: 934 405<95 346.391>
AnchorPoint: "Anchor-0" 1048 1040 basechar 0
AnchorPoint: "Anchor-1" 730 0 basechar 0
AnchorPoint: "Anchor-2" 730 0 basechar 0
LayerCount: 2
Fore
SplineSet
102 1040 m 2
 475 1040 l 2
 520 1040 543 1035 536 992 c 2
 524 918 l 2
 519 889 541 865 569 915 c 0
 633 1037 714 1078 816 1078 c 0
 934 1078 982 1021 1002 952 c 0
 1022 884 1041 886 1075 935 c 0
 1147 1043 1218 1078 1314 1078 c 0
 1472 1078 1593 1014 1486 682 c 2
 1348 250 l 2
 1340 225 1339 210 1339 202 c 0
 1339 192 1343 184 1354 184 c 0
 1369 184 1378 215 1397 270 c 0
 1410 306 1415 314 1453 307 c 2
 1502 298 l 2
 1550 289 1550 282 1529 220 c 0
 1479 74 1406 -40 1188 -40 c 0
 1008 -40 934 44 934 146 c 0
 934 184 944 220 953 250 c 2
 1046 620 l 2
 1084 748 1101 796 1070 796 c 0
 1028 796 987 597 931 341 c 2
 866 42 l 2
 860 14 853 0 818 0 c 2
 476 0 l 2
 427 0 425 11 435 55 c 2
 576 676 l 2
 605 787 598 796 576 796 c 0
 544 796 493 596 437 339 c 2
 374 52 l 2
 366 18 355 0 312 0 c 2
 22 0 l 2
 -48 0 -51 14 -39 66 c 2
 125 772 l 2
 136 819 149 830 106 830 c 2
 96 830 l 2
 64 830 56 832 56 884 c 2
 56 988 l 2
 56 1032 58 1040 102 1040 c 2
EndSplineSet
Substitution2: "'smcp' Lowercase to Small Capitals in Latin lookup 0 subtable" m.sc
EndChar

StartChar: n
Encoding: 110 110 51
GlifName: n
Width: 1062
Flags: W
HStem: -40 224<630 898.347> 0 21G<-4.5 329>
VStem: 456 407<95 337.234>
AnchorPoint: "Anchor-0" 720 1040 basechar 0
AnchorPoint: "Anchor-1" 600 0 basechar 0
AnchorPoint: "Anchor-2" 600 0 basechar 0
LayerCount: 2
Fore
SplineSet
128 1040 m 2
 520 1040 l 2
 587 1040 587 1036 577 978 c 2
 575 966 l 2
 562 889 576 893 605 939 c 0
 668 1039 754 1078 846 1078 c 0
 1004 1078 1115 1014 1008 682 c 2
 872 250 l 2
 866 232 863 210 863 202 c 0
 863 191 866 184 876 184 c 0
 890 184 899 204 918 262 c 0
 934 309 934 315 966 309 c 2
 1048 294 l 2
 1078 289 1069 269 1048 207 c 0
 999 60 896 -40 740 -40 c 0
 520 -40 456 44 456 146 c 0
 457 184 465 220 474 250 c 2
 578 620 l 2
 616 748 629 806 583 806 c 0
 532 806 492 588 435 327 c 2
 377 62 l 2
 366 10 360 0 298 0 c 2
 34 0 l 2
 -43 0 -51 8 -37 68 c 2
 131 788 l 2
 140 825 126 830 98 830 c 2
 94 830 l 2
 65 830 59 845 59 886 c 2
 59 978 l 2
 59 1038 70 1040 128 1040 c 2
EndSplineSet
Substitution2: "'smcp' Lowercase to Small Capitals in Latin lookup 0 subtable" n.sc
EndChar

StartChar: o
Encoding: 111 111 52
GlifName: o
Width: 1020
Flags: W
HStem: -20 21G<273 566.5> 880 180<547.024 745>
VStem: 4 374<189.152 421.257> 605 410<621.517 861.043>
AnchorPoint: "Anchor-0" 662 1040 basechar 0
AnchorPoint: "Anchor-1" 400 70 basechar 0
AnchorPoint: "Anchor-2" 400 70 basechar 0
LayerCount: 2
Fore
SplineSet
4 390 m 0
 4 770 238 1060 623 1060 c 0
 867 1060 1015 900 1015 660 c 0
 1015 280 730 -20 403 -20 c 0
 143 -20 4 160 4 390 c 0
378 200 m 0
 378 180 381 160 399 160 c 0
 477 160 604 792 605 840 c 0
 605 858 600 880 580 880 c 0
 504 880 379 238 378 200 c 0
EndSplineSet
Substitution2: "'smcp' Lowercase to Small Capitals in Latin lookup 0 subtable" o.sc
EndChar

StartChar: p
Encoding: 112 112 53
GlifName: p
Width: 996
Flags: W
HStem: -500 21G<-122.5 192.5> -40 198<396.699 610.5> 880 198<546 794>
VStem: 603 395<607.376 875.5>
AnchorPoint: "Anchor-0" 797 1040 basechar 0
AnchorPoint: "Anchor-1" 577 0 basechar 0
AnchorPoint: "Anchor-2" 577 0 basechar 0
LayerCount: 2
Fore
SplineSet
106 1040 m 2
 464 1040 l 2
 492 1040 499 1039 495 1008 c 2
 485 940 l 2
 479 897 481 882 511 931 c 0
 566 1020 622 1078 721 1078 c 0
 867 1078 998 968 998 708 c 0
 998 268 725 -40 496 -40 c 0
 410 -40 384 17 367 57 c 0
 358 78 346 79 337 40 c 2
 232 -448 l 2
 222 -492 215 -500 170 -500 c 2
 -86 -500 l 2
 -159 -500 -157 -480 -145 -426 c 2
 130 786 l 2
 138 821 139 830 104 830 c 2
 96 830 l 2
 62 830 60 838 60 882 c 2
 60 998 l 2
 60 1037 70 1040 106 1040 c 2
386 198 m 0
 386 177 392 158 411 158 c 0
 487 158 602 790 603 838 c 0
 604 866 597 880 584 880 c 0
 508 880 388 266 386 198 c 0
EndSplineSet
Substitution2: "'smcp' Lowercase to Small Capitals in Latin lookup 0 subtable" p.sc
EndChar

StartChar: q
Encoding: 113 113 54
GlifName: q
Width: 979
Flags: W
HStem: -500 21G<376.5 791> -40 198<202.5 445> 880 198<393.5 612.754>
VStem: 3 385<162.5 430.624>
AnchorPoint: "Anchor-0" 555 1040 basechar 0
AnchorPoint: "Anchor-1" 205 0 basechar 0
AnchorPoint: "Anchor-2" 205 0 basechar 0
LayerCount: 2
Fore
SplineSet
3 330 m 0
 3 770 279 1078 508 1078 c 0
 601 1078 650 1021 658 964 c 0
 664 919 679 932 685 964 c 2
 693 1004 l 2
 701 1038 708 1040 742 1040 c 2
 989 1040 l 2
 1045 1040 1048 1035 1037 990 c 2
 757 -230 l 2
 747 -273 745 -290 786 -290 c 2
 787 -290 l 2
 817 -290 821 -299 821 -340 c 2
 821 -445 l 2
 821 -494 815 -500 767 -500 c 2
 402 -500 l 2
 351 -500 344 -493 354 -444 c 2
 455 8 l 2
 465 51 435 27 412 7 c 0
 377 -23 328 -40 269 -40 c 0
 136 -40 3 70 3 330 c 0
613 840 m 0
 613 861 607 880 588 880 c 0
 512 880 389 248 388 200 c 0
 387 172 394 158 407 158 c 0
 483 158 611 772 613 840 c 0
EndSplineSet
Substitution2: "'smcp' Lowercase to Small Capitals in Latin lookup 0 subtable" q.sc
EndChar

StartChar: r
Encoding: 114 114 55
GlifName: r
Width: 956
Flags: W
HStem: 0 21G<-8.5 336> 780 286<549.5 823.5>
AnchorPoint: "Anchor-0" 588 1040 basechar 0
AnchorPoint: "Anchor-1" 171 0 basechar 0
AnchorPoint: "Anchor-2" 171 0 basechar 0
LayerCount: 2
Fore
SplineSet
94 1040 m 2
 477 1040 l 2
 528 1040 552 1034 542 984 c 2
 533 938 l 2
 524 891 534 878 554 919 c 0
 604 1023 663 1066 765 1066 c 0
 882 1066 1004 974 1004 838 c 0
 1004 674 892 560 733 560 c 0
 624 560 562 638 564 720 c 0
 565 748 572 756 572 770 c 0
 572 778 568 780 564 780 c 0
 535 780 510 664 451 387 c 2
 382 70 l 2
 371 18 368 0 304 0 c 2
 20 0 l 2
 -37 0 -48 6 -38 50 c 2
 131 774 l 2
 142 822 141 830 102 830 c 2
 96 830 l 2
 62 830 60 838 60 882 c 2
 60 999 l 2
 60 1030 64 1040 94 1040 c 2
EndSplineSet
Substitution2: "'smcp' Lowercase to Small Capitals in Latin lookup 0 subtable" r.sc
EndChar

StartChar: s
Encoding: 115 115 56
GlifName: s
Width: 825
Flags: W
HStem: -44 200<256.009 367.705>
VStem: -66 317<159.565 330> 70 405<715.154 898.375> 383 417<170.671 385.091> 547 330<690.807 901.108>
AnchorPoint: "Anchor-0" 489 1040 basechar 0
AnchorPoint: "Anchor-1" 260 0 basechar 0
AnchorPoint: "Anchor-2" 260 0 basechar 0
LayerCount: 2
Fore
SplineSet
383 265 m 0
 388 469 70 508 70 760 c 0
 70 968 250 1084 498 1084 c 0
 755 1084 877 944 877 812 c 0
 877 712 803 624 679 624 c 0
 596 624 524 690 526 780 c 0
 527 838 546 848 547 872 c 0
 547 892 538 904 515 904 c 0
 491 904 476 866 475 812 c 0
 471 632 800 624 800 348 c 0
 800 50 540 -44 324 -44 c 0
 93 -44 -66 92 -66 272 c 0
 -66 388 2 492 132 492 c 0
 235 492 309 428 309 334 c 0
 307 228 251 218 251 198 c 0
 251 180 274 156 314 156 c 0
 345 156 381 183 383 265 c 0
EndSplineSet
Substitution2: "'smcp' Lowercase to Small Capitals in Latin lookup 0 subtable" s.sc
EndChar

StartChar: t
Encoding: 116 116 57
GlifName: t
Width: 588
Flags: W
HStem: -40 21G<132 324.5> 830 210<67.0161 126.98 588.997 664.901>
AnchorPoint: "Anchor-0" 590 1277 basechar 0
AnchorPoint: "Anchor-1" 749 1153 basechar 0
AnchorPoint: "Anchor-2" 285 0 basechar 0
LayerCount: 2
Fore
SplineSet
129 1040 m 2
 151 1040 l 2
 190 1040 186 1048 193 1078 c 2
 220 1192 l 2
 226 1215 233 1222 259 1223 c 0
 379 1229 450 1265 487 1291 c 0
 525 1318 518 1316 579 1316 c 0
 628 1316 645 1314 636 1278 c 2
 589 1084 l 2
 580 1048 578 1040 617 1040 c 2
 621 1040 l 2
 650 1040 665 1038 665 1006 c 2
 665 884 l 2
 665 838 663 830 617 830 c 2
 558 830 l 2
 529 830 524 820 517 792 c 2
 393 274 l 2
 383 236 372 184 389 184 c 0
 408 184 419 225 437 278 c 0
 447 307 451 315 495 307 c 2
 545 298 l 2
 582 291 581 274 565 233 c 0
 493 52 426 -40 223 -40 c 0
 41 -40 -43 60 -1 252 c 2
 126 782 l 2
 133 812 140 830 107 830 c 2
 105 830 l 2
 76 830 67 832 67 875 c 2
 67 995 l 2
 67 1039 89 1040 129 1040 c 2
EndSplineSet
Substitution2: "'smcp' Lowercase to Small Capitals in Latin lookup 0 subtable" t.sc
Substitution2: "'ss01' Style Set 1 lookup 3 subtable" t.alt
EndChar

StartChar: u
Encoding: 117 117 58
GlifName: u
Width: 1109
Flags: W
HStem: -50 234<687.5 949.533> -38 252<290 487> 846 234<220.667 481.5>
VStem: 47 130<727.927 838.363> 987 133<185.967 301.899>
AnchorPoint: "Anchor-0" 671 1040 basechar 0
AnchorPoint: "Anchor-1" 404 0 basechar 0
AnchorPoint: "Anchor-2" 404 0 basechar 0
AnchorPoint: "Anchor-3" 1124 50 basechar 0
LayerCount: 2
Fore
SplineSet
47 797 m 0
 96 980 227 1080 374 1080 c 0
 589 1080 637 961 592 790 c 2
 494 420 l 2
 458 292 455 214 487 214 c 0
 532 214 595 462 652 728 c 2
 706 976 l 2
 714 1014 718 1040 764 1040 c 2
 1066 1040 l 2
 1124 1040 1137 1040 1125 994 c 2
 934 252 l 2
 926 222 917 184 935 184 c 0
 957 184 962 208 987 274 c 0
 998 304 996 315 1039 308 c 2
 1096 299 l 2
 1130 295 1130 277 1120 236 c 0
 1073 50 948 -50 771 -50 c 0
 604 -50 551 29 551 100 c 2
 551 120 l 2
 551 137 533 139 522 114 c 0
 477 7 423 -38 290 -38 c 0
 167 -38 -1 28 107 358 c 1
 230 780 l 2
 239 810 246 846 228 846 c 0
 214 846 202 827 177 746 c 0
 170 724 171 712 131 720 c 2
 63 733 l 2
 34 739 36 757 47 797 c 0
EndSplineSet
Substitution2: "'smcp' Lowercase to Small Capitals in Latin lookup 0 subtable" u.sc
EndChar

StartChar: v
Encoding: 118 118 59
GlifName: v
Width: 918
Flags: W
HStem: 765 323<639.5 829.999>
VStem: 49 406<674.291 914.861> 803 157<615.13 909>
AnchorPoint: "Anchor-0" 753 1040 basechar 0
AnchorPoint: "Anchor-1" 507 0 basechar 0
AnchorPoint: "Anchor-2" 507 0 basechar 0
LayerCount: 2
Fore
SplineSet
665 674 m 0
 560 674 492 750 495 876 c 0
 498 996 573 1088 706 1088 c 0
 857 1088 960 1000 960 818 c 0
 960 531 810 327 309 -11 c 0
 277 -33 257 -49 224 -28 c 2
 127 34 l 2
 110 45 110 48 117 76 c 0
 128 119 148 177 149 240 c 0
 149 434 49 618 49 806 c 0
 49 949 194 989 411 1089 c 0
 430 1099 431 1102 439 1079 c 2
 483 949 l 2
 491 927 491 923 479 912 c 0
 470 904 456 887 455 860 c 0
 452 721 540 653 542 407 c 0
 543 391 541 381 544 376 c 0
 548 368 558 373 575 389 c 0
 705 508 803 642 803 756 c 0
 803 762 800 765 795 765 c 0
 775 765 766 674 665 674 c 0
EndSplineSet
Substitution2: "'smcp' Lowercase to Small Capitals in Latin lookup 0 subtable" v.sc
EndChar

StartChar: w
Encoding: 119 119 60
GlifName: w
Width: 1544
Flags: W
HStem: -40 272<311 520> 846 232<223.7 497>
VStem: 48 131<728.219 838.129> 239 412<695.031 845.996> 1338 266<592 907>
AnchorPoint: "Anchor-0" 756 1040 basechar 0
AnchorPoint: "Anchor-1" 577 0 basechar 0
AnchorPoint: "Anchor-2" 577 0 basechar 0
LayerCount: 2
Fore
SplineSet
48 797 m 0
 97 979 226 1078 407 1078 c 0
 587 1078 651 994 651 892 c 0
 652 854 643 818 633 788 c 2
 537 438 l 2
 499 310 484 232 520 232 c 0
 612 232 676 446 728 707 c 2
 781 991 l 2
 788 1032 798 1040 849 1040 c 2
 1151 1040 l 2
 1218 1040 1213 1030 1200 973 c 2
 1056 418 l 2
 1013 251 999 205 1041 205 c 0
 1122 205 1338 574 1338 610 c 0
 1338 622 1336 628 1330 628 c 0
 1324 628 1311 624 1291 624 c 0
 1265 624 1193 640 1193 806 c 0
 1193 956 1285 1068 1426 1068 c 0
 1550 1068 1604 966 1604 848 c 0
 1604 638 1372 -40 894 -40 c 0
 684 -40 662 38 642 102 c 0
 631 137 622 146 597 103 c 0
 528 -1 435 -40 311 -40 c 0
 163 -40 4 24 107 356 c 2
 230 780 l 2
 235 796 239 813 239 828 c 0
 239 840 235 846 229 846 c 0
 213 846 206 830 179 745 c 0
 172 723 168 713 113 724 c 2
 67 733 l 2
 40 738 35 748 48 797 c 0
EndSplineSet
Substitution2: "'smcp' Lowercase to Small Capitals in Latin lookup 0 subtable" w.sc
EndChar

StartChar: x
Encoding: 120 120 61
GlifName: x
Width: 1061
Flags: W
HStem: -44 204<147 327.701> -40 296<593.5 794.229> 780 304<304.671 513> 886 194<754.973 943>
VStem: -49 313<161.781 332> 396 290<289.052 773.549> 795 310<699 884.354>
AnchorPoint: "Anchor-0" 664 1040 basechar 0
AnchorPoint: "Anchor-1" 417 2 basechar 0
AnchorPoint: "Anchor-2" 417 2 basechar 0
LayerCount: 2
Fore
SplineSet
-49 248 m 0
 -49 416 67 538 187 538 c 0
 293 538 353 470 353 360 c 0
 350 226 264 211 264 179 c 0
 264 163 273 160 288 160 c 0
 332 160 373 325 389 413 c 0
 397 454 396 463 396 514 c 0
 395 606 390 655 379 725 c 0
 374 757 364 780 340 780 c 0
 314 780 281 746 239 662 c 0
 224 632 226 621 197 639 c 2
 75 710 l 2
 45 727 55 736 69 768 c 0
 142 932 284 1084 465 1084 c 0
 561 1084 621 1022 636 957 c 0
 641 935 644 921 646 902 c 0
 649 876 658 882 666 905 c 0
 701 1001 748 1080 874 1080 c 0
 1012 1080 1105 952 1105 788 c 0
 1105 610 1012 518 892 518 c 0
 799 518 724 566 724 676 c 0
 727 800 793 830 795 872 c 0
 795 882 794 886 786 886 c 0
 770 886 706 754 696 663 c 0
 691 622 687 611 686 559 c 0
 685 481 705 391 724 307 c 0
 729 285 742 256 764 256 c 0
 793 256 833 303 877 384 c 0
 897 420 895 440 932 414 c 2
 1029 349 l 2
 1056 331 1062 330 1047 296 c 0
 973 127 808 -40 641 -40 c 0
 546 -40 497 -6 467 56 c 0
 452 88 449 104 443 133 c 0
 438 157 430 155 420 126 c 0
 391 47 337 -44 236 -44 c 0
 58 -44 -49 74 -49 248 c 0
EndSplineSet
Substitution2: "'smcp' Lowercase to Small Capitals in Latin lookup 0 subtable" x.sc
EndChar

StartChar: y
Encoding: 121 121 62
GlifName: y
Width: 1046
Flags: W
HStem: 850 234<181.101 423.5>
VStem: -1 130<738.239 841.797> 864 216<534.435 861>
AnchorPoint: "Anchor-0" 663 1040 basechar 0
AnchorPoint: "Anchor-1" 25 -565 basechar 0
AnchorPoint: "Anchor-2" 25 -565 basechar 0
LayerCount: 2
Fore
SplineSet
770 696 m 0
 681 696 623 792 625 888 c 0
 628 1028 727 1090 840 1090 c 0
 998 1090 1080 942 1080 780 c 0
 1080 370 563 -480 228 -540 c 0
 32 -575 -98 -416 -94 -212 c 0
 -94 -60 -7 114 152 114 c 0
 242 114 321 48 317 -74 c 0
 311 -256 193 -270 192 -310 c 0
 192 -320 197 -336 215 -336 c 0
 276 -336 347 -234 390 -170 c 0
 406 -146 412 -153 401 -125 c 0
 283 160 263 669 227 805 c 0
 221 826 216 850 187 850 c 0
 168 850 157 828 129 732 c 0
 123 712 109 718 89 722 c 2
 6 738 l 2
 -18 743 -7 754 -1 778 c 0
 54 984 186 1084 336 1084 c 0
 511 1084 558 1010 586 895 c 0
 620 752 608 568 674 289 c 0
 685 241 689 240 710 278 c 0
 797 428 864 622 864 718 c 0
 864 730 863 736 857 736 c 0
 838 736 838 696 770 696 c 0
EndSplineSet
Substitution2: "'smcp' Lowercase to Small Capitals in Latin lookup 0 subtable" y.sc
EndChar

StartChar: z
Encoding: 122 122 63
GlifName: z
Width: 935
Flags: W
HStem: -40 424<389.055 599.78> 679 401<294.5 544>
AnchorPoint: "Anchor-0" 707 1040 basechar 0
AnchorPoint: "Anchor-1" 429 0 basechar 0
AnchorPoint: "Anchor-2" 429 0 basechar 0
LayerCount: 2
Fore
SplineSet
44 695 m 0
 162 825 303 1080 482 1080 c 0
 606 1080 639 982 712 982 c 0
 780 982 795 1005 856 1051 c 0
 881 1068 880 1072 900 1049 c 2
 975 960 l 2
 1000 930 1000 930 968 906 c 2
 436 410 l 2
 405 383 385 375 387 365 c 0
 390 352 405 367 440 376 c 0
 460 381 477 384 490 384 c 0
 540 384 590 380 632 380 c 0
 694 380 736 428 793 509 c 0
 811 534 813 526 836 508 c 2
 939 428 l 2
 963 410 958 409 941 383 c 0
 842 234 665 -40 462 -40 c 0
 341 -40 303 48 228 48 c 0
 178 48 146 30 77 -11 c 0
 48 -27 49 -33 28 -8 c 2
 -64 100 l 2
 -81 120 -81 120 -59 136 c 2
 459 641 l 2
 475 655 489 666 484 675 c 0
 481 681 473 677 464 672 c 0
 455 667 445 665 426 665 c 0
 402 665 337 679 316 679 c 0
 273 679 259 646 207 591 c 0
 181 565 182 555 149 578 c 2
 56 645 l 2
 25 667 17 666 44 695 c 0
EndSplineSet
Substitution2: "'smcp' Lowercase to Small Capitals in Latin lookup 0 subtable" z.sc
EndChar

StartChar: comma
Encoding: 44 44 65
GlifName: comma
Width: 590
Flags: W
HStem: -311 160<-86 150.133> -30 436<71.8668 239.243>
VStem: -32 532<39.1165 279.885>
LayerCount: 2
Fore
SplineSet
-32 172 m 0
 -32 316 86 406 222 406 c 0
 360 406 500 324 500 98 c 0
 500 -163 190 -299 -47 -311 c 0
 -82 -313 -86 -311 -86 -276 c 2
 -86 -170 l 2
 -86 -146 -77 -153 -56 -151 c 0
 60 -142 235 -101 302 -24 c 0
 335 13 308 19 278 1 c 0
 247 -17 208 -30 156 -30 c 0
 40 -30 -32 46 -32 172 c 0
EndSplineSet
EndChar

StartChar: exclam
Encoding: 33 33 67
GlifName: exclam
Width: 756
Flags: W
HStem: -40 480<116.055 383.945> 1498 20G<456 608>
VStem: 10 480<66.0547 333.945>
LayerCount: 2
Fore
SplineSet
10 200 m 0
 10 332 118 440 250 440 c 0
 382 440 490 332 490 200 c 0
 490 68 382 -40 250 -40 c 0
 118 -40 10 68 10 200 c 0
760 1196 m 0
 639 873 482 825 403 562 c 0
 394 532 383 530 343 530 c 2
 297 530 l 2
 249 530 233 532 241 570 c 0
 293 833 181 953 250 1298 c 0
 278 1438 386 1518 526 1518 c 0
 690 1518 782 1416 782 1314 c 0
 782 1278 772 1227 760 1196 c 0
EndSplineSet
EndChar

StartChar: quotesingle
Encoding: 39 39 70
GlifName: quotesingle
Width: 614
Flags: W
HStem: 936 620<273.498 376.745>
VStem: 180 454<1260.45 1467.52> 229 145<936 1053.68>
LayerCount: 2
Fore
SplineSet
570 1232 m 0
 502 1151 401 1075 374 966 c 0
 367 939 371 936 336 936 c 2
 266 936 l 2
 228 936 232 941 229 974 c 0
 212 1163 180 1220 180 1344 c 0
 180 1482 298 1556 430 1556 c 0
 522 1556 634 1498 634 1374 c 0
 634 1321 607 1276 570 1232 c 0
EndSplineSet
EndChar

StartChar: quoteleft
Encoding: 8216 8216 71
GlifName: quoteleft
Width: 704
Flags: W
HStem: 882 436<463.757 631.133> 1439 160<552.867 789>
VStem: 203 532<1008.12 1248.88>
LayerCount: 2
Fore
SplineSet
735 1116 m 0
 735 972 617 882 481 882 c 0
 343 882 203 964 203 1190 c 0
 203 1451 513 1587 750 1599 c 0
 785 1601 789 1599 789 1564 c 2
 789 1458 l 2
 789 1434 780 1441 759 1439 c 0
 643 1430 468 1389 401 1312 c 0
 368 1275 395 1269 425 1287 c 0
 456 1305 495 1318 547 1318 c 0
 663 1318 735 1242 735 1116 c 0
EndSplineSet
EndChar

StartChar: quotedblleft
Encoding: 8220 8220 72
GlifName: quotedblleft
Width: 1324
Flags: W
HStem: 882 436<463.757 631.133 1083.76 1251.13> 1439 160<552.867 789 1172.87 1409>
VStem: 203 532<1008.12 1248.88> 823 532<1008.12 1248.88>
LayerCount: 2
Fore
SplineSet
735 1116 m 0
 735 972 617 882 481 882 c 0
 343 882 203 964 203 1190 c 0
 203 1451 513 1587 750 1599 c 0
 785 1601 789 1599 789 1564 c 2
 789 1458 l 2
 789 1434 780 1441 759 1439 c 0
 643 1430 468 1389 401 1312 c 0
 368 1275 395 1269 425 1287 c 0
 456 1305 495 1318 547 1318 c 0
 663 1318 735 1242 735 1116 c 0
1355 1116 m 0
 1355 972 1237 882 1101 882 c 0
 963 882 823 964 823 1190 c 0
 823 1451 1133 1587 1370 1599 c 0
 1405 1601 1409 1599 1409 1564 c 2
 1409 1458 l 2
 1409 1434 1400 1441 1379 1439 c 0
 1263 1430 1088 1389 1021 1312 c 0
 988 1275 1015 1269 1045 1287 c 0
 1076 1305 1115 1318 1167 1318 c 0
 1283 1318 1355 1242 1355 1116 c 0
EndSplineSet
EndChar

StartChar: quotedblright
Encoding: 8221 8221 73
GlifName: quotedblright
Width: 1324
Flags: W
HStem: 993 160<225 461.133 845 1081.13> 1274 436<382.867 550.243 1002.87 1170.24>
VStem: 279 532<1343.12 1583.88> 899 532<1343.12 1583.88>
LayerCount: 2
Fore
SplineSet
279 1476 m 0
 279 1620 397 1710 533 1710 c 0
 671 1710 811 1628 811 1402 c 0
 811 1141 501 1005 264 993 c 0
 229 991 225 993 225 1028 c 2
 225 1134 l 2
 225 1158 234 1151 255 1153 c 0
 371 1162 546 1203 613 1280 c 0
 646 1317 619 1323 589 1305 c 0
 558 1287 519 1274 467 1274 c 0
 351 1274 279 1350 279 1476 c 0
899 1476 m 0
 899 1620 1017 1710 1153 1710 c 0
 1291 1710 1431 1628 1431 1402 c 0
 1431 1141 1121 1005 884 993 c 0
 849 991 845 993 845 1028 c 2
 845 1134 l 2
 845 1158 854 1151 875 1153 c 0
 991 1162 1166 1203 1233 1280 c 0
 1266 1317 1239 1323 1209 1305 c 0
 1178 1287 1139 1274 1087 1274 c 0
 971 1274 899 1350 899 1476 c 0
EndSplineSet
EndChar

StartChar: quoteright
Encoding: 8217 8217 74
GlifName: quoteright
Width: 704
Flags: W
HStem: 993 160<235 471.133> 1274 436<392.867 560.243>
VStem: 289 532<1343.12 1583.88>
LayerCount: 2
Fore
SplineSet
289 1476 m 0
 289 1620 407 1710 543 1710 c 0
 681 1710 821 1628 821 1402 c 0
 821 1141 511 1005 274 993 c 0
 239 991 235 993 235 1028 c 2
 235 1134 l 2
 235 1158 244 1151 265 1153 c 0
 381 1162 556 1203 623 1280 c 0
 656 1317 629 1323 599 1305 c 0
 568 1287 529 1274 477 1274 c 0
 361 1274 289 1350 289 1476 c 0
EndSplineSet
EndChar

StartChar: question
Encoding: 63 63 75
GlifName: question
Width: 1220
Flags: W
HStem: -40 480<414.055 681.945> 472 194<532.097 778.668> 1366 174<581.652 812.874>
VStem: 150 428<1094 1358> 308 480<66.0547 333.945> 858 422<1069.43 1323.41>
LayerCount: 2
Fore
SplineSet
727 494 m 0
 654 476 593 472 562 472 c 0
 441 472 290 536 290 680 c 0
 290 996 858 865 858 1200 c 0
 858 1308 800 1366 702 1366 c 0
 634 1366 578 1350 578 1326 c 0
 578 1286 660 1282 660 1140 c 0
 660 1016 514 940 404 940 c 0
 294 940 150 1026 150 1162 c 0
 150 1366 398 1540 762 1540 c 0
 1104 1540 1280 1400 1280 1180 c 0
 1280 726 531 783 531 701 c 0
 531 678 553 666 600 666 c 0
 622 666 675 670 728 688 c 0
 766 701 770 714 775 661 c 2
 786 555 l 2
 792 501 770 505 727 494 c 0
EndSplineSet
Refer: 1 46 N 1 0 0 1 338 0 2
EndChar

StartChar: parenleft
Encoding: 40 40 76
GlifName: parenleft
Width: 960
Flags: W
HStem: 1427 161<988.601 1067.56>
VStem: 100 470<182.046 789.599>
LayerCount: 2
Fore
SplineSet
783 -214 m 2
 739 -302 l 2
 718 -344 711 -338 665 -322 c 0
 294 -190 100 83 100 470 c 0
 100 1040 453 1438 993 1588 c 0
 1035 1600 1039 1602 1057 1566 c 2
 1109 1462 l 2
 1124 1432 1105 1437 1075 1427 c 0
 755 1320 570 895 570 470 c 0
 570 179 608 -69 777 -168 c 0
 804 -184 797 -187 783 -214 c 2
EndSplineSet
EndChar

StartChar: parenright
Encoding: 41 41 77
GlifName: parenright
Width: 920
Flags: W
HStem: -324 161<-147.562 -68.6008>
VStem: 350 470<474.401 1081.95>
LayerCount: 2
Fore
SplineSet
137 1478 m 2
 181 1566 l 2
 202 1608 209 1602 255 1586 c 0
 626 1454 820 1181 820 794 c 0
 820 224 467 -174 -73 -324 c 0
 -115 -336 -119 -338 -137 -302 c 2
 -189 -198 l 2
 -204 -168 -185 -173 -155 -163 c 0
 165 -56 350 369 350 794 c 0
 350 1085 312 1333 143 1432 c 0
 116 1448 123 1451 137 1478 c 2
EndSplineSet
EndChar

StartChar: asterisk
Encoding: 42 42 78
GlifName: asterisk
Width: 1318
Flags: W
HStem: 1001 619<730.5 914.5>
VStem: 343 374<531.544 729.045>
LayerCount: 2
Fore
SplineSet
792 975 m 0
 870 949 942 947 1024 896 c 0
 1143 822 1131 698 1085 618 c 0
 1049 556 953 505 863 557 c 0
 770 610 769 766 703 886 c 0
 677 934 653 963 671 880 c 0
 687 802 717 734 717 652 c 0
 717 514 599 460 507 460 c 0
 435 460 343 518 343 622 c 0
 343 730 481 810 551 931 c 0
 582 985 581 997 534 956 c 0
 471 901 426 839 352 796 c 0
 232 727 126 802 80 882 c 0
 44 944 49 1053 139 1105 c 0
 238 1162 384 1072 530 1080 c 0
 585 1083 568 1090 532 1103 c 0
 452 1131 380 1135 294 1184 c 0
 194 1241 186 1382 232 1462 c 0
 268 1524 365 1575 455 1523 c 0
 552 1467 549 1298 626 1176 c 0
 644 1147 661 1118 651 1178 c 0
 636 1266 601 1339 601 1428 c 0
 601 1566 719 1620 811 1620 c 0
 883 1620 975 1562 975 1458 c 0
 975 1354 847 1276 775 1163 c 0
 738 1105 730 1076 790 1129 c 0
 850 1183 895 1243 966 1284 c 0
 1086 1353 1191 1278 1237 1198 c 0
 1273 1136 1269 1027 1179 975 c 0
 1085 921 946 1001 807 1001 c 0
 742 1001 739 992 792 975 c 0
EndSplineSet
EndChar

StartChar: at
Encoding: 64 64 79
GlifName: at
Width: 2300
Flags: W
HStem: -448 230<889.748 1372.91> 126 214<1531.5 1785.88> 130 234<929 1179.21> 836 232<1037 1338.74> 1364 236<1102.03 1592.76>
VStem: 90 450<190.199 745.438> 708 422<364.286 644.863> 1954 226<561.76 1035.37>
LayerCount: 2
Fore
SplineSet
1348 692 m 0
 1348 776 1344 836 1288 836 c 0
 1200 836 1130 608 1130 480 c 0
 1130 386 1140 364 1168 364 c 0
 1250 364 1348 536 1348 692 c 0
1768 -173 m 0
 1600 -353 1350 -448 1038 -448 c 0
 672 -448 90 -224 90 442 c 0
 90 1108 644 1600 1270 1600 c 0
 1856 1600 2180 1248 2180 802 c 0
 2180 462 1944 126 1582 126 c 0
 1481 126 1405 172 1354 230 c 0
 1324 264 1314 272 1274 239 c 0
 1200 178 1119 130 1008 130 c 0
 850 130 708 211 708 420 c 0
 708 640 878 1068 1196 1068 c 0
 1314 1068 1372 1027 1400 958 c 0
 1415 922 1420 917 1428 961 c 2
 1438 1012 l 2
 1444 1042 1449 1040 1486 1040 c 2
 1719 1040 l 2
 1770 1040 1783 1036 1772 989 c 2
 1640 440 l 2
 1636 414 1610 340 1676 340 c 0
 1778 340 1954 482 1954 810 c 0
 1954 1224 1612 1364 1344 1364 c 0
 956 1364 540 1046 540 482 c 0
 540 58 762 -218 1110 -218 c 0
 1284 -218 1446 -208 1612 -51 c 0
 1642 -23 1645 -3 1677 -35 c 2
 1770 -128 l 2
 1791 -149 1788 -151 1768 -173 c 0
EndSplineSet
EndChar

StartChar: dollar
Encoding: 36 36 80
GlifName: dollar
Width: 1506
Flags: W
VStem: 0 338<209.887 460> 170 474<887 1193.87> 924 480<334.862 648> 1118 358<1080 1311.34>
LayerCount: 2
Fore
SplineSet
1034 1102 m 0
 1034 1194 1118 1204 1118 1250 c 0
 1118 1282 1108 1303 1067 1315 c 0
 1028 1326 997 1314 985 1271 c 2
 919 1035 l 2
 903 980 894 974 951 957 c 0
 1162 896 1404 806 1404 490 c 0
 1404 208 1012 -11 665 -37 c 0
 622 -40 615 -37 605 -73 c 2
 588 -135 l 2
 580 -163 573 -170 535 -170 c 2
 403 -170 l 2
 361 -170 359 -163 369 -129 c 2
 389 -59 l 2
 400 -20 396 -24 357 -15 c 0
 69 53 0 246 0 392 c 0
 0 528 80 634 218 634 c 0
 352 634 422 562 422 448 c 0
 422 316 338 340 338 280 c 0
 338 243 359 210 427 191 c 0
 457 183 459 186 467 215 c 2
 562 554 l 2
 573 592 545 601 511 612 c 0
 331 669 170 758 170 1016 c 0
 170 1314 498 1493 769 1532 c 0
 828 1541 839 1533 854 1585 c 2
 868 1635 l 2
 876 1664 889 1670 925 1670 c 2
 1035 1670 l 2
 1088 1670 1099 1668 1086 1623 c 2
 1070 1571 l 2
 1055 1516 1065 1524 1119 1510 c 0
 1307 1462 1476 1354 1476 1158 c 0
 1476 1002 1376 916 1258 916 c 0
 1144 916 1034 968 1034 1102 c 0
644 1140 m 0
 644 1118 651 1099 662 1083 c 0
 684 1052 699 1036 712 1083 c 2
 764 1267 l 2
 776 1310 779 1318 737 1297 c 0
 674 1266 644 1212 644 1140 c 0
924 380 m 0
 924 441 889 480 834 509 c 0
 780 538 776 532 759 471 c 2
 691 229 l 2
 675 171 685 174 745 188 c 0
 862 215 924 278 924 380 c 0
EndSplineSet
EndChar

StartChar: numbersign
Encoding: 35 35 81
GlifName: numbersign
Width: 1320
Flags: W
HStem: 420 210<-59.9588 227.003 522.997 643.003 939.32 1239.91> 900 210<80.0496 360.003 656.002 776.422 1071 1380>
LayerCount: 2
Fore
SplineSet
611 1610 m 2
 731 1610 l 2
 778 1610 783 1605 772 1566 c 2
 657 1156 l 2
 646 1117 646 1110 699 1110 c 2
 809 1110 l 2
 855 1110 850 1122 859 1156 c 2
 976 1574 l 2
 985 1606 993 1610 1035 1610 c 2
 1147 1610 l 2
 1199 1610 1196 1601 1184 1559 c 2
 1071 1148 l 2
 1063 1118 1062 1110 1105 1110 c 2
 1335 1110 l 2
 1370 1110 1380 1107 1380 1070 c 2
 1380 944 l 2
 1380 906 1376 900 1339 900 c 2
 1049 900 l 2
 995 900 999 890 988 850 c 2
 942 684 l 2
 934 654 931 630 977 630 c 2
 1191 630 l 2
 1236 630 1240 622 1240 578 c 2
 1240 466 l 2
 1240 430 1239 420 1203 420 c 2
 921 420 l 2
 866 420 867 416 855 374 c 2
 730 -74 l 2
 720 -108 709 -110 665 -110 c 2
 557 -110 l 2
 514 -110 506 -110 515 -76 c 2
 643 380 l 2
 653 417 649 420 599 420 c 2
 489 420 l 2
 450 420 450 416 442 386 c 2
 316 -68 l 2
 307 -101 300 -110 255 -110 c 2
 133 -110 l 2
 84 -110 97 -84 106 -52 c 2
 227 380 l 2
 236 414 225 420 179 420 c 2
 -13 420 l 2
 -46 420 -60 422 -60 458 c 2
 -60 580 l 2
 -60 618 -58 630 -17 630 c 2
 257 630 l 2
 301 630 299 637 308 670 c 2
 360 858 l 2
 369 892 371 900 323 900 c 2
 123 900 l 2
 84 900 80 912 80 948 c 2
 80 1078 l 2
 80 1109 97 1110 125 1110 c 2
 379 1110 l 2
 433 1110 432 1115 443 1156 c 2
 564 1590 l 2
 571 1614 581 1610 611 1610 c 2
747 900 m 2
 615 900 l 2
 586 900 585 899 579 876 c 2
 523 674 l 2
 513 638 511 630 561 630 c 2
 665 630 l 2
 713 630 714 633 724 670 c 2
 779 868 l 2
 787 898 778 900 747 900 c 2
EndSplineSet
EndChar

StartChar: slash
Encoding: 47 47 82
GlifName: slash
Width: 1040
Flags: W
HStem: 1540 20G<908.5 1075>
LayerCount: 2
Fore
SplineSet
933 1560 m 2
 1046 1560 l 2
 1104 1560 1088 1537 1072 1506 c 2
 148 -262 l 2
 132 -292 123 -300 75 -300 c 2
 -15 -300 l 2
 -85 -300 -94 -289 -73 -248 c 2
 860 1518 l 2
 876 1548 884 1560 933 1560 c 2
EndSplineSet
EndChar

StartChar: percent
Encoding: 37 37 83
GlifName: percent
Width: 1960
Flags: W
HStem: 0 21G<377 488 1205 1481> 690 180<1482.09 1701> 1350 180<608.088 827> 1480 20G<1510.5 1638>
LayerCount: 2
Fore
SplineSet
179 1080 m 0
 242 1366 383 1530 679 1530 c 0
 975 1530 1042 1366 979 1080 c 0
 916 794 736 630 480 630 c 0
 184 630 116 794 179 1080 c 0
549 1080 m 0
 495 836 492 810 520 810 c 0
 548 810 555 836 609 1080 c 0
 663 1324 667 1350 639 1350 c 0
 611 1350 603 1324 549 1080 c 0
1534 1500 m 2
 1606 1500 l 2
 1670 1500 1678 1490 1647 1450 c 2
 559 24 l 2
 539 -2 509 0 467 0 c 2
 417 0 l 2
 337 0 332 18 363 58 c 2
 1440 1462 l 2
 1461 1490 1487 1500 1534 1500 c 2
1053 420 m 0
 1116 706 1257 870 1553 870 c 0
 1849 870 1916 706 1853 420 c 0
 1790 134 1609 -30 1353 -30 c 0
 1057 -30 990 134 1053 420 c 0
1423 420 m 0
 1369 176 1365 150 1393 150 c 0
 1421 150 1429 176 1483 420 c 0
 1537 664 1541 690 1513 690 c 0
 1485 690 1477 664 1423 420 c 0
EndSplineSet
EndChar

StartChar: plus
Encoding: 43 43 84
GlifName: plus
Width: 1060
Flags: W
HStem: 666 230<127 388.002 695.891 947>
LayerCount: 2
Fore
SplineSet
725 896 m 2
 913 896 l 2
 936 896 947 892 947 868 c 2
 947 691 l 2
 947 674 946 666 929 666 c 2
 676 666 l 2
 644 666 632 662 626 632 c 2
 562 389 l 2
 558 373 555 370 537 370 c 2
 349 370 l 2
 329 370 320 371 324 390 c 2
 388 625 l 2
 395 658 387 666 352 666 c 2
 156 666 l 2
 131 666 127 671 127 695 c 2
 127 869 l 2
 127 891 136 896 157 896 c 2
 411 896 l 2
 438 896 451 902 457 930 c 2
 513 1160 l 2
 518 1182 526 1190 551 1190 c 2
 730 1190 l 2
 750 1190 757 1183 752 1161 c 2
 695 934 l 2
 688 903 694 896 725 896 c 2
EndSplineSet
EndChar

StartChar: hyphen
Encoding: 45 45 85
GlifName: hyphen
Width: 820
Flags: W
HStem: 540 230<70 650>
VStem: 70 580<540 770>
LayerCount: 2
Fore
SplineSet
104 770 m 2
 616 770 l 2
 647 770 650 763 650 731 c 2
 650 581 l 2
 650 546 649 540 614 540 c 2
 112 540 l 2
 76 540 70 545 70 580 c 2
 70 729 l 2
 70 761 72 770 104 770 c 2
EndSplineSet
Substitution2: "Single Substitution lookup 10 subtable" hyphen.sc
EndChar

StartChar: dotlessi
Encoding: 305 305 86
GlifName: dotlessi
Width: 584
Flags: W
HStem: -50 234<147 415.89>
VStem: -7 408<94 378.531>
AnchorPoint: "Anchor-0" 379 1040 basechar 0
AnchorPoint: "Anchor-1" 217 0 basechar 0
AnchorPoint: "Anchor-2" 217 0 basechar 0
LayerCount: 2
Fore
SplineSet
584 980 m 2
 409 252 l 2
 406 240 401 212 401 202 c 0
 401 191 403 184 410 184 c 0
 426 184 436 210 456 271 c 0
 469 310 474 315 501 310 c 2
 574 297 l 2
 607 291 596 255 582 212 c 0
 516 13 393 -50 229 -50 c 0
 65 -50 -7 34 -7 154 c 0
 -7 192 6 249 13 280 c 2
 123 772 l 2
 134 821 136 830 106 830 c 2
 100 830 l 2
 58 830 53 836 53 880 c 2
 53 998 l 2
 53 1037 63 1040 100 1040 c 2
 532 1040 l 2
 598 1040 598 1035 584 980 c 2
EndSplineSet
EndChar

StartChar: braceleft
Encoding: 123 123 89
GlifName: braceleft
Width: 704
Flags: W
HStem: -298 218<402.961 543.53> 1345 214<668.517 883.735>
VStem: -70 426<-40.8387 141.074> 170 334<332.687 525.391> 210 406<933.325 1295.36> 262 382<776.883 1075.02>
LayerCount: 2
Fore
SplineSet
452 -298 m 0
 190 -289 -70 -233 -70 -20 c 0
 -70 214 170 304 170 430 c 0
 170 497 156 515 118 530 c 0
 96 539 90 547 90 580 c 2
 90 670 l 2
 90 702 92 721 116 729 c 0
 178 749 262 781 262 852 c 0
 262 978 210 988 210 1202 c 0
 210 1410 468 1547 830 1559 c 0
 871 1560 884 1558 884 1513 c 2
 884 1404 l 2
 884 1350 878 1348 828 1345 c 0
 720 1339 616 1311 616 1204 c 0
 616 1072 644 1102 644 902 c 0
 644 778 546 701 420 647 c 0
 372 627 369 606 413 584 c 0
 471 555 504 502 504 440 c 0
 504 240 356 220 356 88 c 0
 356 -13 397 -64 478 -80 c 0
 518 -88 544 -81 544 -134 c 2
 544 -246 l 2
 544 -308 507 -300 452 -298 c 0
EndSplineSet
EndChar

StartChar: bar
Encoding: 124 124 90
GlifName: bar
Width: 600
Flags: W
HStem: -500 21G<-101 86.5> 1540 20G<376 563>
LayerCount: 2
Fore
SplineSet
409 1560 m 2
 521 1560 l 2
 605 1560 592 1523 578 1464 c 2
 131 -452 l 2
 121 -494 112 -500 61 -500 c 2
 -71 -500 l 2
 -131 -500 -137 -489 -127 -444 c 2
 321 1480 l 2
 333 1530 343 1560 409 1560 c 2
EndSplineSet
EndChar

StartChar: braceright
Encoding: 125 125 91
GlifName: braceright
Width: 704
Flags: W
HStem: -299 214<-259.735 -44.5172> 1340 218<80.4704 221.039>
VStem: -20 382<184.982 483.117> 8 406<-35.3593 326.675> 120 334<734.609 927.313> 268 426<1118.93 1300.84>
LayerCount: 2
Fore
SplineSet
172 1558 m 0
 434 1549 694 1493 694 1280 c 0
 694 1046 454 956 454 830 c 0
 454 763 468 745 506 730 c 0
 528 721 534 713 534 680 c 2
 534 590 l 2
 534 558 532 539 508 531 c 0
 446 511 362 479 362 408 c 0
 362 282 414 272 414 58 c 0
 414 -150 156 -287 -206 -299 c 0
 -247 -300 -260 -298 -260 -253 c 2
 -260 -144 l 2
 -260 -90 -254 -88 -204 -85 c 0
 -96 -79 8 -51 8 56 c 0
 8 188 -20 158 -20 358 c 0
 -20 482 78 559 204 613 c 0
 252 633 255 654 211 676 c 0
 153 705 120 758 120 820 c 0
 120 1020 268 1040 268 1172 c 0
 268 1273 227 1324 146 1340 c 0
 106 1348 80 1341 80 1394 c 2
 80 1506 l 2
 80 1568 117 1560 172 1558 c 0
EndSplineSet
EndChar

StartChar: asciitilde
Encoding: 126 126 92
GlifName: asciitilde
Width: 1376
Flags: W
HStem: 646 246<786.9 1013.46> 814 246<365.554 598.157>
VStem: 126 206<687.201 780.987> 1050 199<933.848 1019.84>
LayerCount: 2
Fore
SplineSet
486 814 m 0
 418 814 362 786 332 733 c 0
 317 707 316 686 272 686 c 2
 156 686 l 2
 122 686 121 697 126 724 c 0
 162 900 316 1060 538 1060 c 0
 778 1060 738 892 890 892 c 0
 963 892 1022 924 1050 985 c 0
 1061 1008 1064 1020 1100 1020 c 2
 1202 1020 l 2
 1250 1020 1257 1015 1249 974 c 0
 1215 801 1093 646 838 646 c 0
 604 646 652 814 486 814 c 0
EndSplineSet
EndChar

StartChar: less
Encoding: 60 60 93
GlifName: less
Width: 1120
Flags: W
LayerCount: 2
Fore
SplineSet
438 748 m 2
 890 575 l 2
 919 564 930 553 930 511 c 2
 930 393 l 2
 930 335 923 333 884 348 c 2
 164 642 l 2
 131 655 120 672 120 720 c 2
 120 830 l 2
 120 890 135 896 176 912 c 2
 1020 1246 l 2
 1060 1262 1080 1265 1080 1199 c 2
 1080 1112 l 2
 1080 1055 1072 1037 1032 1022 c 2
 438 802 l 2
 403 789 382 788 382 776 c 0
 382 759 399 763 438 748 c 2
EndSplineSet
EndChar

StartChar: equal
Encoding: 61 61 94
GlifName: equal
Width: 1120
Flags: W
HStem: 460 230<90 970> 860 230<170 1050>
LayerCount: 2
Fore
SplineSet
207 1090 m 2
 1017 1090 l 2
 1047 1090 1050 1086 1050 1062 c 2
 1050 893 l 2
 1050 869 1048 860 1014 860 c 2
 204 860 l 2
 172 860 170 864 170 890 c 2
 170 1062 l 2
 170 1085 180 1090 207 1090 c 2
127 690 m 2
 937 690 l 2
 967 690 970 686 970 662 c 2
 970 493 l 2
 970 469 968 460 934 460 c 2
 124 460 l 2
 92 460 90 464 90 490 c 2
 90 662 l 2
 90 685 100 690 127 690 c 2
EndSplineSet
EndChar

StartChar: greater
Encoding: 62 62 95
GlifName: greater
Width: 1120
Flags: W
LayerCount: 2
Fore
SplineSet
682 802 m 2
 230 975 l 2
 201 986 190 997 190 1039 c 2
 190 1157 l 2
 190 1215 197 1217 236 1202 c 2
 956 908 l 2
 989 895 1000 878 1000 830 c 2
 1000 720 l 2
 1000 660 985 654 944 638 c 2
 100 304 l 2
 60 288 40 285 40 351 c 2
 40 438 l 2
 40 495 48 513 88 528 c 2
 682 748 l 2
 717 761 738 762 738 774 c 0
 738 791 721 787 682 802 c 2
EndSplineSet
EndChar

StartChar: bracketleft
Encoding: 91 91 96
GlifName: bracketleft
Width: 810
Flags: W
HStem: -300 250<372.111 609.787> 1310 250<648.517 929.382>
LayerCount: 2
Fore
SplineSet
361 1560 m 2
 873 1560 l 2
 913 1560 930 1557 930 1513 c 2
 930 1372 l 2
 930 1312 919 1310 861 1310 c 2
 737 1310 l 2
 673 1310 657 1307 645 1252 c 2
 378 22 l 2
 365 -36 361 -50 438 -50 c 2
 547 -50 l 2
 600 -50 610 -51 610 -104 c 2
 610 -244 l 2
 610 -294 603 -300 555 -300 c 2
 -41 -300 l 2
 -102 -300 -109 -297 -98 -244 c 2
 277 1498 l 2
 288 1551 294 1560 361 1560 c 2
EndSplineSet
EndChar

StartChar: backslash
Encoding: 92 92 97
GlifName: backslash
Width: 1040
Flags: W
HStem: 1540 20G<280 480>
VStem: 251 272<1413.18 1557.1>
LayerCount: 2
Fore
SplineSet
523 1476 m 2
 828 -234 l 2
 839 -293 838 -300 765 -300 c 2
 625 -300 l 2
 555 -300 560 -290 550 -232 c 2
 251 1494 l 2
 241 1555 243 1560 317 1560 c 2
 439 1560 l 2
 521 1560 511 1542 523 1476 c 2
EndSplineSet
EndChar

StartChar: bracketright
Encoding: 93 93 98
GlifName: bracketright
Width: 810
Flags: W
HStem: -300 250<-119.382 161.483> 1310 250<200.213 437.889>
LayerCount: 2
Fore
SplineSet
449 -300 m 2
 -63 -300 l 2
 -103 -300 -120 -297 -120 -253 c 2
 -120 -112 l 2
 -120 -52 -109 -50 -51 -50 c 2
 73 -50 l 2
 137 -50 153 -47 165 8 c 2
 432 1238 l 2
 445 1296 449 1310 372 1310 c 2
 263 1310 l 2
 210 1310 200 1311 200 1364 c 2
 200 1504 l 2
 200 1554 207 1560 255 1560 c 2
 851 1560 l 2
 912 1560 919 1557 908 1504 c 2
 533 -238 l 2
 522 -291 516 -300 449 -300 c 2
EndSplineSet
EndChar

StartChar: asciicircum
Encoding: 94 94 100
GlifName: asciicircum
Width: 1090
Flags: W
HStem: 1520 20G<674.5 805>
LayerCount: 2
Fore
SplineSet
676 1279 m 2
 362 1125 l 2
 315 1102 309 1101 268 1131 c 2
 238 1152 l 2
 198 1181 200 1180 238 1211 c 2
 590 1499 l 2
 626 1529 639 1540 710 1540 c 2
 772 1540 l 2
 838 1540 852 1538 880 1502 c 2
 1107 1210 l 2
 1130 1180 1131 1180 1100 1158 c 2
 1058 1128 l 2
 1022 1101 1019 1101 982 1127 c 2
 784 1269 l 2
 737 1303 730 1306 676 1279 c 2
EndSplineSet
EndChar

StartChar: grave
Encoding: 96 96 101
GlifName: grave
Width: 790
Flags: W
VStem: 250 602
LayerCount: 2
Fore
SplineSet
440 1340 m 2
 343 1333 250 1412 250 1510 c 0
 250 1608 359 1724 460 1676 c 2
 823 1505 l 2
 854 1490 853 1475 852 1431 c 0
 850 1380 852 1370 805 1367 c 2
 440 1340 l 2
EndSplineSet
EndChar

StartChar: exclamdown
Encoding: 161 161 103
GlifName: exclamdown
Width: 765
Flags: W
HStem: 600 480<298.055 565.945>
VStem: 192 480<706.055 973.945>
LayerCount: 2
Fore
SplineSet
672 840 m 0
 672 708 564 600 432 600 c 0
 300 600 192 708 192 840 c 0
 192 972 300 1080 432 1080 c 0
 564 1080 672 972 672 840 c 0
-78 -156 m 0
 43 167 200 215 279 478 c 0
 288 508 298 510 338 510 c 2
 384 510 l 2
 432 510 449 508 441 470 c 0
 389 207 501 87 432 -258 c 0
 404 -398 296 -478 156 -478 c 0
 -8 -478 -100 -376 -100 -274 c 0
 -100 -238 -90 -187 -78 -156 c 0
EndSplineSet
EndChar

StartChar: cent
Encoding: 162 162 104
GlifName: cent
Width: 1096
Flags: W
HStem: -20 180<392.185 493.709> 880 180<546.368 609.887>
VStem: 3 385<192.104 442.824> 611 360<640 876.427>
LayerCount: 2
Fore
SplineSet
725 1230 m 2
 825 1230 l 2
 846 1230 853 1224 846 1205 c 2
 363 -146 l 2
 357 -163 352 -170 333 -170 c 2
 239 -170 l 2
 217 -170 209 -163 215 -147 c 2
 698 1216 l 2
 702 1228 710 1230 725 1230 c 2
EndSplineSet
Refer: 40 99 N 1 0 0 1 0 0 2
EndChar

StartChar: sterling
Encoding: 163 163 105
GlifName: sterling
Width: 1415
Flags: W
HStem: -80 406<679 971.254> -40 21G<-61.5 84> 50 364<343 810> 560 230<-3 254.613 700.036 1015.42> 1366 184<799.642 1069.46>
VStem: 1102 184<368.432 470.383>
LayerCount: 2
Fore
SplineSet
-55 15 m 0
 5 259 292 403 319 522 c 0
 328 563 321 560 281 560 c 2
 49 560 l 2
 11 560 -3 549 -3 591 c 2
 -3 747 l 2
 -3 787 17 790 54 790 c 2
 204 790 l 2
 295 790 266 804 246 851 c 0
 213 925 188 1003 210 1100 c 0
 275 1380 584 1550 986 1550 c 0
 1350 1550 1441 1346 1429 1162 c 0
 1419 1002 1300 910 1162 910 c 0
 1028 910 929 992 960 1126 c 0
 981 1218 1062 1248 1073 1294 c 0
 1085 1348 1032 1366 944 1366 c 0
 786 1366 711 1268 677 1120 c 0
 654 1019 673 935 694 857 c 0
 708 805 702 790 782 790 c 2
 958 790 l 2
 1015 790 1017 785 1017 729 c 2
 1017 635 l 2
 1017 566 1005 560 933 560 c 2
 755 560 l 2
 692 560 693 557 664 515 c 0
 586 400 448 350 324 271 c 0
 270 237 238 202 247 193 c 0
 260 180 389 276 472 320 c 0
 577 376 664 414 750 414 c 0
 870 414 870 326 962 326 c 0
 1012 326 1067 351 1102 407 c 0
 1127 448 1114 474 1175 474 c 2
 1267 474 l 2
 1317 474 1299 449 1286 405 c 0
 1208 143 1033 -80 796 -80 c 0
 562 -80 522 50 376 50 c 0
 310 50 190 30 127 -8 c 0
 98 -26 104 -40 64 -40 c 2
 -48 -40 l 2
 -75 -40 -60 -7 -55 15 c 0
EndSplineSet
EndChar

StartChar: currency
Encoding: 164 164 106
GlifName: currency
Width: 1140
Flags: W
HStem: 310 163<347.78 676.704> 1067 162<464.158 793.535>
LayerCount: 2
Fore
SplineSet
8 238 m 1
 -63 331 l 1
 131 489 l 1
 81 573 85 653 112 770 c 256
 139 887 183 967 261 1051 c 1
 139 1209 l 1
 254 1302 l 1
 375 1144 l 1
 459 1196 547 1229 677 1229 c 256
 807 1229 878 1196 939 1145 c 1
 1132 1302 l 1
 1203 1209 l 1
 1009 1051 l 1
 1049 967 1055 887 1028 770 c 0
 1001 654 959 573 880 488 c 1
 1001 331 l 1
 886 238 l 1
 765 395 l 1
 681 344 594 310 465 310 c 256
 335 310 261 344 201 395 c 1
 8 238 l 1
502 473 m 0
 685 473 817 591 858 770 c 256
 899 949 822 1067 640 1067 c 0
 457 1067 323 949 282 770 c 256
 241 591 320 473 502 473 c 0
EndSplineSet
EndChar

StartChar: yen
Encoding: 165 165 107
GlifName: yen
Width: 1570
Flags: W
HStem: 0 270<260.01 408.757 879.277 989.971> 352 230<110 1260> 692 230<172 1320> 1230 270<164.785 265.344 811.183 902.479 993.166 1033.87 1392.01 1543>
VStem: 993 550<1230 1498.29>
LayerCount: 2
Fore
SplineSet
156 582 m 2
 1217 582 l 2
 1255 582 1260 578 1260 554 c 2
 1260 385 l 2
 1260 361 1256 352 1213 352 c 2
 153 352 l 2
 111 352 110 356 110 382 c 2
 110 554 l 2
 110 577 121 582 156 582 c 2
218 922 m 2
 1277 922 l 2
 1315 922 1320 918 1320 894 c 2
 1320 725 l 2
 1320 701 1317 692 1274 692 c 2
 215 692 l 2
 174 692 172 696 172 722 c 2
 172 894 l 2
 172 917 183 922 218 922 c 2
EndSplineSet
Refer: 36 89 N 1 0 0 1 0 0 2
EndChar

StartChar: brokenbar
Encoding: 166 166 108
GlifName: brokenbar
Width: 600
Flags: W
HStem: -500 21G<-120 104.663> 1540 20G<355.31 580>
LayerCount: 2
Fore
SplineSet
74 332 m 1
 294 332 l 1
 100 -500 l 1
 -120 -500 l 1
 74 332 l 1
360 1560 m 1
 580 1560 l 1
 406 818 l 1
 186 818 l 1
 360 1560 l 1
EndSplineSet
EndChar

StartChar: section
Encoding: 167 167 109
GlifName: section
Width: 1188
Flags: W
HStem: -40 152<223.337 577.686> 1388 152<610.869 880.296>
LayerCount: 2
Fore
SplineSet
885 1316 m 0
 897 1368 837 1388 733 1388 c 0
 627 1388 587 1342 570 1268 c 0
 516 1036 1211 1076 1136 750 c 0
 1116 661 1033 581 932 514 c 1
 1007 463 1053 393 1028 284 c 0
 971 36 594 -40 404 -40 c 0
 188 -40 -154 4 -96 256 c 0
 -60 412 85 478 163 478 c 0
 257 478 336 386 314 292 c 0
 297 220 232 210 221 164 c 0
 209 112 313 112 417 112 c 0
 543 112 598 138 620 232 c 0
 674 464 -21 424 54 750 c 0
 78 856 183 913 286 965 c 1
 195 1018 133 1091 162 1216 c 0
 210 1424 556 1540 746 1540 c 0
 1002 1540 1275 1456 1221 1224 c 0
 1190 1088 1047 1032 969 1032 c 0
 895 1032 789 1094 811 1188 c 0
 828 1260 874 1270 885 1316 c 0
484 880 m 1
 475 865 469 849 465 834 c 0
 439 722 555 671 688 622 c 1
 696 637 702 651 705 666 c 0
 731 780 616 830 484 880 c 1
EndSplineSet
EndChar

StartChar: gravecomb
Encoding: 768 768 110
GlifName: gravecomb
Width: 0
Flags: W
AnchorPoint: "Anchor-0" 777 1500 mark 0
LayerCount: 2
Fore
SplineSet
432 2060 m 256
 497 2140 646 2150 714 2066 c 2
 948 1777 l 2
 961 1764 962 1755 949 1741 c 2
 835 1625 l 2
 824 1613 820 1610 805 1619 c 2
 469 1797 l 2
 355 1857 352 1961 432 2060 c 256
EndSplineSet
EndChar

StartChar: acutecomb
Encoding: 769 769 111
GlifName: acutecomb
Width: 0
Flags: W
AnchorPoint: "Anchor-0" 635 1500 mark 0
LayerCount: 2
Fore
SplineSet
1054 2060 m 256
 1134 1961 1120 1851 1017 1797 c 2
 681 1619 l 2
 666 1610 661 1613 650 1625 c 2
 537 1741 l 2
 524 1755 525 1764 538 1777 c 2
 772 2066 l 2
 843 2154 989 2140 1054 2060 c 256
EndSplineSet
EndChar

StartChar: uni0302
Encoding: 770 770 112
GlifName: uni0302
Width: 0
Flags: W
AnchorPoint: "Anchor-0" 705 1500 mark 0
LayerCount: 2
Fore
SplineSet
501 1640 m 2
 428 1710 l 2
 414 1724 417 1727 433 1744 c 2
 680 2002 l 2
 695 2018 708 2019 737 2019 c 2
 922 2019 l 2
 948 2019 957 2016 964 2002 c 2
 1091 1745 l 2
 1097 1734 1093 1723 1081 1710 c 2
 1010 1636 l 2
 993 1619 991 1623 977 1635 c 2
 816 1780 l 2
 801 1793 787 1794 766 1781 c 2
 535 1634 l 2
 517 1623 512 1629 501 1640 c 2
EndSplineSet
EndChar

StartChar: tildecomb
Encoding: 771 771 113
GlifName: tildecomb
Width: 0
Flags: W
HStem: 1630 256<833.738 1035.9> 1748 256<542.14 721.57>
AnchorPoint: "Anchor-0" 702 1500 mark 0
LayerCount: 2
Fore
SplineSet
902 1630 m 0
 818 1630 773 1668 730 1699 c 0
 685 1732 658 1748 618 1748 c 0
 577 1748 548 1727 532 1714 c 0
 521 1705 511 1700 498 1700 c 2
 376 1700 l 2
 353 1700 355 1710 362 1730 c 0
 403 1857 543 2004 667 2004 c 0
 751 2004 784 1967 826 1935 c 0
 868 1903 915 1886 948 1886 c 0
 981 1886 1005 1891 1025 1912 c 0
 1037 1925 1038 1934 1057 1934 c 2
 1185 1934 l 2
 1203 1934 1204 1928 1199 1912 c 0
 1160 1764 1039 1630 902 1630 c 0
EndSplineSet
EndChar

StartChar: uni0304
Encoding: 772 772 114
GlifName: uni0304
Width: 0
Flags: W
HStem: 1630 192<520 1000>
VStem: 520 480<1630 1822>
AnchorPoint: "Anchor-0" 736 1500 mark 0
LayerCount: 2
Fore
SplineSet
520 1662 m 2
 520 1795 l 2
 520 1814 522 1822 540 1822 c 2
 966 1822 l 2
 991 1822 1000 1818 1000 1791 c 2
 1000 1660 l 2
 1000 1639 999 1630 978 1630 c 2
 555 1630 l 2
 529 1630 520 1634 520 1662 c 2
EndSplineSet
EndChar

StartChar: uni0306
Encoding: 774 774 115
GlifName: uni0306
Width: 0
Flags: W
HStem: 1580 260<685.501 893.943>
VStem: 524 156<1852.02 1938> 914 168<1866.37 1938>
AnchorPoint: "Anchor-0" 705 1500 mark 0
LayerCount: 2
Fore
SplineSet
724 1580 m 0
 522 1580 478 1705 524 1919 c 0
 528 1936 534 1938 551 1938 c 2
 665 1938 l 2
 679 1938 681 1935 680 1922 c 0
 678 1882 682 1840 779 1840 c 0
 871 1840 895 1878 914 1909 c 0
 925 1927 926 1938 950 1938 c 2
 1067 1938 l 2
 1088 1938 1088 1934 1082 1914 c 0
 1029 1704 923 1580 724 1580 c 0
EndSplineSet
EndChar

StartChar: uni0307
Encoding: 775 775 116
GlifName: uni0307
Width: 0
Flags: W
HStem: 1269 384<576.886 821.114>
VStem: 507 384<1338.89 1583.11>
AnchorPoint: "Anchor-0" 572 920 mark 0
LayerCount: 2
Fore
SplineSet
699 1269 m 0
 593 1269 507 1355 507 1461 c 0
 507 1567 593 1653 699 1653 c 0
 805 1653 891 1567 891 1461 c 0
 891 1355 805 1269 699 1269 c 0
EndSplineSet
EndChar

StartChar: uni0308
Encoding: 776 776 117
GlifName: uni0308
Width: 0
Flags: W
HStem: 1690 384<391.886 636.114 951.886 1196.11>
VStem: 322 384<1759.89 2004.11> 882 384<1759.89 2004.11>
AnchorPoint: "Anchor-0" 707 1500 mark 0
LayerCount: 2
Fore
SplineSet
1074 1690 m 0
 968 1690 882 1776 882 1882 c 0
 882 1988 968 2074 1074 2074 c 0
 1180 2074 1266 1988 1266 1882 c 0
 1266 1776 1180 1690 1074 1690 c 0
514 1690 m 0
 408 1690 322 1776 322 1882 c 0
 322 1988 408 2074 514 2074 c 0
 620 2074 706 1988 706 1882 c 0
 706 1776 620 1690 514 1690 c 0
EndSplineSet
EndChar

StartChar: uni030A
Encoding: 778 778 118
GlifName: uni030A_
Width: 0
Flags: W
HStem: 1640 164<718.538 855.64> 1987 153<740.222 875.459>
VStem: 547 499
AnchorPoint: "Anchor-0" 706 1500 mark 0
LayerCount: 2
Fore
SplineSet
776 1804 m 0
 826 1804 869 1847 879 1891 c 0
 891 1944 869 1987 819 1987 c 0
 769 1987 728 1944 716 1891 c 0
 706 1847 726 1804 776 1804 c 0
759 1640 m 0
 588 1640 517 1758 547 1889 c 0
 577 2020 693 2140 834 2140 c 0
 1006 2140 1076 2021 1046 1889 c 0
 1016 1758 900 1640 759 1640 c 0
EndSplineSet
EndChar

StartChar: uni030B
Encoding: 779 779 119
GlifName: uni030B_
Width: 0
Flags: W
AnchorPoint: "Anchor-0" 600 1500 mark 0
LayerCount: 2
Fore
SplineSet
1054 1697 m 2
 919 1787 l 2
 903 1798 902 1807 912 1822 c 2
 1081 2154 l 2
 1122 2234 1269 2288 1368 2201 c 256
 1485 2099 1454 2006 1376 1941 c 2
 1084 1698 l 2
 1071 1686 1068 1687 1054 1697 c 2
424 1697 m 2
 289 1787 l 2
 273 1798 272 1807 282 1822 c 2
 451 2154 l 2
 492 2234 652 2296 748 2206 c 256
 857 2105 824 2006 746 1941 c 2
 454 1698 l 2
 441 1686 438 1687 424 1697 c 2
EndSplineSet
EndChar

StartChar: uni030C
Encoding: 780 780 120
GlifName: uni030C_
Width: 0
Flags: W
AnchorPoint: "Anchor-0" 705 1500 mark 0
LayerCount: 2
Fore
SplineSet
601 1657 m 2
 469 1919 l 2
 464 1930 470 1938 484 1949 c 2
 570 2023 l 2
 587 2038 588 2036 602 2024 c 2
 764 1879 l 2
 779 1866 793 1865 814 1878 c 2
 1045 2025 l 2
 1063 2036 1069 2032 1079 2019 c 2
 1137 1949 l 2
 1149 1934 1148 1932 1132 1915 c 2
 885 1657 l 2
 870 1641 857 1640 828 1640 c 2
 643 1640 l 2
 617 1640 608 1643 601 1657 c 2
EndSplineSet
EndChar

StartChar: uni0311
Encoding: 785 785 121
GlifName: uni0311
Width: 0
Flags: W
HStem: 1748 260<650.888 855.161>
VStem: 467 159<1650 1721.63> 860 165<1650 1735.98>
AnchorPoint: "Anchor-0" 705 1500 mark 0
LayerCount: 2
Fore
SplineSet
826 2008 m 0
 1028 2008 1071 1883 1025 1669 c 0
 1021 1652 1015 1650 998 1650 c 2
 874 1650 l 2
 860 1650 859 1653 860 1666 c 0
 862 1706 858 1748 761 1748 c 0
 669 1748 645 1710 626 1679 c 0
 615 1661 613 1650 589 1650 c 2
 482 1650 l 2
 461 1650 461 1654 467 1674 c 0
 520 1884 627 2008 826 2008 c 0
EndSplineSet
EndChar

StartChar: uni0312
Encoding: 786 786 122
GlifName: uni0312
Width: 0
Flags: W
HStem: 1092 349<670.353 799.012> 1538 128<697.221 914>
VStem: 445 426<1181.31 1395.12>
AnchorPoint: "Anchor-0" 569 920 mark 0
LayerCount: 2
Fore
SplineSet
871 1279 m 0
 871 1164 776 1092 667 1092 c 0
 557 1092 445 1158 445 1339 c 0
 445 1548 693 1656 883 1666 c 0
 911 1667 914 1666 914 1638 c 2
 914 1553 l 2
 914 1534 907 1539 890 1538 c 0
 797 1531 657 1499 603 1437 c 0
 577 1407 599 1402 623 1416 c 0
 648 1431 679 1441 720 1441 c 0
 813 1441 871 1380 871 1279 c 0
EndSplineSet
EndChar

StartChar: dotbelowcomb
Encoding: 803 803 123
GlifName: dotbelowcomb
Width: 0
Flags: W
HStem: -553 384<158.886 403.114>
VStem: 89 384<-483.114 -238.886>
AnchorPoint: "Anchor-1" 360 0 mark 0
AnchorPoint: "Anchor-2" 360 0 mark 0
LayerCount: 2
Fore
SplineSet
281 -553 m 0
 175 -553 89 -467 89 -361 c 0
 89 -255 175 -169 281 -169 c 0
 387 -169 473 -255 473 -361 c 0
 473 -467 387 -553 281 -553 c 0
EndSplineSet
EndChar

StartChar: uni0326
Encoding: 806 806 124
GlifName: uni0326
Width: 0
Flags: W
HStem: -758 128<8 224.779> -533 349<122.988 251.647>
VStem: 51 426<-487.121 -273.307>
AnchorPoint: "Anchor-1" 356 0 mark 0
AnchorPoint: "Anchor-2" 356 0 mark 0
LayerCount: 2
Fore
SplineSet
51 -371 m 0
 51 -256 146 -184 255 -184 c 0
 365 -184 477 -250 477 -431 c 0
 477 -640 229 -748 39 -758 c 0
 11 -759 8 -758 8 -730 c 2
 8 -645 l 2
 8 -626 15 -631 32 -630 c 0
 125 -623 265 -591 319 -529 c 0
 345 -499 323 -494 299 -508 c 0
 274 -523 243 -533 202 -533 c 0
 109 -533 51 -472 51 -371 c 0
EndSplineSet
EndChar

StartChar: uni0327
Encoding: 807 807 125
GlifName: uni0327
Width: 0
Flags: W
HStem: -549 153<57.2402 312.627>
VStem: 57 514
AnchorPoint: "Anchor-1" 388 0 mark 0
AnchorPoint: "Anchor-2" 388 0 mark 0
LayerCount: 2
Fore
SplineSet
57 -520 m 2
 57 -423 l 2
 62 -401 75 -397 95 -396 c 0
 177 -390 311 -386 323 -336 c 0
 337 -276 203 -267 115 -259 c 0
 77 -255 78 -248 95 -230 c 2
 309 2 l 2
 317 11 322 12 338 12 c 2
 436 12 l 2
 466 12 473 8 459 -8 c 2
 392 -86 l 2
 370 -109 368 -117 403 -120 c 0
 530 -130 597 -198 571 -310 c 0
 519 -535 242 -545 85 -549 c 0
 64 -550 57 -542 57 -520 c 2
EndSplineSet
EndChar

StartChar: uni0328
Encoding: 808 808 126
GlifName: uni0328
Width: 0
Flags: W
HStem: -422 187<145.5 411.159>
AnchorPoint: "Anchor-2" 382 47 mark 0
AnchorPoint: "Anchor-3" 382 47 mark 0
LayerCount: 2
Fore
SplineSet
227 -422 m 0
 64 -422 -24 -368 -17 -250 c 0
 -7 -78 262 28 386 100 c 0
 411 115 451 88 459 80 c 0
 491 49 509 44 489 26 c 0
 431 -26 304 -89 285 -170 c 0
 273 -221 305 -235 355 -235 c 0
 404 -235 435 -216 460 -194 c 0
 475 -181 483 -179 491 -187 c 2
 543 -237 l 2
 554 -246 552 -250 541 -265 c 0
 484 -338 394 -422 227 -422 c 0
EndSplineSet
EndChar

StartChar: breve
Encoding: 728 728 127
GlifName: breve
Width: 1000
Flags: W
HStem: 1620 260<685.501 893.943>
VStem: 524 156<1892.02 1978> 914 168<1906.37 1978>
AnchorPoint: "Anchor-0" 689 1500 mark 0
LayerCount: 2
Fore
SplineSet
724 1620 m 0
 522 1620 478 1745 524 1959 c 0
 528 1976 534 1978 551 1978 c 2
 665 1978 l 2
 679 1978 681 1975 680 1962 c 0
 678 1922 682 1880 779 1880 c 0
 871 1880 895 1918 914 1949 c 0
 925 1967 926 1978 950 1978 c 2
 1067 1978 l 2
 1088 1978 1088 1974 1082 1954 c 0
 1029 1744 923 1620 724 1620 c 0
EndSplineSet
EndChar

StartChar: dotaccent
Encoding: 729 729 128
GlifName: dotaccent
Width: 1000
Flags: W
HStem: 1269 384<576.886 821.114>
VStem: 507 384<1338.89 1583.11>
AnchorPoint: "Anchor-0" 617 1040 mark 0
LayerCount: 2
Fore
SplineSet
699 1269 m 0
 593 1269 507 1355 507 1461 c 0
 507 1567 593 1653 699 1653 c 0
 805 1653 891 1567 891 1461 c 0
 891 1355 805 1269 699 1269 c 0
EndSplineSet
EndChar

StartChar: ring
Encoding: 730 730 129
GlifName: ring
Width: 1000
Flags: W
HStem: 1640 164<718.538 855.64> 1987 153<740.222 875.459>
VStem: 547 499
AnchorPoint: "Anchor-0" 710 1500 mark 0
LayerCount: 2
Fore
SplineSet
776 1804 m 0
 826 1804 869 1847 879 1891 c 0
 891 1944 869 1987 819 1987 c 0
 769 1987 728 1944 716 1891 c 0
 706 1847 726 1804 776 1804 c 0
759 1640 m 0
 588 1640 517 1758 547 1889 c 0
 577 2020 693 2140 834 2140 c 0
 1006 2140 1076 2021 1046 1889 c 0
 1016 1758 900 1640 759 1640 c 0
EndSplineSet
EndChar

StartChar: ogonek
Encoding: 731 731 130
GlifName: ogonek
Width: 1000
Flags: W
HStem: -422 187<145.5 411.159>
AnchorPoint: "Anchor-2" 421 27 mark 0
AnchorPoint: "Anchor-3" 421 27 mark 0
LayerCount: 2
Fore
SplineSet
227 -422 m 0
 64 -422 -24 -368 -17 -250 c 0
 -7 -78 262 28 386 100 c 0
 411 115 451 88 459 80 c 0
 491 49 509 44 489 26 c 0
 431 -26 304 -89 285 -170 c 0
 273 -221 305 -235 355 -235 c 0
 404 -235 435 -216 460 -194 c 0
 475 -181 483 -179 491 -187 c 2
 543 -237 l 2
 554 -246 552 -250 541 -265 c 0
 484 -338 394 -422 227 -422 c 0
EndSplineSet
EndChar

StartChar: tilde
Encoding: 732 732 131
GlifName: tilde
Width: 1000
Flags: W
HStem: 1630 256<833.738 1035.9> 1748 256<542.14 721.57>
AnchorPoint: "Anchor-0" 676 1500 mark 0
LayerCount: 2
Fore
SplineSet
902 1630 m 0
 818 1630 773 1668 730 1699 c 0
 685 1732 658 1748 618 1748 c 0
 577 1748 548 1727 532 1714 c 0
 521 1705 511 1700 498 1700 c 2
 376 1700 l 2
 353 1700 355 1710 362 1730 c 0
 403 1857 543 2004 667 2004 c 0
 751 2004 784 1967 826 1935 c 0
 868 1903 915 1886 948 1886 c 0
 981 1886 1005 1891 1025 1912 c 0
 1037 1925 1038 1934 1057 1934 c 2
 1185 1934 l 2
 1203 1934 1204 1928 1199 1912 c 0
 1160 1764 1039 1630 902 1630 c 0
EndSplineSet
EndChar

StartChar: hungarumlaut
Encoding: 733 733 132
GlifName: hungarumlaut
Width: 1000
Flags: W
AnchorPoint: "Anchor-0" 674 1500 mark 0
LayerCount: 2
Fore
SplineSet
1054 1697 m 2
 919 1787 l 2
 903 1798 902 1807 912 1822 c 2
 1081 2154 l 2
 1122 2234 1269 2288 1368 2201 c 256
 1485 2099 1454 2006 1376 1941 c 2
 1084 1698 l 2
 1071 1686 1068 1687 1054 1697 c 2
424 1697 m 2
 289 1787 l 2
 273 1798 272 1807 282 1822 c 2
 451 2154 l 2
 492 2234 652 2296 748 2206 c 256
 857 2105 824 2006 746 1941 c 2
 454 1698 l 2
 441 1686 438 1687 424 1697 c 2
EndSplineSet
EndChar

StartChar: dieresis
Encoding: 168 168 133
GlifName: dieresis
Width: 1000
Flags: W
HStem: 1690 384<391.886 636.114 951.886 1196.11>
VStem: 322 384<1759.89 2004.11> 882 384<1759.89 2004.11>
AnchorPoint: "Anchor-0" 741 1500 mark 0
LayerCount: 2
Fore
SplineSet
1074 1690 m 0
 968 1690 882 1776 882 1882 c 0
 882 1988 968 2074 1074 2074 c 0
 1180 2074 1266 1988 1266 1882 c 0
 1266 1776 1180 1690 1074 1690 c 0
514 1690 m 0
 408 1690 322 1776 322 1882 c 0
 322 1988 408 2074 514 2074 c 0
 620 2074 706 1988 706 1882 c 0
 706 1776 620 1690 514 1690 c 0
EndSplineSet
EndChar

StartChar: ordfeminine
Encoding: 170 170 134
GlifName: ordfeminine
Width: 907
Flags: W
HStem: 934 170<645 823.063> 940 137<245.5 453.658> 1474 137<341.5 559.667>
VStem: 75 294<1078.91 1370.43> 571 199<1121 1348>
LayerCount: 2
Fore
SplineSet
571 1348 m 0
 571 1414 558 1474 524 1474 c 0
 448 1474 369 1329 369 1180 c 0
 369 1103 386 1077 422 1077 c 0
 471 1077 571 1187 571 1348 c 0
974 1128 m 0
 910 1007 808 934 676 934 c 0
 614 934 568 959 538 993 c 0
 531 1001 526 1007 521 1011 c 0
 508 1022 500 1018 478 1001 c 0
 432 965 376 940 305 940 c 0
 186 940 75 988 75 1168 c 0
 75 1432 258 1611 425 1611 c 0
 510 1611 561 1582 593 1526 c 0
 603 1509 611 1501 619 1536 c 2
 626 1569 l 2
 629 1583 633 1588 658 1588 c 2
 861 1588 l 2
 892 1588 891 1582 885 1560 c 2
 773 1145 l 2
 771 1138 770 1127 770 1121 c 0
 770 1108 775 1104 787 1104 c 0
 811 1104 838 1130 868 1187 c 0
 882 1215 888 1214 911 1203 c 2
 961 1181 l 2
 990 1167 991 1161 974 1128 c 0
EndSplineSet
EndChar

StartChar: cedilla
Encoding: 184 184 135
GlifName: cedilla
Width: 1000
Flags: W
HStem: -549 153<57.2402 312.627>
VStem: 57 514
AnchorPoint: "Anchor-1" 388 0 mark 0
AnchorPoint: "Anchor-2" 388 0 mark 0
LayerCount: 2
Fore
SplineSet
57 -520 m 2
 57 -423 l 2
 62 -401 75 -397 95 -396 c 0
 177 -390 311 -386 323 -336 c 0
 337 -276 203 -267 115 -259 c 0
 77 -255 78 -248 95 -230 c 2
 309 2 l 2
 317 11 322 12 338 12 c 2
 436 12 l 2
 466 12 473 8 459 -8 c 2
 392 -86 l 2
 370 -109 368 -117 403 -120 c 0
 530 -130 597 -198 571 -310 c 0
 519 -535 242 -545 85 -549 c 0
 64 -550 57 -542 57 -520 c 2
EndSplineSet
EndChar

StartChar: uni00B9
Encoding: 185 185 136
GlifName: uni00B_9
Width: 740
Flags: W
HStem: 912 126<-8 215.781 447.998 652> 1584 127<150 327.45>
VStem: 495 127<1782.92 1859.27>
LayerCount: 2
Fore
SplineSet
-8 951 m 2
 -8 1012 l 2
 -8 1037 -2 1038 24 1038 c 2
 175 1038 l 2
 204 1038 208 1043 214 1070 c 2
 328 1556 l 2
 328 1580 323 1584 300 1584 c 2
 177 1584 l 2
 157 1584 150 1585 150 1607 c 2
 150 1679 l 2
 150 1711 170 1710 198 1711 c 0
 308 1713 427 1728 495 1833 c 0
 507 1851 521 1860 552 1860 c 2
 591 1860 l 2
 617 1860 627 1855 622 1832 c 2
 448 1072 l 2
 441 1041 454 1038 487 1038 c 2
 620 1038 l 2
 640 1038 652 1036 652 1014 c 2
 652 947 l 2
 652 918 650 912 621 912 c 2
 31 912 l 2
 -4 912 -8 915 -8 951 c 2
EndSplineSet
EndChar

StartChar: ordmasculine
Encoding: 186 186 137
GlifName: ordmasculine
Width: 798
Flags: W
HStem: 938 132<300.233 423.067> 1478 132<386.933 509.767>
VStem: 22 270<1071.59 1356.23> 518 270<1191.77 1476.41>
LayerCount: 2
Fore
SplineSet
22 1202 m 0
 22 1430 212 1610 489 1610 c 0
 670 1610 788 1526 788 1346 c 0
 788 1118 598 938 321 938 c 0
 140 938 22 1022 22 1202 c 0
292 1166 m 0
 292 1089 310 1070 345 1070 c 0
 428 1070 518 1221 518 1382 c 0
 518 1459 500 1478 465 1478 c 0
 382 1478 292 1327 292 1166 c 0
EndSplineSet
EndChar

StartChar: paragraph
Encoding: 182 182 138
GlifName: paragraph
Width: 1632
Flags: W
HStem: -300 213<481.74 664.781 878.216 1003 1216.31 1280> 1287 213<1175.42 1303 1512.8 1614>
LayerCount: 2
Fore
SplineSet
1003 -44 m 2
 1303 1258 l 2
 1309 1286 1301 1287 1272 1287 c 2
 1228 1287 l 2
 1190 1287 1184 1281 1175 1242 c 2
 880 -36 l 2
 872 -69 868 -87 905 -87 c 2
 941 -87 l 2
 983 -87 993 -86 1003 -44 c 2
214 989 m 0
 294 1336 614 1500 872 1500 c 2
 1573 1500 l 2
 1601 1500 1614 1496 1614 1466 c 2
 1614 1328 l 2
 1614 1289 1595 1287 1556 1287 c 2
 1546 1287 l 2
 1524 1287 1521 1278 1511 1236 c 2
 1219 -32 l 2
 1211 -66 1209 -87 1227 -87 c 2
 1245 -87 l 2
 1271 -87 1280 -88 1280 -114 c 2
 1280 -259 l 2
 1280 -293 1265 -300 1232 -300 c 2
 519 -300 l 2
 493 -300 481 -299 481 -270 c 2
 481 -146 l 2
 481 -97 496 -87 545 -87 c 2
 613 -87 l 2
 645 -87 656 -86 663 -54 c 2
 777 440 l 2
 785 475 777 479 744 479 c 2
 637 479 l 2
 380 479 134 642 214 989 c 0
EndSplineSet
EndChar

StartChar: onequarter
Encoding: 188 188 140
GlifName: onequarter
Width: 2000
Flags: W
HStem: 4 126<1198.66 1293.05 1527.16 1558.55> 250 126<1269.59 1308.54 1582.13 1631.81> 632 126<200.585 332.003 565.734 651.036> 892 12G<1506.2 1700.9> 1274 126.6<363.2 434.676> 1538 12G<637.6 717.7>
VStem: 602.8 126.6<1491.68 1547> 1527.2 91.2<539.253 585.78>
LayerCount: 2
Fore
SplineSet
1522 1440 m 1
 1650 1440 l 1
 728 -60 l 1
 590 -60 l 1
 1522 1440 l 1
EndSplineSet
Refer: 6 52 N 0.6 0 0 0.6 1070 4 2
Refer: 3 49 N 0.6 0 0 0.6 214 632 2
EndChar

StartChar: onehalf
Encoding: 189 189 141
GlifName: onehalf
Width: 2000
Flags: W
HStem: -28 240.6<1451.4 1618.57> -16 12.6G<1122.9 1233.3> 622 126<200.585 332.003 565.734 651.036> 785.6 110.4<1494.89 1693.2> 1264 126.6<363.2 434.676> 1528 12G<637.6 717.7>
VStem: 602.8 126.6<1481.68 1537> 1656.6 117.6<240.381 316.299>
LayerCount: 2
Fore
SplineSet
1492 1450 m 1
 1620 1450 l 1
 698 -50 l 1
 560 -50 l 1
 1492 1450 l 1
EndSplineSet
Refer: 4 50 N 0.6 0 0 0.6 1152 -16 2
Refer: 3 49 N 0.6 0 0 0.6 214 622 2
EndChar

StartChar: threequarters
Encoding: 190 190 142
GlifName: threequarters
Width: 2000
Flags: W
HStem: -36 126<1198.66 1293.05 1527.16 1558.55> 210 126<1269.59 1308.54 1582.13 1631.81> 602 110.4<297.593 377.221> 852 12G<1506.2 1700.9> 1421.6 104.4<430.311 631>
VStem: 1527.2 91.2<499.253 545.78>
LayerCount: 2
Fore
SplineSet
1432 1400 m 1
 1560 1400 l 1
 638 -100 l 1
 500 -100 l 1
 1432 1400 l 1
EndSplineSet
Refer: 6 52 N 0.6 0 0 0.6 1070 -36 2
Refer: 5 51 N 0.6 0 0 0.6 130 614 2
EndChar

StartChar: questiondown
Encoding: 191 191 143
GlifName: questiondown
Width: 1220
Flags: W
HStem: -500 174<382.126 613.348> 374 194<416.332 662.903> 600 480<553.055 820.945>
VStem: -85 422<-283.408 -29.4337> 447 480<706.055 973.945> 617 428<-318 -54>
LayerCount: 2
Fore
SplineSet
468 546 m 0
 541 564 602 568 633 568 c 0
 754 568 905 504 905 360 c 0
 905 44 337 175 337 -160 c 0
 337 -268 395 -326 493 -326 c 0
 561 -326 617 -310 617 -286 c 0
 617 -246 535 -242 535 -100 c 0
 535 24 681 100 791 100 c 0
 901 100 1045 14 1045 -122 c 0
 1045 -326 797 -500 433 -500 c 0
 91 -500 -85 -360 -85 -140 c 0
 -85 314 664 257 664 339 c 0
 664 362 642 374 595 374 c 0
 573 374 520 370 467 352 c 0
 429 339 425 326 420 379 c 2
 409 485 l 2
 403 539 425 535 468 546 c 0
927 840 m 0
 927 708 819 600 687 600 c 0
 555 600 447 708 447 840 c 0
 447 972 555 1080 687 1080 c 0
 819 1080 927 972 927 840 c 0
EndSplineSet
EndChar

StartChar: degree
Encoding: 176 176 144
GlifName: degree
Width: 639
Flags: W
HStem: 1120 150<406.003 562.024> 1450 150<426.582 581.547>
VStem: 254 481
LayerCount: 2
Fore
SplineSet
403 1359 m 0
 391 1306 420 1270 473 1270 c 0
 527 1270 572 1306 584 1359 c 0
 596 1413 569 1450 515 1450 c 0
 462 1450 415 1413 403 1359 c 0
254 1359 m 0
 285 1495 413 1600 549 1600 c 0
 686 1600 767 1496 735 1359 c 0
 704 1223 575 1120 439 1120 c 0
 303 1120 223 1223 254 1359 c 0
EndSplineSet
EndChar

StartChar: plusminus
Encoding: 177 177 145
GlifName: plusminus
Width: 1059
Flags: W
HStem: -15 212<26 797> 666 212<183 437 699 953>
LayerCount: 2
Fore
SplineSet
366 361 m 1
 437 666 l 1
 134 666 l 1
 183 878 l 1
 486 878 l 1
 555 1180 l 1
 768 1180 l 1
 699 878 l 1
 1002 878 l 1
 953 666 l 1
 650 666 l 1
 579 361 l 1
 366 361 l 1
-22 -15 m 1
 26 197 l 1
 845 197 l 1
 797 -15 l 1
 -22 -15 l 1
EndSplineSet
EndChar

StartChar: acute
Encoding: 180 180 146
GlifName: acute
Width: 790
Flags: W
HStem: 1373 163<269.522 348>
VStem: 261 664
LayerCount: 2
Fore
SplineSet
735 1340 m 2
 351 1373 l 2
 289 1378 265 1377 261 1432 c 0
 255 1509 284 1512 348 1536 c 2
 715 1676 l 2
 831 1720 925 1628 925 1510 c 0
 925 1392 840 1331 735 1340 c 2
EndSplineSet
EndChar

StartChar: uni00B2
Encoding: 178 178 147
GlifName: uni00B_2
Width: 859
Flags: W
HStem: 902 241<421.992 627.531> 1722 104<320.4 593.522>
VStem: 131 174<1516 1680.67> 606 254<1543.11 1705.89> 690 117<1168.02 1246>
LayerCount: 2
Fore
SplineSet
807 1220 m 0
 770 1029 633 902 472 902 c 0
 332 902 266 974 178 974 c 0
 144 974 122 958 108 934 c 0
 98 918 102 914 75 914 c 2
 -10 914 l 2
 -33 914 -37 916 -37 939 c 0
 -36 1076 111 1267 288 1363 c 0
 425 1437 606 1527 606 1634 c 0
 606 1693 569 1722 480 1722 c 0
 403 1722 305 1692 305 1666 c 0
 305 1644 402 1651 402 1548 c 0
 402 1468 339 1424 271 1424 c 0
 200 1424 131 1469 131 1563 c 0
 131 1727 346 1826 558 1826 c 0
 739 1826 860 1784 860 1628 c 0
 860 1460 613 1389 432 1310 c 0
 331 1266 249 1215 211 1179 c 0
 180 1149 139 1099 152 1095 c 0
 172 1089 178 1127 227 1162 c 0
 259 1184 318 1195 358 1195 c 0
 460 1195 478 1143 569 1143 c 0
 633 1143 682 1173 690 1220 c 0
 694 1245 690 1246 719 1246 c 2
 783 1246 l 2
 809 1246 812 1245 807 1220 c 0
EndSplineSet
EndChar

StartChar: uni00B3
Encoding: 179 179 148
GlifName: uni00B_3
Width: 776
Flags: W
HStem: 902 110<202.373 418.286> 1316 121<324 453.231> 1722 104<341.553 536.554>
VStem: 10 190<1023.53 1164> 154 185<1574 1718.5> 477 235<1067.57 1292.39> 549 241<1523.88 1705.12>
LayerCount: 2
Fore
SplineSet
10 1123 m 0
 10 1205 64 1268 153 1268 c 0
 233 1268 275 1224 275 1168 c 0
 275 1089 200 1090 200 1062 c 0
 200 1030 258 1012 305 1012 c 0
 394 1012 477 1071 477 1196 c 0
 477 1278 436 1307 356 1316 c 0
 333 1319 324 1312 324 1338 c 2
 324 1417 l 2
 324 1440 330 1435 350 1437 c 0
 460 1445 549 1547 549 1635 c 0
 549 1700 490 1722 413 1722 c 0
 378 1722 339 1712 339 1692 c 0
 339 1664 419 1670 419 1585 c 0
 419 1535 371 1485 297 1485 c 0
 226 1485 154 1530 154 1618 c 0
 154 1734 303 1826 491 1826 c 0
 690 1826 790 1755 790 1641 c 0
 790 1507 661 1435 528 1393 c 0
 502 1385 484 1387 484 1379 c 0
 484 1369 495 1373 528 1365 c 0
 671 1327 712 1287 712 1190 c 0
 712 1010 492 902 311 902 c 0
 117 902 10 1007 10 1123 c 0
EndSplineSet
EndChar

StartChar: mu
Encoding: 181 181 149
GlifName: mu
Width: 1545
Flags: W
HStem: -520 434<379.361 613.167> -50 234<687.5 949.533> -38 252<290 487> 846 234<220.667 481.5>
VStem: 47 130<727.927 838.363> 311 446<-357.894 -151.253> 987 133<185.967 301.899>
LayerCount: 2
Fore
SplineSet
472 847 m 1
 172 -82 l 2
 92 -330 346 -383 364 -375 c 0
 373 -371 311 -346 311 -252 c 0
 311 -157 399 -86 534 -86 c 0
 684 -86 757 -158 757 -280 c 0
 757 -401 650 -520 390 -520 c 0
 108 -520 -127 -351 -40 -82 c 2
 260 847 l 1
 472 847 l 1
EndSplineSet
Refer: 58 117 N 1 0 0 1 0 0 2
EndChar

StartChar: guillemotleft
Encoding: 171 171 150
GlifName: guillemotleft
Width: 1390
Flags: W
LayerCount: 2
Fore
SplineSet
1041 775 m 1
 1298 380 l 1
 1192 270 l 1
 623 750 l 1
 635 800 l 1
 1426 1280 l 1
 1480 1170 l 1
 1041 775 l 1
481 775 m 1
 738 380 l 1
 632 270 l 1
 63 750 l 1
 75 800 l 1
 866 1280 l 1
 920 1170 l 1
 481 775 l 1
EndSplineSet
EndChar

StartChar: guillemotright
Encoding: 187 187 151
GlifName: guillemotright
Width: 1390
Flags: W
LayerCount: 2
Fore
SplineSet
427 775 m 1
 170 1170 l 1
 276 1280 l 1
 845 800 l 1
 833 750 l 1
 42 270 l 1
 -12 380 l 1
 427 775 l 1
987 775 m 1
 730 1170 l 1
 836 1280 l 1
 1405 800 l 1
 1393 750 l 1
 602 270 l 1
 548 380 l 1
 987 775 l 1
EndSplineSet
EndChar

StartChar: logicalnot
Encoding: 172 172 152
GlifName: logicalnot
Width: 1051
Flags: W
HStem: 666 214<183 753>
LayerCount: 2
Fore
SplineSet
693 406 m 1
 753 666 l 1
 134 666 l 1
 183 880 l 1
 995 880 l 1
 886 406 l 1
 693 406 l 1
EndSplineSet
EndChar

StartChar: uni00AD
Encoding: 173 173 153
GlifName: uni00A_D_
Width: 920
Flags: W
HStem: 660 230<175.469 822.531>
LayerCount: 2
Fore
SplineSet
219 890 m 2
 831 890 l 2
 862 890 863 883 856 851 c 2
 822 701 l 2
 814 666 811 660 776 660 c 2
 174 660 l 2
 138 660 134 665 142 700 c 2
 176 849 l 2
 183 881 187 890 219 890 c 2
EndSplineSet
EndChar

StartChar: copyright
Encoding: 169 169 154
GlifName: copyright
Width: 1739
Flags: W
HStem: -20 93<509.994 989.717> 254 160.8<726.8 946.615> 1048.4 153.6<847.505 1065.16> 1172 12G<1211.9 1321.7> 1427 93<816.287 1296.05>
VStem: 528.2 305.4<428.744 711.43>
LayerCount: 2
Fore
SplineSet
747 73 m 0
 1130 73 1486 349 1579 750 c 0
 1672 1151 1440 1427 1059 1427 c 0
 676 1427 320 1151 227 750 c 0
 134 347 366 73 747 73 c 0
1081 1520 m 0
 1525 1520 1776 1192 1674 750 c 0
 1571 306 1167 -20 725 -20 c 0
 281 -20 31 308 133 750 c 0
 235 1193 639 1520 1081 1520 c 0
EndSplineSet
Refer: 14 67 N 0.6 0 0 0.6 512 278 2
EndChar

StartChar: registered
Encoding: 174 174 155
GlifName: registered
Width: 1739
Flags: W
HStem: -20 93<509.994 989.717> 320.4 187.92<1023.88 1205.05> 342 145.8<536.8 616.525 871.599 919.93> 1006.2 145.8<672.376 721.818 975.304 1035.21> 1427 93<816.287 1296.05>
VStem: 946.12 241.92<409.5 596.722> 1035.76 251.64<865.768 1004.88>
LayerCount: 2
Fore
SplineSet
747 73 m 0
 1130 73 1486 349 1579 750 c 0
 1672 1151 1440 1427 1059 1427 c 0
 676 1427 320 1151 227 750 c 0
 134 347 366 73 747 73 c 0
1081 1520 m 0
 1525 1520 1776 1192 1674 750 c 0
 1571 306 1167 -20 725 -20 c 0
 281 -20 31 308 133 750 c 0
 235 1193 639 1520 1081 1520 c 0
EndSplineSet
Refer: 29 82 N 0.54 0 0 0.54 580 342 2
EndChar

StartChar: multiply
Encoding: 215 215 157
GlifName: multiply
Width: 1090
Flags: W
LayerCount: 2
Fore
SplineSet
625 860 m 2
 821 1020 l 2
 845 1039 858 1047 874 1026 c 2
 960 913 l 2
 976 892 979 884 953 863 c 2
 753 700 l 2
 724 677 726 673 744 649 c 2
 872 483 l 2
 883 469 878 462 860 447 c 2
 712 327 l 2
 688 308 682 310 667 330 c 2
 548 485 l 2
 530 509 523 513 494 490 c 2
 294 327 l 2
 275 311 265 309 252 326 c 2
 154 453 l 2
 142 469 147 471 166 487 c 2
 376 658 l 2
 398 676 396 684 382 702 c 2
 262 857 l 2
 244 880 244 888 272 911 c 2
 413 1026 l 2
 438 1047 444 1040 460 1019 c 2
 582 860 l 2
 596 842 603 842 625 860 c 2
EndSplineSet
EndChar

StartChar: divide
Encoding: 247 247 158
GlifName: divide
Width: 1119
Flags: W
HStem: 230 360<403.454 632.512> 674 212<140 1060> 980 360<575.454 804.512>
VStem: 336 361<295.674 524.326> 508 361<1045.67 1274.33>
LayerCount: 2
Fore
SplineSet
175 886 m 2
 1034 886 l 2
 1054 886 1060 880 1060 858 c 2
 1060 692 l 2
 1060 677 1052 674 1036 674 c 2
 172 674 l 2
 146 674 140 679 140 704 c 2
 140 846 l 2
 140 879 143 886 175 886 c 2
336 410 m 0
 336 509 420 590 519 590 c 0
 618 590 697 509 697 410 c 0
 697 311 618 230 519 230 c 0
 420 230 336 311 336 410 c 0
508 1160 m 0
 508 1259 592 1340 691 1340 c 0
 790 1340 869 1259 869 1160 c 0
 869 1061 790 980 691 980 c 0
 592 980 508 1061 508 1160 c 0
EndSplineSet
EndChar

StartChar: uni0394
Encoding: 916 916 159
GlifName: uni0394
Width: 1900
Flags: W
HStem: 0 270<469.994 1060.61> 1510 20G<1011 1357.5>
LayerCount: 2
Fore
SplineSet
999 270 m 2
 1057 270 1065 280 1060 319 c 2
 970 1023 l 2
 965 1069 944 1050 924 1019 c 2
 470 313 l 2
 450 281 449 270 485 270 c 2
 999 270 l 2
1560 0 m 2
 35 0 l 2
 -7 0 -10 15 4 37 c 2
 964 1497 l 2
 984 1529 988 1530 1034 1530 c 2
 1334 1530 l 2
 1381 1530 1384 1519 1390 1487 c 2
 1627 61 l 2
 1633 23 1617 0 1560 0 c 2
EndSplineSet
EndChar

StartChar: uni03A9
Encoding: 937 937 160
GlifName: uni03A_9
Width: 1719
Flags: W
HStem: 0 163<241.638 452 1053 1282.64> 1313 207<855.817 1166.59>
LayerCount: 2
Fore
SplineSet
1383 400 m 1
 1596 400 l 1
 1504 0 l 1
 805 0 l 1
 922 506 l 1
 1106 576 1184 687 1233 900 c 0
 1294 1163 1215 1313 1017 1313 c 0
 819 1313 673 1163 612 900 c 0
 563 687 586 567 738 497 c 1
 623 0 l 1
 -65 0 l 1
 27 400 l 1
 230 400 l 1
 208 306 213 163 316 163 c 2
 452 163 l 1
 492 337 l 1
 319 424 120 626 183 900 c 0
 281 1326 618 1520 1065 1520 c 0
 1512 1520 1760 1326 1662 900 c 0
 1599 626 1308 430 1095 345 c 1
 1053 163 l 1
 1189 163 l 2
 1292 163 1361 306 1383 400 c 1
EndSplineSet
EndChar

StartChar: pi
Encoding: 960 960 162
GlifName: pi
Width: 1561
Flags: W
HStem: -20 195<920 1238> 540 380<263.25 358.906 670.484 858.562 1239.81 1436.3>
LayerCount: 2
Fore
SplineSet
1483 900 m 2
 1434 563 l 2
 1430 542 1431 540 1409 540 c 2
 1281 540 l 2
 1246 540 1248 537 1241 503 c 2
 1165 247 l 2
 1156 207 1174 175 1222 175 c 0
 1254 175 1272 184 1311 232 c 0
 1326 250 1326 255 1346 245 c 2
 1390 224 l 2
 1409 215 1411 214 1397 192 c 0
 1319 64 1193 -20 1012 -20 c 0
 828 -20 753 99 792 246 c 2
 863 515 l 2
 868 537 870 540 847 540 c 2
 703 540 l 2
 679 540 679 539 674 515 c 2
 649 386 l 2
 582 70 281 -20 144 -20 c 0
 12 -20 -54 45 -54 176 c 0
 -54 513 304 148 353 459 c 2
 362 516 l 2
 367 537 369 540 347 540 c 2
 291 540 l 2
 269 540 271 536 267 515 c 2
 247 419 l 2
 241 393 242 390 215 390 c 2
 151 390 l 2
 126 390 128 391 133 416 c 2
 211 888 l 2
 218 921 219 920 252 920 c 2
 1466 920 l 2
 1487 920 1487 921 1483 900 c 2
EndSplineSet
EndChar

StartChar: uni1E9E
Encoding: 7838 7838 163
GlifName: uni1E_9E_
Width: 1523
Flags: W
HStem: -30 217<910.983 1021.06> 0 210<-68.7148 10.576 410.589 435.729> 1327 203<803.591 1169.77>
LayerCount: 2
Fore
SplineSet
-115.271484375 0 m 1
 -68.71484375 210 l 1
 10.5760285264 210 l 1
 161.263671875 882 l 2
 251.271484375 1288 524.921875 1530 1060.921875 1530 c 0
 1477.921875 1530 1575.57324219 1348 1621.94140625 1282 c 1
 1172.82561562 809.633834463 l 1
 1455.93070266 734.963280464 1521.19930639 561.449683364 1480.97265625 380 c 0
 1423.33203125 120 1172.078125 -30 930.078125 -30 c 0
 646.078125 -30 496.01171875 96 539.2421875 291 c 0
 568.505859375 423 691.454101562 522 811.454101562 522 c 0
 922.454101562 522 999.500976562 432 972.454101562 310 c 0
 962.641476663 265.736829851 937.75160726 224.187272211 904.591718197 189.917029416 c 1
 915.461004749 188.004993593 926.988540346 187 939.185546875 187 c 0
 997.185546875 187 1033.72851562 212 1064.32226562 350 c 0
 1097.1328125 498 1037.15625 665 794.674804688 735 c 1
 819.7265625 848 l 1
 1211.40429688 1248 l 1
 1162.70996094 1299 1103.91796875 1327 985.91796875 1327 c 0
 757.91796875 1327 628.4375 1185 556.608398438 861 c 2
 410.588652596 210 l 1
 482.28515625 210 l 1
 435.728515625 0 l 1
 -115.271484375 0 l 1
EndSplineSet
EndChar

StartChar: uni2010
Encoding: 8208 8208 176
GlifName: uni2010
Width: 920
Flags: W
HStem: 660 230<160 840>
LayerCount: 2
Fore
SplineSet
188 890 m 2
 814 890 l 2
 837 890 840 886 840 862 c 2
 840 693 l 2
 840 669 838 660 812 660 c 2
 186 660 l 2
 161 660 160 664 160 690 c 2
 160 862 l 2
 160 885 167 890 188 890 c 2
EndSplineSet
EndChar

StartChar: uni2011
Encoding: 8209 8209 177
GlifName: uni2011
Width: 920
Flags: W
HStem: 660 230<160 840>
LayerCount: 2
Fore
SplineSet
188 890 m 2
 814 890 l 2
 837 890 840 886 840 862 c 2
 840 693 l 2
 840 669 838 660 812 660 c 2
 186 660 l 2
 161 660 160 664 160 690 c 2
 160 862 l 2
 160 885 167 890 188 890 c 2
EndSplineSet
EndChar

StartChar: figuredash
Encoding: 8210 8210 178
GlifName: figuredash
Width: 1224
Flags: W
HStem: 660 230<160 1144>
LayerCount: 2
Fore
SplineSet
200 890 m 2
 1106 890 l 2
 1139 890 1144 886 1144 862 c 2
 1144 693 l 2
 1144 669 1142 660 1104 660 c 2
 197 660 l 2
 161 660 160 664 160 690 c 2
 160 862 l 2
 160 885 170 890 200 890 c 2
EndSplineSet
EndChar

StartChar: endash
Encoding: 8211 8211 179
GlifName: endash
Width: 1432
Flags: W
HStem: 660 230<160 1352>
LayerCount: 2
Fore
SplineSet
209 890 m 2
 1307 890 l 2
 1347 890 1352 886 1352 862 c 2
 1352 693 l 2
 1352 669 1349 660 1303 660 c 2
 206 660 l 2
 162 660 160 664 160 690 c 2
 160 862 l 2
 160 885 172 890 209 890 c 2
EndSplineSet
EndChar

StartChar: emdash
Encoding: 8212 8212 180
GlifName: emdash
Width: 2124
Flags: W
HStem: 660 230<160 2044>
LayerCount: 2
Fore
SplineSet
238 890 m 2
 1972 890 l 2
 2036 890 2044 886 2044 862 c 2
 2044 693 l 2
 2044 669 2039 660 1967 660 c 2
 232 660 l 2
 163 660 160 664 160 690 c 2
 160 862 l 2
 160 885 180 890 238 890 c 2
EndSplineSet
EndChar

StartChar: uni2015
Encoding: 8213 8213 181
GlifName: uni2015
Width: 2331
Flags: W
HStem: 660 230<160 2251>
LayerCount: 2
Fore
SplineSet
246 890 m 2
 2171 890 l 2
 2242 890 2251 886 2251 862 c 2
 2251 693 l 2
 2251 669 2245 660 2165 660 c 2
 240 660 l 2
 163 660 160 664 160 690 c 2
 160 862 l 2
 160 885 181 890 246 890 c 2
EndSplineSet
EndChar

StartChar: dagger
Encoding: 8224 8224 182
GlifName: dagger
Width: 1186
Flags: W
HStem: -500 21G<262 415.5> 776 400<232.341 415.207 939.901 1118.11> 1500 20G<749.5 858.5>
VStem: 248 190<-500 -309.559>
LayerCount: 2
Fore
SplineSet
598 1088 m 0
 616 1195 546 1179 558 1311 c 0
 559 1325 561 1336 564 1348 c 0
 587 1446 695 1520 804 1520 c 0
 913 1520 987 1446 964 1348 c 0
 961 1336 959 1325 954 1311 c 0
 906 1182 845 1195 813 1094 c 0
 808 1078 806 1072 822 1075 c 0
 900 1088 936 1157 1058 1174 c 0
 1072 1176 1084 1176 1096 1176 c 0
 1194 1176 1246 1085 1221 976 c 0
 1196 867 1101 776 1003 776 c 0
 991 776 981 776 967 778 c 0
 859 794 849 857 786 875 c 0
 771 879 759 877 757 863 c 0
 730 711 758 611 795 528 c 0
 802 511 805 498 792 479 c 0
 679 315 549 -6 438 -478 c 0
 433 -499 426 -500 405 -500 c 2
 273 -500 l 2
 251 -500 243 -497 248 -476 c 0
 353 -14 372 303 337 469 c 0
 331 497 337 509 359 533 c 0
 432 615 503 711 545 858 c 0
 550 876 545 880 524 875 c 0
 453 857 415 794 299 778 c 0
 285 776 273 776 261 776 c 0
 153 776 110 867 135 976 c 0
 160 1085 246 1176 354 1176 c 0
 366 1176 376 1176 390 1174 c 0
 506 1157 509 1085 585 1074 c 0
 595 1073 596 1077 598 1088 c 0
EndSplineSet
EndChar

StartChar: daggerdbl
Encoding: 8225 8225 183
GlifName: daggerdbl
Width: 1186
Flags: W
HStem: -176 400<18.8546 194.373 721.206 902.349> -176 299<604 783> 776 400<232.341 414.373 941.779 1118.11> 776 300<826 1003> 1500 20G<749.5 858.5>
LayerCount: 2
Fore
SplineSet
596 1085 m 0
 610 1182 548 1190 560 1321 c 0
 561 1335 564 1346 567 1358 c 0
 585 1436 695 1520 804 1520 c 0
 913 1520 987 1446 969 1368 c 0
 966 1356 963 1345 958 1331 c 0
 911 1205 846 1185 814 1096 c 0
 806 1076 805 1072 826 1076 c 0
 901 1091 939 1157 1058 1174 c 0
 1072 1176 1084 1176 1096 1176 c 0
 1194 1176 1246 1085 1221 976 c 0
 1196 867 1101 776 1003 776 c 0
 991 776 981 776 967 778 c 0
 862 794 851 854 791 873 c 0
 768 880 761 882 756 852 c 0
 730 710 758 615 793 535 c 0
 803 511 806 499 784 474 c 0
 709 391 633 294 592 143 c 0
 586 123 584 119 604 123 c 0
 681 137 718 205 838 222 c 0
 852 224 864 224 876 224 c 0
 974 224 1027 133 1002 24 c 0
 975 -95 881 -176 783 -176 c 0
 771 -176 761 -176 747 -174 c 0
 641 -158 630 -97 570 -78 c 0
 554 -73 542 -67 539 -91 c 0
 528 -183 589 -193 577 -321 c 0
 576 -335 573 -346 570 -358 c 0
 552 -436 452 -520 333 -520 c 0
 214 -520 152 -436 170 -358 c 0
 173 -346 176 -335 181 -321 c 0
 228 -194 294 -183 325 -93 c 0
 333 -70 324 -72 304 -77 c 0
 233 -94 195 -158 79 -174 c 0
 65 -176 53 -176 41 -176 c 0
 -57 -176 -111 -95 -84 24 c 0
 -59 133 36 224 134 224 c 0
 146 224 156 224 170 222 c 0
 282 205 287 137 358 123 c 0
 375 120 377 122 380 141 c 0
 407 286 380 382 346 463 c 0
 332 495 335 505 363 537 c 0
 433 617 504 711 544 853 c 0
 552 884 544 880 518 873 c 0
 450 853 411 794 299 778 c 0
 285 776 273 776 261 776 c 0
 153 776 110 867 135 976 c 0
 160 1085 246 1176 354 1176 c 0
 366 1176 376 1176 390 1174 c 0
 502 1157 507 1089 578 1075 c 0
 590 1073 594 1070 596 1085 c 0
EndSplineSet
EndChar

StartChar: perthousand
Encoding: 8240 8240 185
GlifName: perthousand
Width: 2810
Flags: W
HStem: -30 180<1377.25 1422.99 2227.25 2272.99> 0 21G<377 488> 690 180<1482.09 1701 2332.09 2551> 1350 180<608.088 827> 1480 20G<1510.5 1638>
LayerCount: 2
Fore
SplineSet
1903 420 m 0
 1966 706 2107 870 2403 870 c 0
 2699 870 2766 706 2703 420 c 0
 2640 134 2459 -30 2203 -30 c 0
 1907 -30 1840 134 1903 420 c 0
2273 420 m 0
 2219 176 2215 150 2243 150 c 0
 2271 150 2279 176 2333 420 c 0
 2387 664 2391 690 2363 690 c 0
 2335 690 2327 664 2273 420 c 0
179 1080 m 0
 242 1366 383 1530 679 1530 c 0
 975 1530 1042 1366 979 1080 c 0
 916 794 736 630 480 630 c 0
 184 630 116 794 179 1080 c 0
549 1080 m 0
 495 836 492 810 520 810 c 0
 548 810 555 836 609 1080 c 0
 663 1324 667 1350 639 1350 c 0
 611 1350 603 1324 549 1080 c 0
1534 1500 m 2
 1606 1500 l 2
 1670 1500 1678 1490 1647 1450 c 2
 559 24 l 2
 539 -2 509 0 467 0 c 2
 417 0 l 2
 337 0 332 18 363 58 c 2
 1440 1462 l 2
 1461 1490 1487 1500 1534 1500 c 2
1053 420 m 0
 1116 706 1257 870 1553 870 c 0
 1849 870 1916 706 1853 420 c 0
 1790 134 1609 -30 1353 -30 c 0
 1057 -30 990 134 1053 420 c 0
1423 420 m 0
 1369 176 1365 150 1393 150 c 0
 1421 150 1429 176 1483 420 c 0
 1537 664 1541 690 1513 690 c 0
 1485 690 1477 664 1423 420 c 0
EndSplineSet
EndChar

StartChar: uni2031
Encoding: 8241 8241 186
GlifName: uni2031
Width: 3660
Flags: W
HStem: -30 180<1377.25 1422.99 2227.25 2272.99 3077.25 3122.99> 0 21G<377 488> 690 180<1482.09 1701 2332.09 2551 3182.09 3401> 1350 180<608.088 827> 1480 20G<1510.5 1638>
LayerCount: 2
Fore
SplineSet
2753 420 m 0
 2816 706 2957 870 3253 870 c 0
 3549 870 3616 706 3553 420 c 0
 3490 134 3309 -30 3053 -30 c 0
 2757 -30 2690 134 2753 420 c 0
3123 420 m 0
 3069 176 3065 150 3093 150 c 0
 3121 150 3129 176 3183 420 c 0
 3237 664 3241 690 3213 690 c 0
 3185 690 3177 664 3123 420 c 0
1903 420 m 0
 1966 706 2107 870 2403 870 c 0
 2699 870 2766 706 2703 420 c 0
 2640 134 2459 -30 2203 -30 c 0
 1907 -30 1840 134 1903 420 c 0
2273 420 m 0
 2219 176 2215 150 2243 150 c 0
 2271 150 2279 176 2333 420 c 0
 2387 664 2391 690 2363 690 c 0
 2335 690 2327 664 2273 420 c 0
179 1080 m 0
 242 1366 383 1530 679 1530 c 0
 975 1530 1042 1366 979 1080 c 0
 916 794 736 630 480 630 c 0
 184 630 116 794 179 1080 c 0
549 1080 m 0
 495 836 492 810 520 810 c 0
 548 810 555 836 609 1080 c 0
 663 1324 667 1350 639 1350 c 0
 611 1350 603 1324 549 1080 c 0
1534 1500 m 2
 1606 1500 l 2
 1670 1500 1678 1490 1647 1450 c 2
 559 24 l 2
 539 -2 509 0 467 0 c 2
 417 0 l 2
 337 0 332 18 363 58 c 2
 1440 1462 l 2
 1461 1490 1487 1500 1534 1500 c 2
1053 420 m 0
 1116 706 1257 870 1553 870 c 0
 1849 870 1916 706 1853 420 c 0
 1790 134 1609 -30 1353 -30 c 0
 1057 -30 990 134 1053 420 c 0
1423 420 m 0
 1369 176 1365 150 1393 150 c 0
 1421 150 1429 176 1483 420 c 0
 1537 664 1541 690 1513 690 c 0
 1485 690 1477 664 1423 420 c 0
EndSplineSet
EndChar

StartChar: guilsinglleft
Encoding: 8249 8249 187
GlifName: guilsinglleft
Width: 830
Flags: W
LayerCount: 2
Fore
SplineSet
481 775 m 1
 738 380 l 1
 632 270 l 1
 63 750 l 1
 75 800 l 1
 866 1280 l 1
 920 1170 l 1
 481 775 l 1
EndSplineSet
EndChar

StartChar: guilsinglright
Encoding: 8250 8250 188
GlifName: guilsinglright
Width: 830
Flags: W
LayerCount: 2
Fore
SplineSet
427 775 m 1
 170 1170 l 1
 276 1280 l 1
 845 800 l 1
 833 750 l 1
 42 270 l 1
 -12 380 l 1
 427 775 l 1
EndSplineSet
EndChar

StartChar: uni203E
Encoding: 8254 8254 189
GlifName: uni203E_
Width: 719
Flags: W
HStem: 1689 230<260 1308>
LayerCount: 2
Fore
SplineSet
303 1919 m 2
 1268 1919 l 2
 1303 1919 1308 1915 1308 1891 c 2
 1308 1722 l 2
 1308 1698 1305 1689 1265 1689 c 2
 300 1689 l 2
 261 1689 260 1693 260 1719 c 2
 260 1891 l 2
 260 1914 271 1919 303 1919 c 2
EndSplineSet
EndChar

StartChar: uni2074
Encoding: 8308 8308 191
GlifName: uni2074
Width: 860
Flags: W
HStem: 919 126<222 393.281 626.25 720> 1165 126<264.995 401.953 682.822 810> 1481 20G<646.5 705.5>
VStem: 575 235<1697.99 1819> 629 91<1437.19 1501>
LayerCount: 2
Fore
SplineSet
720 1017 m 2
 720 941 l 2
 720 921 715 919 695 919 c 2
 256 919 l 2
 228 919 222 920 222 948 c 2
 222 1018 l 2
 222 1040 226 1045 248 1045 c 2
 356 1045 l 2
 382 1045 383 1051 390 1076 c 2
 405 1133 l 2
 413 1163 396 1165 364 1165 c 2
 89 1165 l 2
 63 1165 63 1169 55 1185 c 2
 36 1220 l 2
 29 1233 33 1238 40 1251 c 0
 134 1439 513 1547 575 1785 c 0
 582 1810 582 1819 616 1819 c 2
 778 1819 l 2
 810 1819 815 1816 810 1788 c 0
 772 1556 383 1465 265 1334 c 0
 249 1316 233 1291 280 1291 c 2
 415 1291 l 2
 436 1291 436 1299 444 1317 c 2
 453 1345 l 2
 463 1368 462 1372 481 1382 c 0
 521 1403 604 1431 629 1483 c 0
 634 1495 637 1501 656 1501 c 2
 696 1501 l 2
 715 1501 724 1500 720 1482 c 2
 683 1326 l 2
 679 1307 688 1291 710 1291 c 2
 788 1291 l 2
 807 1291 810 1286 810 1268 c 2
 810 1199 l 2
 810 1171 810 1165 782 1165 c 2
 671 1165 l 2
 646 1165 645 1161 639 1136 c 2
 623 1076 l 2
 616 1051 627 1045 655 1045 c 2
 694 1045 l 2
 717 1045 720 1041 720 1017 c 2
EndSplineSet
EndChar

StartChar: Euro
Encoding: 8364 8364 192
GlifName: E_uro
Width: 1792
Flags: W
HStem: -20 218<718.742 1110.88> 430 230<20 900> 830 230<100 980> 1304 216<962.77 1312.56>
VStem: 170 430<335.928 849.217> 1298 211<346.882 480> 1324 358<1024 1262.58>
LayerCount: 2
Fore
SplineSet
1160 1304 m 0
 812 1304 600 964 600 600 c 0
 600 316 682 198 860 198 c 0
 1161 198 1291 325 1298 464 c 0
 1299 476 1304 480 1318 480 c 2
 1488 480 l 2
 1502 480 1509 479 1509 466 c 0
 1504 266 1271 -20 840 -20 c 0
 334 -20 170 244 170 600 c 0
 170 1046 594 1520 1100 1520 c 0
 1474 1520 1682 1306 1682 1102 c 0
 1682 946 1572 870 1454 870 c 0
 1320 870 1240 952 1240 1086 c 0
 1240 1208 1324 1207 1324 1243 c 0
 1324 1277 1268 1304 1160 1304 c 0
EndSplineSet
Refer: 94 61 N 1 0 0 1 -70 -30 2
EndChar

StartChar: partialdiff
Encoding: 8706 8706 193
GlifName: partialdiff
Width: 1330
Flags: W
HStem: -20 230<450.475 691.761> 722 238<547.483 774.797> 1366 154<673.935 851.075>
LayerCount: 2
Fore
SplineSet
429 470 m 0
 388 292 442 210 560 210 c 0
 688 210 780 302 816 460 c 0
 853 620 785 722 679 722 c 0
 571 722 472 658 429 470 c 0
667 1312 m 0
 661 1286 701 1248 684 1176 c 0
 658 1062 551 990 417 990 c 0
 278 990 221 1086 252 1222 c 0
 290 1386 509 1520 813 1520 c 0
 1185 1520 1392 1220 1281 740 c 0
 1149 170 829 -20 507 -20 c 0
 205 -20 -50 130 35 500 c 0
 107 810 358 960 580 960 c 0
 710 960 813 914 867 842 c 0
 882 822 883 806 893 811 c 0
 901 815 899 829 905 864 c 0
 962 1197 885 1366 767 1366 c 0
 699 1366 673 1338 667 1312 c 0
EndSplineSet
EndChar

StartChar: emptyset
Encoding: 8709 8709 194
GlifName: emptyset
Width: 1140
Flags: W
HStem: 260 223<407.115 721.512> 1057 222<413.574 747.057>
VStem: 62 230<591.078 926.39> 848 230<607.88 932.059>
LayerCount: 2
Fore
SplineSet
18 341 m 1
 989 1312 l 1
 1132 1179 l 1
 161 208 l 1
 18 341 l 1
292 770 m 0
 292 622 388 483 571 483 c 0
 754 483 848 622 848 770 c 0
 848 918 754 1057 571 1057 c 0
 388 1057 292 918 292 770 c 0
62 770 m 0
 62 1020 239 1279 571 1279 c 0
 903 1279 1078 1020 1078 770 c 0
 1078 520 903 260 571 260 c 0
 239 260 62 520 62 770 c 0
EndSplineSet
EndChar

StartChar: product
Encoding: 8719 8719 195
GlifName: product
Width: 2020
Flags: W
HStem: 0 270<-40.516 202.411 672.656 846.284 993.477 1211.96 1682.4 1874.82> 1230 270<208.488 403.791 874.003 1416 1884.07 2124.86>
LayerCount: 2
Fore
SplineSet
874 1188 m 2
 676 329 l 2
 666 285 663 270 707 270 c 2
 779 270 l 2
 819 270 853 267 853 228 c 2
 853 65 l 2
 839 6 812 0 758 0 c 2
 23 0 l 2
 -35 0 -42 6 -42 67 c 2
 -42 206 l 2
 -42 251 -26 270 19 270 c 2
 127 270 l 2
 176 270 193 271 204 320 c 2
 403 1184 l 2
 412 1225 403 1230 360 1230 c 2
 269 1230 l 2
 217 1230 208 1235 208 1290 c 2
 208 1444 l 2
 208 1493 226 1500 271 1500 c 2
 2066 1500 l 2
 2104 1500 2125 1493 2125 1451 c 2
 2125 1278 l 2
 2125 1239 2106 1230 2064 1230 c 2
 1935 1230 l 2
 1897 1230 1891 1218 1882 1179 c 2
 1684 320 l 2
 1675 282 1673 270 1711 270 c 2
 1821 270 l 2
 1866 270 1879 260 1879 213 c 2
 1879 81 l 2
 1879 8 1851 0 1780 0 c 2
 1066 0 l 2
 1007 0 992 7 992 70 c 2
 992 225 l 2
 992 263 1015 270 1051 270 c 2
 1140 270 l 2
 1187 270 1202 271 1213 318 c 2
 1416 1196 l 2
 1423 1228 1412 1230 1379 1230 c 2
 927 1230 l 2
 891 1230 883 1225 874 1188 c 2
EndSplineSet
EndChar

StartChar: summation
Encoding: 8721 8721 196
GlifName: summation
Width: 1449
Flags: W
HStem: 0 213<385 959.315> 1287 213<767 1178.16>
LayerCount: 2
Fore
SplineSet
316 1500 m 1
 1520 1500 l 1
 1403 990 l 1
 1189 990 l 1
 1238 1204 1232 1287 998 1287 c 2
 767 1287 l 1
 994 813 l 1
 385 213 l 1
 729 213 l 2
 1002 213 1048 296 1107 550 c 1
 1320 550 l 1
 1193 0 l 1
 -120 0 l 1
 611 730 l 1
 290 1387 l 1
 316 1500 l 1
EndSplineSet
EndChar

StartChar: minus
Encoding: 8722 8722 197
GlifName: minus
Width: 1224
Flags: W
HStem: 660 230<160 1144>
LayerCount: 2
Fore
SplineSet
200 890 m 2
 1106 890 l 2
 1139 890 1144 886 1144 862 c 2
 1144 693 l 2
 1144 669 1142 660 1104 660 c 2
 197 660 l 2
 161 660 160 664 160 690 c 2
 160 862 l 2
 160 885 170 890 200 890 c 2
EndSplineSet
EndChar

StartChar: uni2219
Encoding: 8729 8729 199
GlifName: uni2219
Width: 610
Flags: W
HStem: 630 480<231.055 498.945>
VStem: 125 480<736.055 1003.95>
LayerCount: 2
Fore
SplineSet
125 870 m 0
 125 1002 233 1110 365 1110 c 0
 497 1110 605 1002 605 870 c 0
 605 738 497 630 365 630 c 0
 233 630 125 738 125 870 c 0
EndSplineSet
EndChar

StartChar: radical
Encoding: 8730 8730 200
GlifName: radical
Width: 1180
Flags: W
HStem: -20 21G<278.863 581.344> 1290 210<1184 1338>
LayerCount: 2
Fore
SplineSet
1184 1290 m 1
 572 -20 l 1
 284 -20 l 1
 181 381 l 1
 56 323 l 1
 6 500 l 1
 461 730 l 1
 552 330 l 1
 1095 1500 l 1
 1386 1500 l 1
 1338 1290 l 1
 1184 1290 l 1
EndSplineSet
EndChar

StartChar: infinity
Encoding: 8734 8734 201
GlifName: infinity
Width: 1913
Flags: W
HStem: 351 212<358.575 658.935 1255.67 1553.54> 997 212<365.539 656.835 1256.21 1555.36>
VStem: 50 241<633.522 920.768> 1622 241<633.575 928.501>
LayerCount: 2
Fore
SplineSet
1622 780 m 0
 1622 928 1547 997 1414 997 c 0
 1287 997 1196 945 1101 825 c 0
 1074 791 1062 784 1090 748 c 0
 1187 623 1282 563 1414 563 c 0
 1547 563 1622 642 1622 780 c 0
1863 780 m 0
 1863 490 1676 351 1434 351 c 0
 1279 351 1111 458 996 594 c 0
 956 641 960 646 920 598 c 0
 804 460 636 351 479 351 c 0
 237 351 50 500 50 780 c 0
 50 1070 237 1209 479 1209 c 0
 641 1209 813 1094 931 949 c 0
 956 918 954 914 980 946 c 0
 1098 1093 1271 1209 1434 1209 c 0
 1676 1209 1863 1070 1863 780 c 0
816 820 m 0
 718 942 618 997 489 997 c 0
 366 997 291 908 291 780 c 0
 291 642 366 563 489 563 c 0
 619 563 721 621 819 744 c 0
 848 780 845 784 816 820 c 0
EndSplineSet
EndChar

StartChar: integral
Encoding: 8747 8747 202
GlifName: integral
Width: 920
Flags: W
HStem: -519 174<-25.1385 115.778> 1426 174<724.222 865.138>
VStem: 210 420<-237.836 1318.84>
LayerCount: 2
Fore
SplineSet
210 1144 m 2
 210 1366 404 1600 804 1600 c 0
 1126 1600 1270 1462 1270 1308 c 0
 1270 1148 1160 1086 1036 1086 c 0
 892 1086 796 1162 796 1272 c 0
 796 1366 868 1388 868 1410 c 0
 868 1424 840 1426 820 1426 c 0
 740 1426 630 1354 630 1100 c 2
 630 -63 l 2
 630 -285 436 -519 36 -519 c 0
 -286 -519 -430 -381 -430 -227 c 0
 -430 -67 -320 -5 -196 -5 c 0
 -52 -5 44 -81 44 -191 c 0
 44 -285 -28 -307 -28 -329 c 0
 -28 -343 0 -345 20 -345 c 0
 100 -345 210 -273 210 -19 c 2
 210 1144 l 2
EndSplineSet
EndChar

StartChar: approxequal
Encoding: 8776 8776 203
GlifName: approxequal
Width: 1200
Flags: W
HStem: 174 223<643.853 826.399> 401 223<231.888 432.146> 674 223<758.861 941.399> 901 223<346.504 557.474>
VStem: 840 227<412.678 591.766> 955 227<912.678 1091.77>
LayerCount: 2
Fore
SplineSet
832 674 m 0
 691 674 617 767 575 835 c 0
 544 885 490 901 455 901 c 0
 370 901 341 867 329 817 c 0
 326 806 325 792 325 778 c 2
 325 778 326 771 325 767 c 0
 319 727 277 692 237 692 c 2
 154 692 l 2
 124 692 101 713 99 743 c 0
 90 905 207 1066 378 1111 c 0
 410 1119 443 1124 476 1124 c 0
 625 1124 698 1028 739 964 c 0
 774 909 824 897 854 897 c 0
 918 897 940 920 951 970 c 0
 954 984 956 1000 955 1018 c 0
 955 1021 955 1027 956 1031 c 0
 962 1071 1003 1106 1043 1106 c 2
 1126 1106 l 2
 1155 1106 1182 1084 1182 1052 c 0
 1184 882 1060 718 897 681 c 0
 876 676 854 674 832 674 c 0
718 174 m 0
 577 174 492 267 450 335 c 0
 419 385 375 401 340 401 c 0
 255 401 227 367 215 317 c 0
 212 306 211 292 211 278 c 2
 211 278 211 271 210 267 c 0
 204 227 163 192 123 192 c 2
 40 192 l 2
 10 192 -14 213 -16 243 c 0
 -25 405 92 566 263 611 c 0
 295 619 328 624 361 624 c 0
 510 624 583 528 624 464 c 0
 659 409 709 397 739 397 c 0
 803 397 825 420 836 470 c 0
 839 484 841 500 840 518 c 0
 840 521 840 527 841 531 c 0
 847 571 888 606 928 606 c 2
 1011 606 l 2
 1040 606 1067 584 1067 552 c 0
 1069 382 945 218 782 181 c 0
 761 176 740 174 718 174 c 0
EndSplineSet
EndChar

StartChar: notequal
Encoding: 8800 8800 204
GlifName: notequal
Width: 1119
Flags: W
LayerCount: 2
Fore
SplineSet
156 397 m 2
 942 1260 l 2
 971 1292 978 1294 992 1281 c 2
 1092 1190 l 2
 1106 1177 1109 1170 1076 1134 c 2
 289 271 l 2
 258 237 254 237 239 251 c 2
 137 343 l 2
 123 355 130 368 156 397 c 2
147 690 m 2
 957 690 l 2
 987 690 990 686 990 662 c 2
 990 493 l 2
 990 469 988 460 954 460 c 2
 144 460 l 2
 112 460 110 464 110 490 c 2
 110 662 l 2
 110 685 120 690 147 690 c 2
227 1090 m 2
 1037 1090 l 2
 1067 1090 1070 1086 1070 1062 c 2
 1070 893 l 2
 1070 869 1068 860 1034 860 c 2
 224 860 l 2
 192 860 190 864 190 890 c 2
 190 1062 l 2
 190 1085 200 1090 227 1090 c 2
EndSplineSet
EndChar

StartChar: lessequal
Encoding: 8804 8804 205
GlifName: lessequal
Width: 1119
Flags: W
HStem: 0 230<5 886>
LayerCount: 2
Fore
SplineSet
42 230 m 2
 852 230 l 2
 882 230 886 226 886 202 c 2
 886 33 l 2
 886 9 884 0 850 0 c 2
 39 0 l 2
 7 0 5 4 5 30 c 2
 5 202 l 2
 5 225 15 230 42 230 c 2
468 748 m 2
 920 575 l 2
 949 564 960 553 960 511 c 2
 960 393 l 2
 960 335 953 333 914 348 c 2
 194 642 l 2
 161 655 150 672 150 720 c 2
 150 830 l 2
 150 890 165 896 206 912 c 2
 1050 1246 l 2
 1090 1262 1110 1265 1110 1199 c 2
 1110 1112 l 2
 1110 1055 1102 1037 1062 1022 c 2
 468 802 l 2
 433 789 412 788 412 776 c 0
 412 759 429 763 468 748 c 2
EndSplineSet
EndChar

StartChar: greaterequal
Encoding: 8805 8805 206
GlifName: greaterequal
Width: 1119
Flags: W
HStem: 0 230<5 886>
LayerCount: 2
Fore
SplineSet
42 230 m 2
 852 230 l 2
 882 230 886 226 886 202 c 2
 886 33 l 2
 886 9 884 0 850 0 c 2
 39 0 l 2
 7 0 5 4 5 30 c 2
 5 202 l 2
 5 225 15 230 42 230 c 2
712 802 m 2
 260 975 l 2
 231 986 220 997 220 1039 c 2
 220 1157 l 2
 220 1215 227 1217 266 1202 c 2
 986 908 l 2
 1019 895 1030 878 1030 830 c 2
 1030 720 l 2
 1030 660 1015 654 974 638 c 2
 130 304 l 2
 90 288 70 285 70 351 c 2
 70 438 l 2
 70 495 78 513 118 528 c 2
 712 748 l 2
 747 761 768 762 768 774 c 0
 768 791 751 787 712 802 c 2
EndSplineSet
EndChar

StartChar: lozenge
Encoding: 9674 9674 207
GlifName: lozenge
Width: 1200
Flags: W
LayerCount: 2
Fore
SplineSet
561 430 m 1
 454 692 l 1
 706 972 l 1
 792 732 l 1
 561 430 l 1
479 30 m 1
 1024 712 l 1
 793 1392 l 1
 224 712 l 1
 479 30 l 1
EndSplineSet
EndChar

StartChar: uniF8E8
Encoding: 63720 63720 208
GlifName: uniF_8E_8
Width: 1125
Flags: W
HStem: 668 56<446.387 745.099> 890 87<368 448.625 604.578 660 814.502 957.297> 1088 90<647.25 723.837> 1289 87<439 497.375 652.5 786.907> 1536 56<619.406 918.152>
VStem: 717 152<922.023 1040.7> 726 157<974.574 1084.58> 789 155<1187.37 1288.35>
LayerCount: 2
Fore
SplineSet
589 724 m 0
 819 724 1032 889 1088 1130 c 0
 1144 1371 1005 1536 776 1536 c 0
 546 1536 333 1371 277 1130 c 0
 221 888 360 724 589 724 c 0
789 1592 m 0
 1055 1592 1206 1395 1145 1130 c 0
 1083 864 840 668 575 668 c 0
 309 668 159 865 220 1130 c 0
 281 1396 524 1592 789 1592 c 0
964 940 m 0
 926 895 866 880 821 880 c 0
 760 880 717 904 717 953 c 0
 717 985 726 1009 726 1035 c 0
 726 1051 713 1088 659 1088 c 2
 635 1088 l 2
 621 1088 619 1085 616 1073 c 2
 599 995 l 2
 596 982 595 977 612 977 c 2
 644 977 l 2
 657 977 660 977 660 964 c 2
 660 908 l 2
 660 892 658 890 642 890 c 2
 383 890 l 2
 370 890 368 893 368 905 c 2
 368 963 l 2
 368 976 370 977 383 977 c 2
 426 977 l 2
 442 977 440 981 443 994 c 2
 503 1271 l 2
 506 1286 505 1289 487 1289 c 2
 456 1289 l 2
 441 1289 439 1290 439 1304 c 2
 439 1363 l 2
 439 1375 442 1376 455 1376 c 2
 750 1376 l 2
 867 1376 944 1350 944 1266 c 0
 944 1205 898 1168 833 1147 c 0
 813 1141 803 1140 803 1135 c 0
 803 1130 813 1129 833 1122 c 0
 864 1111 883 1092 883 1049 c 0
 883 1019 869 1008 869 994 c 0
 869 987 875 982 882 982 c 0
 891 982 900 984 916 1000 c 0
 924 1009 924 1010 933 1000 c 2
 967 965 l 2
 977 954 973 951 964 940 c 0
658 1178 m 2
 704 1178 l 2
 753 1178 789 1211 789 1250 c 0
 789 1273 767 1289 737 1289 c 2
 681 1289 l 2
 664 1289 661 1287 658 1273 c 2
 642 1196 l 2
 639 1181 639 1178 658 1178 c 2
EndSplineSet
EndChar

StartChar: uniF8E9
Encoding: 63721 63721 209
GlifName: uniF_8E_9
Width: 1125
Flags: W
HStem: 668 56<456.387 755.099> 840 106<587.303 786.97> 1039 20G<852.5 936> 1167 227<880.281 975.5> 1318 90<643.709 846.81> 1536 56<629.406 928.152>
VStem: 382 184<964.565 1234.04> 872 99<1167 1260.44>
LayerCount: 2
Fore
SplineSet
599 724 m 0
 829 724 1042 889 1098 1130 c 0
 1154 1371 1015 1536 786 1536 c 0
 556 1536 343 1371 287 1130 c 0
 231 888 370 724 599 724 c 0
799 1592 m 0
 1065 1592 1216 1395 1155 1130 c 0
 1093 864 850 668 585 668 c 0
 319 668 169 865 230 1130 c 0
 291 1396 534 1592 799 1592 c 0
946 1033 m 0
 910 937 801 840 634 840 c 0
 488 840 382 911 382 1077 c 0
 382 1258 521 1408 728 1408 c 0
 785 1408 825 1393 853 1370 c 0
 866 1359 867 1349 880 1362 c 2
 898 1380 l 2
 907 1388 908 1394 926 1394 c 2
 994 1394 l 2
 1010 1394 1010 1392 1007 1379 c 2
 971 1185 l 2
 969 1172 967 1167 951 1167 c 2
 887 1167 l 2
 872 1167 871 1168 872 1181 c 0
 879 1271 819 1318 748 1318 c 0
 639 1318 566 1207 566 1081 c 0
 566 979 613 946 673 946 c 0
 735 946 795 981 832 1038 c 0
 840 1050 842 1059 863 1059 c 2
 921 1059 l 2
 951 1059 954 1055 946 1033 c 0
EndSplineSet
EndChar

StartChar: uniFB00
Encoding: 64256 64256 210
GlifName: uniF_B_00
Width: 1270
Flags: W
HStem: 830 210<65.2021 133.452 569.487 703.856 1194.38 1300.26> 1360 180<595.53 682.314> 1420 180<1218.25 1451>
LayerCount: 2
Fore
SplineSet
704 1050 m 0
 704.70703125 1052.12109375 705 1054 705 1056 c 0
 705 1062 693.511509805 1066.62489281 678 1078 c 0
 663 1089 634 1124 634 1190 c 0
 634 1282 684 1316 684 1340 c 0
 684 1352 666 1360 642 1360 c 0
 560 1360 597 1216 573 1098 c 0
 562.7265625 1047.48828125 545 1040 616 1040 c 2
 664 1040 l 2
 694 1040 701 1041 704 1050 c 0
682 830 m 2
 580 830 l 2
 527 830 520 834 511 788 c 2
 315 -224 l 2
 300 -300 297 -300 206 -300 c 2
 -2 -300 l 2
 -99 -300 -76 -279 -61 -204 c 2
 124 748 l 2
 135 804 155 830 119 830 c 2
 107 830 l 2
 54 830 65 847 65 896 c 2
 65 996 l 2
 65 1043 69 1040 115 1040 c 2
 132 1040 l 2
 182 1040 182 1042 190 1084 c 0
 274 1446 444 1540 644 1540 c 0
 744 1540 826.478004233 1503.25236173 872 1462 c 0
 902.28278989 1434.55751683 924.278055207 1438.28006849 957 1468 c 0
 1066 1567 1164 1600 1320 1600 c 0
 1582 1600 1686 1472 1686 1298 c 0
 1686 1152 1578 1074 1450 1074 c 0
 1354 1074 1260 1136 1260 1260 c 0
 1260 1352 1316 1376 1316 1400 c 0
 1316 1412 1298 1420 1274 1420 c 0
 1174 1420 1218 1236 1196 1100 c 0
 1187.04317816 1044.63055588 1198 1040 1236 1040 c 2
 1252 1040 l 2
 1299 1040 1301 1025 1301 976 c 2
 1301 898 l 2
 1301 848 1297 830 1243 830 c 2
 1216 830 l 2
 1131 830 1136 821 1123 752 c 2
 961 -132 l 2
 948 -197 948 -200 870 -200 c 2
 668 -200 l 2
 599 -200 558 -202 569 -144 c 2
 742 744 l 2
 756 816 773 830 682 830 c 2
EndSplineSet
LCarets2: 1 0
Ligature2: "'liga' Standard Ligatures lookup 0 subtable" f f
EndChar

StartChar: uniFB01
Encoding: 64257 64257 211
GlifName: uniF_B_01
Width: 1135
Flags: W
HStem: -50 234<699.449 968.339> 830 210<67.5904 137.464 575.066 683.674> 1420 180<610.534 852.449>
VStem: 545.449 408<94 378.781>
LayerCount: 2
Fore
SplineSet
-57.55078125 -176 m 2
 126.44921875 740 l 2
 137.44921875 796 157.44921875 830 109.44921875 830 c 2
 104.44921875 830 l 2
 67.44921875 830 67.44921875 835 67.44921875 884 c 2
 67.44921875 986 l 2
 67.44921875 1035 73.44921875 1040 121.44921875 1040 c 2
 137.44921875 1040 l 2
 201.44921875 1040 190.44921875 1061 207.44921875 1144 c 0
 281.44921875 1508 451.44921875 1600 721.44921875 1600 c 0
 983.44921875 1600 1127.44921875 1482 1127.44921875 1328 c 0
 1127.44921875 1182 989.44921875 1114 871.44921875 1114 c 0
 755.44921875 1114 651.44921875 1156 651.44921875 1280 c 0
 651.44921875 1372 697.44921875 1376 697.44921875 1400 c 0
 697.44921875 1412 689.44921875 1420 675.44921875 1420 c 0
 555.44921875 1420 617.44921875 1254 577.44921875 1100 c 1
 563.44921875 1030 587.44921875 1040 667.44921875 1040 c 2
 1095.44921875 1040 l 2
 1165.44921875 1040 1163.80761719 1039.90820312 1149.44921875 984 c 2
 961.44921875 252 l 2
 958.44921875 240 953.44921875 212 953.44921875 202 c 0
 953.44921875 191 955.44921875 184 962.44921875 184 c 0
 978.44921875 184 988.44921875 210 1008.44921875 271 c 0
 1021.44921875 310 1026.44921875 315 1053.44921875 310 c 2
 1126.44921875 297 l 2
 1159.44921875 291 1148.44921875 255 1134.44921875 212 c 0
 1068.44921875 13 945.44921875 -50 781.44921875 -50 c 0
 617.44921875 -50 545.44921875 34 545.44921875 154 c 0
 545.44921875 192 558.44921875 249 565.44921875 280 c 2
 669.44921875 736 l 2
 685.44921875 804 712.44921875 830 619.44921875 830 c 2
 605.44921875 830 l 2
 512.44921875 830 520.44921875 815 505.44921875 740 c 2
 333.44921875 -220 l 2
 317.44921875 -301 311.44921875 -300 213.44921875 -300 c 2
 13.44921875 -300 l 2
 -108.55078125 -300 -76.55078125 -269 -57.55078125 -176 c 2
EndSplineSet
LCarets2: 1 0
Ligature2: "'liga' Standard Ligatures lookup 0 subtable" f i
EndChar

StartChar: uniFB02
Encoding: 64258 64258 212
GlifName: uniF_B_02
Width: 1133
Flags: W
HStem: -50 234<698 966.216> 830 210<67.3828 136.001 573.632 676.987> 1420 180<609.241 790>
VStem: 544 408<94 376.25>
LayerCount: 2
Fore
SplineSet
1255 1520 m 2
 960 252 l 2
 957 240 952 212 952 202 c 0
 952 191 953 184 960 184 c 0
 976 184 986 210 1006 271 c 0
 1019 310 1024 315 1051 310 c 2
 1124 297 l 2
 1157 291 1146 255 1132 212 c 0
 1066 13 943 -50 780 -50 c 0
 616 -50 544 34 544 154 c 0
 544 192 557 249 564 280 c 2
 747 1093 l 2
 756 1133 747.946289062 1134.44921875 717 1150 c 0
 697.815124462 1159.64056796 651 1211 651 1270 c 0
 651 1372 697 1376 697 1400 c 0
 697 1412 691 1420 667 1420 c 0
 567 1420 608 1254 577 1100 c 0
 570.575069326 1068.08260246 564 1040 597 1040 c 2
 627 1040 l 2
 676 1040 677 1041 677 992 c 2
 677 878 l 2
 677 827 673 830 623 830 c 2
 583 830 l 2
 529 830 523 832 514 786 c 2
 339 -192 l 2
 321 -283 329 -300 217 -300 c 2
 1 -300 l 2
 -85 -300 -83 -300 -69 -228 c 2
 136 788 l 2
 138.717773438 801.469726562 147 830 120 830 c 2
 113 830 l 2
 72 830 67 830 67 896 c 2
 67 980 l 2
 67 1033 72 1040 117 1040 c 2
 141 1040 l 2
 197 1040 189 1056 198 1100 c 2
 207 1144 l 2
 281 1508 441 1600 741 1600 c 0
 839 1600 913 1581 987 1543 c 0
 1068.41894531 1501.19042969 1047 1483 1136 1529 c 2
 1205 1565 l 2
 1258 1592 1269.40250429 1581.90635744 1255 1520 c 2
EndSplineSet
LCarets2: 1 0
Ligature2: "'liga' Standard Ligatures lookup 0 subtable" f l
EndChar

StartChar: uniFB03
Encoding: 64259 64259 213
GlifName: uniF_B_03
Width: 1752
Flags: W
HStem: -50 234<1317 1585.89> 830 210<65.0245 131.823 565.58 671.322 1189.34 1299.27> 1360 180<592.254 682.898> 1420 180<1226.05 1449>
VStem: 1163 408<94 381.188>
LayerCount: 2
Fore
SplineSet
577 1126 m 0
 561.263986582 1063.88415756 547 1040 602 1040 c 2
 666 1040 l 2
 699 1040 704 1046 704 1051 c 2
 704 1052 l 2
 704 1062 691.099838049 1068.13547755 683 1074 c 0
 663.728515625 1087.953125 634 1120 634 1190 c 0
 634 1282 684 1316 684 1340 c 0
 684 1352 666 1360 642 1360 c 0
 556 1360 596 1201 577 1126 c 0
1744 1328 m 0
 1744 1182 1616 1114 1488 1114 c 0
 1372 1114 1268 1156 1268 1280 c 0
 1268 1372 1314 1376 1314 1400 c 0
 1314 1412 1306 1420 1282 1420 c 0
 1177 1420 1231 1244 1194 1100 c 0
 1180.28553532 1046.6247861 1174 1040 1242 1040 c 2
 1690 1040 l 2
 1774 1040 1782.13354561 1046.96587578 1764 976 c 2
 1579 252 l 2
 1576 240 1571 212 1571 202 c 0
 1571 191 1573 184 1580 184 c 0
 1596 184 1606 210 1626 271 c 0
 1639 310 1644 315 1671 310 c 2
 1744 297 l 2
 1777 291 1766 255 1752 212 c 0
 1686 13 1563 -50 1399 -50 c 0
 1235 -50 1163 34 1163 154 c 0
 1163 192 1176 249 1183 280 c 2
 1285 732 l 2
 1301 805 1329 830 1230 830 c 2
 1206 830 l 2
 1140 830 1139 827 1128 772 c 2
 961 -130 l 2
 948 -195 950 -200 871 -200 c 2
 673 -200 l 2
 535 -200 561 -179 583 -70 c 2
 740 728 l 2
 758 816 777 830 666 830 c 2
 628 830 l 2
 510 830 517 816 498 720 c 2
 321 -194 l 2
 301 -296 299 -300 176 -300 c 2
 24 -300 l 2
 -103 -300 -75 -276 -56 -178 c 2
 129 772 l 2
 139 824 137 830 102 830 c 2
 98 830 l 2
 68 830 65 836 65 878 c 2
 65 984 l 2
 65 1036 61 1040 115 1040 c 2
 122 1040 l 2
 176 1040 181 1038 190 1084 c 0
 274 1446 418 1540 658 1540 c 0
 790 1540 840 1517 892 1496 c 0
 955.378861833 1470.40469041 969.655367264 1479.42248274 1012 1509 c 0
 1107.89443037 1575.98178697 1229 1600 1338 1600 c 0
 1560 1600 1744 1512 1744 1328 c 0
EndSplineSet
LCarets2: 2 0 0
Ligature2: "'liga' Standard Ligatures lookup 0 subtable" f f i
EndChar

StartChar: uniFB04
Encoding: 64260 64260 214
GlifName: uniF_B_04
Width: 1750
Flags: W
HStem: -50 234<1318 1586.22> 830 210<65.2871 131.871 561.476 703.422 1193.02 1295.75> 1360 180<588.804 682.373> 1420 180<1227.17 1404>
VStem: 1164 408<94 382.594>
LayerCount: 2
Fore
SplineSet
673 1082 m 0
 656 1096 634 1129 634 1190 c 0
 634 1282 684 1316 684 1340 c 0
 684 1352 658 1360 634 1360 c 0
 553 1360 597 1198 573 1120 c 0
 552.540415581 1053.50635064 538 1040 630 1040 c 2
 657 1040 l 2
 688 1040 705 1043 705 1052 c 0
 705 1061.05566406 695.59765625 1063.38964844 673 1082 c 0
604 830 m 2
 510 830 517 817 502 740 c 2
 318 -206 l 2
 301 -296 300 -300 192 -300 c 2
 32 -300 l 2
 -90 -300 -78 -293 -59 -194 c 2
 129 772 l 2
 139 823 138 830 114 830 c 2
 105 830 l 2
 63 830 65 844 65 900 c 2
 65 976 l 2
 65 1025 55 1040 107 1040 c 2
 132 1040 l 2
 182 1040 182 1042 190 1084 c 0
 274 1446 420 1540 640 1540 c 0
 728 1540 809.626056437 1525.92714081 880 1502 c 0
 930 1485 969.75515738 1488.5011157 1041 1530 c 0
 1138.48144531 1586.78125 1230 1600 1360 1600 c 0
 1448 1600 1525 1584 1588 1553 c 0
 1679.71367493 1507.87104884 1685.10642611 1491.07277519 1762 1532 c 2
 1824 1565 l 2
 1878 1593 1883.47152796 1564.89100747 1862 1472 c 2
 1580 252 l 2
 1577 240 1572 212 1572 202 c 0
 1572 191 1573 184 1580 184 c 0
 1596 184 1606 210 1626 271 c 0
 1639 310 1644 315 1671 310 c 2
 1744 297 l 2
 1777 291 1766 255 1752 212 c 0
 1686 13 1563 -50 1400 -50 c 0
 1236 -50 1164 34 1164 154 c 0
 1164 192 1177 249 1184 280 c 2
 1364 1078 l 2
 1378 1140 1357.47614833 1141.89594154 1333 1156 c 0
 1298.29882812 1175.99609375 1270 1209 1270 1270 c 0
 1270 1372 1316 1376 1316 1400 c 0
 1316 1412 1298 1420 1274 1420 c 0
 1194 1420 1227 1266 1196 1100 c 0
 1184.76746718 1039.85159847 1193 1040 1225 1040 c 2
 1227 1040 l 2
 1285 1040 1296 1050 1296 988 c 2
 1296 888 l 2
 1296 824 1288 830 1226 830 c 2
 1198 830 l 2
 1136 830 1140 822 1130 772 c 2
 966 -98 l 2
 950 -179 961 -200 858 -200 c 2
 664 -200 l 2
 542 -200 558 -188 578 -90 c 2
 741 720 l 2
 758 804 786 830 676 830 c 2
 604 830 l 2
EndSplineSet
LCarets2: 2 0 0
Ligature2: "'liga' Standard Ligatures lookup 0 subtable" f f l
EndChar

StartChar: uniFF10
Encoding: 65296 65296 215
GlifName: uniF_F_10
Width: 1100
Flags: W
HStem: -20 210<416.198 519.478> 1310 210<647.249 941.621>
LayerCount: 2
Fore
SplineSet
76 750 m 0
 201 1316 411 1520 757 1520 c 0
 1123 1520 1221 1316 1096 750 c 0
 971 184 742 -20 416 -20 c 0
 70 -20 -49 184 76 750 c 0
496 750 m 0
 389 266 394 190 462 190 c 0
 540 190 569 266 676 750 c 0
 783 1234 788 1310 710 1310 c 0
 642 1310 603 1234 496 750 c 0
EndSplineSet
EndChar

StartChar: uniFF19
Encoding: 65305 65305 224
GlifName: uniF_F_19
Width: 1100
Flags: W
HStem: -20 154<226 466.346> 540 238<272 607> 1290 230<646.171 915>
LayerCount: 2
Fore
SplineSet
374 158 m 0
 370 142 379 134 397 134 c 0
 495 134 538 303 632 636 c 0
 642 671 650 685 644 689 c 0
 636 694 623 683 604 658 c 0
 547 586 473 540 383 540 c 0
 161 540 98 690 167 1000 c 0
 249 1370 452 1520 754 1520 c 0
 1076 1520 1189 1330 1063 760 c 0
 957 280 735 -20 363 -20 c 0
 89 -20 23 124 57 278 c 0
 87 414 187 510 326 510 c 0
 460 510 534 438 509 324 c 0
 484 212 380 184 374 158 c 0
573 1030 m 0
 531 842 551 778 589 778 c 0
 625 778 691 880 726 1040 c 0
 761 1198 761 1290 703 1290 c 0
 655 1290 612 1208 573 1030 c 0
EndSplineSet
EndChar

StartChar: t.alt
Encoding: 65536 -1 225
GlifName: t.alt
Width: 588
Flags: W
HStem: -40 21G<132 324.5> 830 210<67.0161 126.98 588.997 664.901>
LayerCount: 2
Fore
SplineSet
129 1040 m 2
 151 1040 l 2
 190 1040 170 1040 176 1040 c 2
 176 1040 l 2
 183 1040 189 1039 215 1040 c 0
 335 1046 430 1142 457 1168 c 0
 490.578049515 1200.33441805 488 1193 549 1193 c 0
 598 1193 615.831054688 1191.04589844 606 1155 c 2
 589 1084 l 2
 579.307692308 1048.46153846 578 1040 617 1040 c 2
 621 1040 l 2
 650 1040 665 1038 665 1006 c 2
 665 884 l 2
 665 838 663 830 617 830 c 2
 558 830 l 2
 529 830 524 820 517 792 c 2
 393 274 l 2
 383 236 372 184 389 184 c 0
 408 184 419 225 437 278 c 0
 447 307 451 315 495 307 c 2
 545 298 l 2
 582 291 581 274 565 233 c 0
 493 52 426 -40 223 -40 c 0
 41 -40 -43 60 -1 252 c 2
 126 782 l 2
 133 812 140 830 107 830 c 2
 105 830 l 2
 76 830 67 832 67 875 c 2
 67 995 l 2
 67 1039 89 1040 129 1040 c 2
EndSplineSet
EndChar

StartChar: R.alt
Encoding: 65537 -1 226
GlifName: R_.alt
Width: 1370
Flags: W
HStem: 0 270<-78.8552 75.6877 541.684 628.079 1132.2 1267.83> 1230 270<172.583 261.019 730.617 842.808>
VStem: 678 590<71.0506 267.12> 718 458<362.751 609.468> 844 468<975.806 1228.11>
LayerCount: 2
Fore
SplineSet
1190 0 m 2
 1008 0 l 2
 780 0 678 56 678 176 c 0
 678 278 718 406 718 510 c 0
 718 582 714 610 664 610 c 2
 658 610 l 2
 588 610 598 584 587 530 c 2
 544 326 l 2
 534 277 543 270 566 270 c 2
 571 270 l 2
 612 270 630 264 630 198 c 2
 630 102 l 2
 630 24 646 0 562 0 c 2
 20 0 l 2
 -63 0 -80 -13 -80 74 c 2
 -80 222 l 2
 -80 272 -78 270 -28 270 c 2
 0 270 l 2
 82 270 70 294 84 358 c 2
 252 1146 l 2
 266 1209 273 1230 238 1230 c 2
 236 1230 l 2
 166 1230 170 1252 170 1318 c 2
 170 1434 l 2
 170 1500 215 1500 274 1500 c 2
 852 1500 l 2
 1194 1500 1312 1400 1312 1210 c 0
 1312 1013 1241.27094458 839.567245905 1084 726 c 0
 1047.37368253 699.55169441 1048.62890625 688.5546875 1098 656 c 0
 1169.31933594 608.97265625 1176 577 1176 524 c 0
 1176 424 1130 398 1130 338 c 0
 1130 296 1144 270 1190 270 c 2
 1222 270 l 2
 1273 270 1268 264 1268 214 c 2
 1268 90 l 2
 1268 8 1275 0 1190 0 c 2
694 890 m 2
 702 890 l 2
 804 890 844 1082 844 1172 c 0
 844 1212 824 1230 782 1230 c 2
 768 1230 l 2
 733 1230 737 1215 726 1162 c 2
 684 966 l 2
 671 905 664 890 694 890 c 2
EndSplineSet
EndChar

StartChar: zero.oldstyle
Encoding: 65538 -1 227
GlifName: zero.oldstyle
Width: 1120
Flags: W
HStem: -20 210<249.651 545.241> 850 210<552.646 852.16>
LayerCount: 2
Fore
SplineSet
35 520 m 0
 112 866 319 1060 665 1060 c 0
 1031 1060 1132 866 1055 520 c 0
 978 174 752 -20 426 -20 c 0
 80 -20 -42 174 35 520 c 0
455 520 m 0
 396 256 404 190 472 190 c 0
 550 190 576 256 635 520 c 0
 691 774 696 850 618 850 c 0
 550 850 511 774 455 520 c 0
EndSplineSet
Substitution2: "'tnum' Tabular Numbers lookup 2 subtable" zero.oldtab
EndChar

StartChar: one.oldstyle
Encoding: 65539 -1 228
GlifName: one.oldstyle
Width: 920
Flags: W
HStem: 0 210<-22.3582 196.672 586.224 728.394> 610 211<146.667 265.794>
VStem: 546 211<972.793 1065>
LayerCount: 2
Fore
SplineSet
-46 65 m 2
 -23 166 l 2
 -14 208 -3 210 40 210 c 2
 132 210 l 2
 181 210 189 217 199 264 c 2
 265 563 l 2
 274 603 266 610 228 610 c 2
 154 610 l 2
 121 610 110 613 118 649 c 2
 144 769 l 2
 156 823 188 819 235 821 c 0
 320 825 414 850 546 1025 c 0
 570 1057 578 1070 630 1070 c 2
 716 1070 l 2
 759 1070 766 1065 757 1024 c 2
 589 266 l 2
 577 212 587 210 642 210 c 2
 714 210 l 2
 747 210 766 206 758 170 c 2
 733 59 l 2
 722 10 718 0 669 0 c 2
 5 0 l 2
 -53 0 -59 5 -46 65 c 2
EndSplineSet
Substitution2: "'tnum' Tabular Numbers lookup 2 subtable" one.oldtab
EndChar

StartChar: two.oldstyle
Encoding: 65540 -1 229
GlifName: two.oldstyle
Width: 1094
Flags: W
HStem: -20 371<499 776.785> 0 21G<-48.5 135.5> 896 184<499.989 804>
VStem: 841 196<427.302 553.832>
LayerCount: 2
Fore
SplineSet
1037 510 m 0
 944 141 839 -20 591 -20 c 0
 407 -20 393 100 307 100 c 0
 250 100 207 74 175 34 c 0
 153 7 158 0 113 0 c 2
 -29 0 l 2
 -68 0 -73 4 -65 42 c 0
 -2 320 84 342 412 508 c 0
 556 581 595 612 634 790 c 0
 647 848 636 896 568 896 c 0
 550 896 505 892 499 864 c 0
 491 828 592 828 563 696 c 0
 533 562 421 530 307 530 c 0
 189 530 91 606 126 762 c 0
 171 966 374 1080 668 1080 c 0
 940 1080 1110 1030 1061 810 c 0
 1008 570 759 528 571 460 c 0
 498 434 427 406 391 391 c 0
 319 361 227 301 249 301 c 0
 282 301 332 340 441 384 c 0
 501 408 542 419 578 419 c 0
 648 419 683 351 725 351 c 0
 772 351 810 431 841 510 c 0
 856 552 852 554 900 554 c 2
 1006 554 l 2
 1050 554 1046 552 1037 510 c 0
EndSplineSet
Substitution2: "'tnum' Tabular Numbers lookup 2 subtable" two.oldtab
EndChar

StartChar: three.oldstyle
Encoding: 65541 -1 230
GlifName: three.oldstyle
Width: 960
Flags: W
HStem: -480 184<177.322 310.035> 886 174<398.518 733>
LayerCount: 2
Fore
SplineSet
-105 -112 m 0
 -75 24 39 130 187 130 c 0
 321 130 375 58 354 -36 c 0
 320 -188 183 -198 173 -244 c 0
 165 -278 198 -296 226 -296 c 0
 304 -296 343 -248 389 -40 c 0
 419 96 393 195 323 210 c 0
 287 218 269 203 279 247 c 2
 308 378 l 2
 317 417 323 406 358 412 c 0
 445 426 496 535 529 682 c 0
 562 830 536 886 468 886 c 0
 440 886 401 870 393 836 c 0
 383 790 519 800 488 658 c 0
 469 574 371 492 247 492 c 0
 129 492 26 568 58 714 c 0
 101 908 293 1060 597 1060 c 0
 869 1060 982 912 931 682 c 0
 899 538 800 428 683 358 c 0
 639 332 603 329 600 315 c 0
 596 298 620 299 664 272 c 0
 768 209 823 101 787 -60 c 0
 720 -360 498 -480 196 -480 c 0
 -88 -480 -148 -306 -105 -112 c 0
EndSplineSet
Substitution2: "'tnum' Tabular Numbers lookup 2 subtable" three.oldtab
EndChar

StartChar: four.oldstyle
Encoding: 65542 -1 231
GlifName: four.oldstyle
Width: 984
Flags: W
HStem: -460 210<112.427 269.744 659.926 712.25> 1 210<255.653 306.573 763.543 846.331>
VStem: 660 152<432.088 509.633>
LayerCount: 2
Fore
SplineSet
740 -296 m 2
 712 -424 l 2
 705 -457 696 -460 662 -460 c 2
 130 -460 l 2
 83 -460 75 -459 85 -412 c 2
 111 -295 l 2
 119 -259 128 -250 165 -250 c 2
 214 -250 l 2
 258 -250 262 -243 272 -198 c 2
 304 -53 l 2
 316 1 316 1 262 1 c 2
 -36 1 l 2
 -79 1 -77 9 -85 35 c 2
 -103 93 l 2
 -110 114 -102 123 -86 145 c 0
 141 459 381 588 572 984 c 0
 592 1026 597 1040 653 1040 c 2
 923 1040 l 2
 976 1040 983 1035 965 988 c 0
 815 602 510 481 265 262 c 0
 231 232 202 211 280 211 c 2
 325 211 l 2
 360 211 364 217 370 243 c 2
 371 250 l 2
 381 297 392 294 427 311 c 0
 501 346 600 394 660 480 c 0
 673 500 682 510 713 510 c 2
 779 510 l 2
 810 510 819 509 812 478 c 2
 766 269 l 2
 759 236 762 211 799 211 c 2
 847 211 l 2
 879 211 881 203 874 173 c 2
 849 57 l 2
 839 11 836 1 790 1 c 2
 760 1 l 2
 719 1 706 -3 696 -47 c 2
 662 -198 l 2
 652 -243 656 -250 703 -250 c 2
 707 -250 l 2
 746 -250 749 -256 740 -296 c 2
EndSplineSet
Substitution2: "'tnum' Tabular Numbers lookup 2 subtable" four.oldtab
EndChar

StartChar: five.oldstyle
Encoding: 65543 -1 232
GlifName: five.oldstyle
Width: 930
Flags: W
HStem: -480 164<192.82 263.941> 322 218<368.5 722> 660 380<315.165 735.816>
LayerCount: 2
Fore
SplineSet
-131 -142 m 0
 -99 4 20 90 148 90 c 0
 272 90 334 8 311 -96 c 0
 282 -228 199 -218 189 -264 c 0
 181 -298 204 -316 222 -316 c 0
 270 -316 333 -158 379 50 c 0
 427 268 421 322 383 322 c 0
 354 322 328 303 218 195 c 0
 197 174 184 164 145 164 c 2
 81 164 l 2
 27 164 36 182 51 226 c 2
 275 1000 l 2
 287 1038 298 1040 340 1040 c 2
 395 1040 l 2
 596 1040 690 1008 773 1083 c 0
 789 1098 801 1104 832 1104 c 2
 937 1104 l 2
 963 1104 972 1097 962 1074 c 2
 952 1040 l 2
 901 874 860 660 526 660 c 2
 371 660 l 2
 333 660 320 651 315 618 c 2
 277 470 l 2
 271 433 253 390 260 386 c 0
 273 377 296 403 326 436 c 0
 387 502 465 540 576 540 c 0
 868 540 841 320 779 40 c 0
 704 -300 568 -480 226 -480 c 0
 -78 -480 -176 -346 -131 -142 c 0
EndSplineSet
Substitution2: "'tnum' Tabular Numbers lookup 2 subtable" five.oldtab
EndChar

StartChar: seven.oldstyle
Encoding: 65544 -1 233
GlifName: seven.oldstyle
Width: 1027
Flags: W
HStem: 674 386<266.446 452.841>
LayerCount: 2
Fore
SplineSet
-14 522 m 0
 77 887 224 1060 425 1060 c 0
 619 1060 613 940 779 940 c 0
 847 940 886 967 916 1011 c 0
 928 1029 933 1040 961 1040 c 2
 1090 1040 l 2
 1125 1040 1129 1033 1117 1000 c 0
 1060 845 830 533 632 296 c 0
 491 126 434 72 419 4 c 0
 398 -92 574 -92 540 -244 c 0
 515 -358 418 -480 260 -480 c 0
 112 -480 19 -386 58 -208 c 0
 97 -30 218 80 395 302 c 0
 492 424 550 505 676 640 c 0
 714 681 747 716 739 726 c 0
 727 741 689 705 660 676 c 0
 612 628 571 616 517 616 c 0
 427 616 440 674 358 674 c 0
 291 674 195 622 162 520 c 0
 155 497 159 486 131 486 c 2
 15 486 l 2
 -15 486 -21 494 -14 522 c 0
EndSplineSet
Substitution2: "'tnum' Tabular Numbers lookup 2 subtable" seven.oldtab
EndChar

StartChar: nine.oldstyle
Encoding: 65545 -1 234
GlifName: nine.oldstyle
Width: 1010
Flags: W
HStem: -480 154<79 319.358> 80 238<125 460> 830 230<499.171 768>
LayerCount: 2
Fore
SplineSet
227 -302 m 0
 223 -318 232 -326 250 -326 c 0
 348 -326 391 -157 485 176 c 0
 495 211 503 225 497 229 c 0
 489 234 476 223 457 198 c 0
 400 126 326 80 236 80 c 0
 14 80 -49 230 20 540 c 0
 102 910 305 1060 607 1060 c 0
 929 1060 1043 870 917 300 c 0
 811 -180 588 -480 216 -480 c 0
 -58 -480 -124 -336 -90 -182 c 0
 -60 -46 40 50 179 50 c 0
 313 50 387 -22 362 -136 c 0
 337 -248 233 -276 227 -302 c 0
426 570 m 0
 384 382 404 318 442 318 c 0
 478 318 544 420 579 580 c 0
 614 738 614 830 556 830 c 0
 508 830 465 748 426 570 c 0
EndSplineSet
Substitution2: "'tnum' Tabular Numbers lookup 2 subtable" nine.oldtab
EndChar

StartChar: zero.oldtab
Encoding: 65546 -1 235
GlifName: zero.oldtab
Width: 1100
Flags: W
HStem: -20 210<239.651 535.241> 850 210<542.646 842.16>
LayerCount: 2
Fore
SplineSet
25 520 m 0
 102 866 309 1060 655 1060 c 0
 1021 1060 1122 866 1045 520 c 0
 968 174 742 -20 416 -20 c 0
 70 -20 -52 174 25 520 c 0
445 520 m 0
 386 256 394 190 462 190 c 0
 540 190 566 256 625 520 c 0
 681 774 686 850 608 850 c 0
 540 850 501 774 445 520 c 0
EndSplineSet
EndChar

StartChar: one.oldtab
Encoding: 65547 -1 236
GlifName: one.oldtab
Width: 1100
Flags: W
HStem: 0 210<67.6418 286.672 676.224 818.394> 610 211<236.667 355.794>
VStem: 636 211<972.793 1065>
LayerCount: 2
Fore
SplineSet
44 65 m 2
 67 166 l 2
 76 208 87 210 130 210 c 2
 222 210 l 2
 271 210 279 217 289 264 c 2
 355 563 l 2
 364 603 356 610 318 610 c 2
 244 610 l 2
 211 610 200 613 208 649 c 2
 234 769 l 2
 246 823 278 819 325 821 c 0
 410 825 504 850 636 1025 c 0
 660 1057 668 1070 720 1070 c 2
 806 1070 l 2
 849 1070 856 1065 847 1024 c 2
 679 266 l 2
 667 212 677 210 732 210 c 2
 804 210 l 2
 837 210 856 206 848 170 c 2
 823 59 l 2
 812 10 808 0 759 0 c 2
 95 0 l 2
 37 0 31 5 44 65 c 2
EndSplineSet
EndChar

StartChar: two.oldtab
Encoding: 65548 -1 237
GlifName: two.oldtab
Width: 1100
Flags: W
HStem: -20 371<502 779.785> 0 21G<-45.5 138.5> 896 184<502.989 807>
VStem: 844 196<427.302 553.832>
LayerCount: 2
Fore
SplineSet
1040 510 m 0
 947 141 842 -20 594 -20 c 0
 410 -20 396 100 310 100 c 0
 253 100 210 74 178 34 c 0
 156 7 161 0 116 0 c 2
 -26 0 l 2
 -65 0 -70 4 -62 42 c 0
 1 320 87 342 415 508 c 0
 559 581 598 612 637 790 c 0
 650 848 639 896 571 896 c 0
 553 896 508 892 502 864 c 0
 494 828 595 828 566 696 c 0
 536 562 424 530 310 530 c 0
 192 530 94 606 129 762 c 0
 174 966 377 1080 671 1080 c 0
 943 1080 1113 1030 1064 810 c 0
 1011 570 762 528 574 460 c 0
 501 434 430 406 394 391 c 0
 322 361 230 301 252 301 c 0
 285 301 335 340 444 384 c 0
 504 408 545 419 581 419 c 0
 651 419 686 351 728 351 c 0
 775 351 813 431 844 510 c 0
 859 552 855 554 903 554 c 2
 1009 554 l 2
 1053 554 1049 552 1040 510 c 0
EndSplineSet
EndChar

StartChar: three.oldtab
Encoding: 65549 -1 238
GlifName: three.oldtab
Width: 1100
Flags: W
HStem: -480 184<247.322 380.035> 886 174<468.518 803>
LayerCount: 2
Fore
SplineSet
-35 -112 m 0
 -5 24 109 130 257 130 c 0
 391 130 445 58 424 -36 c 0
 390 -188 253 -198 243 -244 c 0
 235 -278 268 -296 296 -296 c 0
 374 -296 413 -248 459 -40 c 0
 489 96 463 195 393 210 c 0
 357 218 339 203 349 247 c 2
 378 378 l 2
 387 417 393 406 428 412 c 0
 515 426 566 535 599 682 c 0
 632 830 606 886 538 886 c 0
 510 886 471 870 463 836 c 0
 453 790 589 800 558 658 c 0
 539 574 441 492 317 492 c 0
 199 492 96 568 128 714 c 0
 171 908 363 1060 667 1060 c 0
 939 1060 1052 912 1001 682 c 0
 969 538 870 428 753 358 c 0
 709 332 673 329 670 315 c 0
 666 298 690 299 734 272 c 0
 838 209 893 101 857 -60 c 0
 790 -360 568 -480 266 -480 c 0
 -18 -480 -78 -306 -35 -112 c 0
EndSplineSet
EndChar

StartChar: four.oldtab
Encoding: 65550 -1 239
GlifName: four.oldtab
Width: 1100
Flags: W
HStem: -460 210<170.427 327.744 717.926 770.25> 1 210<313.653 364.573 821.543 904.331>
VStem: 718 152<432.088 509.633>
LayerCount: 2
Fore
SplineSet
798 -296 m 2
 770 -424 l 2
 763 -457 754 -460 720 -460 c 2
 188 -460 l 2
 141 -460 133 -459 143 -412 c 2
 169 -295 l 2
 177 -259 186 -250 223 -250 c 2
 272 -250 l 2
 316 -250 320 -243 330 -198 c 2
 362 -53 l 2
 374 1 374 1 320 1 c 2
 22 1 l 2
 -21 1 -19 9 -27 35 c 2
 -45 93 l 2
 -52 114 -44 123 -28 145 c 0
 199 459 439 588 630 984 c 0
 650 1026 655 1040 711 1040 c 2
 981 1040 l 2
 1034 1040 1041 1035 1023 988 c 0
 873 602 568 481 323 262 c 0
 289 232 260 211 338 211 c 2
 383 211 l 2
 418 211 422 217 428 243 c 2
 429 250 l 2
 439 297 450 294 485 311 c 0
 559 346 658 394 718 480 c 0
 731 500 740 510 771 510 c 2
 837 510 l 2
 868 510 877 509 870 478 c 2
 824 269 l 2
 817 236 820 211 857 211 c 2
 905 211 l 2
 937 211 939 203 932 173 c 2
 907 57 l 2
 897 11 894 1 848 1 c 2
 818 1 l 2
 777 1 764 -3 754 -47 c 2
 720 -198 l 2
 710 -243 714 -250 761 -250 c 2
 765 -250 l 2
 804 -250 807 -256 798 -296 c 2
EndSplineSet
EndChar

StartChar: five.oldtab
Encoding: 65551 -1 240
GlifName: five.oldtab
Width: 1100
Flags: W
HStem: -480 164<277.82 348.941> 322 218<453.5 807> 660 380<400.165 820.816>
LayerCount: 2
Fore
SplineSet
-46 -142 m 0
 -14 4 105 90 233 90 c 0
 357 90 419 8 396 -96 c 0
 367 -228 284 -218 274 -264 c 0
 266 -298 289 -316 307 -316 c 0
 355 -316 418 -158 464 50 c 0
 512 268 506 322 468 322 c 0
 439 322 413 303 303 195 c 0
 282 174 269 164 230 164 c 2
 166 164 l 2
 112 164 121 182 136 226 c 2
 360 1000 l 2
 372 1038 383 1040 425 1040 c 2
 480 1040 l 2
 681 1040 775 1008 858 1083 c 0
 874 1098 886 1104 917 1104 c 2
 1022 1104 l 2
 1048 1104 1057 1097 1047 1074 c 2
 1037 1040 l 2
 986 874 945 660 611 660 c 2
 456 660 l 2
 418 660 405 651 400 618 c 2
 362 470 l 2
 356 433 338 390 345 386 c 0
 358 377 381 403 411 436 c 0
 472 502 550 540 661 540 c 0
 953 540 926 320 864 40 c 0
 789 -300 653 -480 311 -480 c 0
 7 -480 -91 -346 -46 -142 c 0
EndSplineSet
EndChar

StartChar: seven.oldtab
Encoding: 65552 -1 241
GlifName: seven.oldtab
Width: 1100
Flags: W
HStem: 674 386<304.709 489.711>
VStem: 23 175<486 588.192>
LayerCount: 2
Fore
SplineSet
23 522 m 0
 114 887 261 1060 462 1060 c 0
 656 1060 649 940 815 940 c 0
 883 940 922 967 952 1011 c 0
 964 1029 970 1040 998 1040 c 2
 1127 1040 l 2
 1162 1040 1166 1033 1154 1000 c 0
 1097 845 867 533 669 296 c 0
 528 126 471 72 456 4 c 0
 435 -92 611 -92 577 -244 c 0
 552 -358 455 -480 297 -480 c 0
 149 -480 56 -386 95 -208 c 0
 134 -30 255 80 432 302 c 0
 529 424 587 505 713 640 c 0
 751 681 784 716 776 726 c 0
 764 741 726 705 697 676 c 0
 649 628 608 616 554 616 c 0
 464 616 476 674 394 674 c 0
 327 674 231 622 198 520 c 0
 191 497 196 486 168 486 c 2
 52 486 l 2
 22 486 16 494 23 522 c 0
EndSplineSet
EndChar

StartChar: nine.oldtab
Encoding: 65553 -1 242
GlifName: nine.oldtab
Width: 1100
Flags: W
HStem: -480 154<124 364.358> 80 238<170 505> 830 230<544.171 813>
LayerCount: 2
Fore
SplineSet
272 -302 m 0
 268 -318 277 -326 295 -326 c 0
 393 -326 436 -157 530 176 c 0
 540 211 548 225 542 229 c 0
 534 234 521 223 502 198 c 0
 445 126 371 80 281 80 c 0
 59 80 -4 230 65 540 c 0
 147 910 350 1060 652 1060 c 0
 974 1060 1088 870 962 300 c 0
 856 -180 633 -480 261 -480 c 0
 -13 -480 -79 -336 -45 -182 c 0
 -15 -46 85 50 224 50 c 0
 358 50 432 -22 407 -136 c 0
 382 -248 278 -276 272 -302 c 0
471 570 m 0
 429 382 449 318 487 318 c 0
 523 318 589 420 624 580 c 0
 659 738 659 830 601 830 c 0
 553 830 510 748 471 570 c 0
EndSplineSet
EndChar

StartChar: Eth
Encoding: 208 208 265
GlifName: E_th
Width: 1320
Flags: W
HStem: 0 270<-70 69.2922 539.218 664.646> 670 230<76 758> 1230 270<160.194 261.406 732.629 857.327>
VStem: 890 490<736.42 1206.58>
LayerCount: 2
Fore
SplineSet
116 900 m 2
 721 900 l 2
 754 900 758 896 758 872 c 2
 758 703 l 2
 758 679 755 670 718 670 c 2
 113 670 l 2
 78 670 76 674 76 700 c 2
 76 872 l 2
 76 895 86 900 116 900 c 2
EndSplineSet
Refer: 15 68 N 1 0 0 1 0 0 2
EndChar

StartChar: AE
Encoding: 198 198 266
GlifName: A_E_
Width: 1960
Flags: W
HStem: 0 270<-79.9844 68.9949 432.969 530 720.383 859.995 1330 1576.23> 420 250<690.339 1076> 1230 270<955.039 1055 1525.93 1766.57> 1480 20G<936 992.37>
LayerCount: 2
Fore
SplineSet
1047 1230 m 1
 1017 1230 1003.44824219 1227.86035156 967 1168 c 2
 693 718 l 2
 673.974609375 686.75390625 656 670 708 670 c 2
 1116 670 l 17
 1076 420 l 9
 542 420 l 2
 509 420 491.930664062 419.798828125 481 400 c 2
 428 304 l 2
 416.178710938 282.588867188 414 270 456 270 c 2
 496 270 l 2
 518 270 530 266 530 242 c 2
 530 38 l 2
 530 5 524 0 490 0 c 2
 -52 0 l 2
 -83 0 -80 4 -80 34 c 2
 -80 232 l 2
 -80 261 -79 270 -50 270 c 2
 8 270 l 2
 45 270 52 284 69 304 c 2
 872 1472 l 2
 884.604492188 1490.33398438 919 1500 953 1500 c 2
 988 1500 l 1
 1047 1230 l 1
EndSplineSet
Refer: 16 69 N 1 0 0 1 789.998 0 2
EndChar

StartChar: germandbls
Encoding: 223 223 267
GlifName: germandbls
Width: 1303
Flags: W
HStem: -20 203<683.068 875.092> 0 213<-43.9894 44.2227> 1383 187<700.374 850.516>
VStem: 461 392<209.975 400.231> 655 423<740.355 958.972> 857 366<1170.12 1373.52> 892 360<200.831 453.031>
LayerCount: 2
Fore
SplineSet
1252 370 m 0
 1252 143 1049 -20 807 -20 c 0
 564 -20 461 102 461 271 c 0
 461 392 548 472 648 472 c 0
 769 472 853 412 853 300 c 0
 853 251 836.80859375 229.79296875 818 216 c 0
 803 205 796.721679688 199.314453125 802 191 c 0
 804.849609375 186.510742188 812 183 819 183 c 0
 847 183 892 220 892 290 c 0
 892 508 655 651 655 867 c 0
 655 1090 857 1109 857 1303 c 0
 857 1362 819 1383 781 1383 c 0
 683 1383 632 1246 561 962 c 2
 376 59 l 2
 361 -1 344 0 288 0 c 2
 -2 0 l 2
 -43 0 -44 8 -44 49 c 2
 -44 169 l 2
 -44 206 -30 213 -4 213 c 2
 4 213 l 2
 28 213 38 230 48 271 c 2
 185 982 l 2
 271 1328 401 1570 807 1570 c 0
 1043 1570 1223 1424 1223 1242 c 0
 1223 1016 1078 960 1078 857 c 0
 1078 727 1252 652 1252 370 c 0
EndSplineSet
EndChar

StartChar: Thorn
Encoding: 222 222 268
GlifName: T_horn
Width: 1284
Flags: W
HStem: 0 270<-40 69.9979 532.587 709.912> 1230 270<156.018 265.002 724.875 876>
VStem: 734 550<682.985 854.417>
LayerCount: 2
Fore
SplineSet
643 812 m 2
 619 704 l 2
 612 671 600 645 628 645 c 2
 634 645 l 2
 696 645 734 767 734 815 c 0
 734 843 726 855 704 855 c 2
 692 855 l 2
 647 855 651 848 643 812 c 2
-40 33 m 2
 -40 239 l 2
 -40 269 -31 270 0 270 c 2
 28 270 l 2
 66 270 63 277 70 307 c 2
 265 1189 l 2
 273 1224 270 1230 230 1230 c 2
 198 1230 l 2
 159 1230 156 1237 156 1277 c 2
 156 1464 l 2
 156 1494 162 1500 190 1500 c 2
 844 1500 l 2
 875 1500 876 1491 876 1459 c 2
 876 1273 l 2
 876 1235 869 1230 832 1230 c 2
 766 1230 l 2
 733 1230 734 1227 728 1201 c 2
 720 1164 l 2
 713 1133 713 1125 762 1125 c 2
 814 1125 l 2
 1106 1125 1284 1035 1284 845 c 0
 1284 525 1006 375 664 375 c 2
 584 375 l 2
 557 375 546 374 541 352 c 2
 533 315 l 2
 524 275 527 270 578 270 c 2
 666 270 l 2
 703 270 710 267 710 231 c 2
 710 51 l 2
 710 5 704 0 660 0 c 2
 0 0 l 2
 -31 0 -40 2 -40 33 c 2
EndSplineSet
EndChar

StartChar: Oslash
Encoding: 216 216 274
GlifName: O_slash
Width: 1240
Flags: W
HStem: -40 260<485.798 593.996> 1280 260<718.004 826.202>
VStem: 14 466<225.054 667.818> 832 466<832.182 1274.95>
LayerCount: 2
Fore
SplineSet
1075 1660 m 2
 1188 1660 l 2
 1246 1660 1230 1637 1214 1606 c 2
 290 -162 l 2
 274 -192 265 -200 217 -200 c 2
 127 -200 l 2
 57 -200 48 -189 69 -148 c 2
 1002 1618 l 2
 1018 1648 1026 1660 1075 1660 c 2
EndSplineSet
Refer: 26 79 N 1 0 0 1 0 0 2
EndChar

StartChar: ae
Encoding: 230 230 290
GlifName: ae
Width: 1476
Flags: W
HStem: -40 196<941.618 1036.06> -30 229<151 478.459> 437 151<461.171 525.062> 888 192<470.442 624.64 1099.55 1264.5>
VStem: 73 392<699.489 881.463> 1156 339<705.026 879.972>
LayerCount: 2
Fore
SplineSet
1031 569 m 0
 1072 589 1155 784 1156 848 c 0
 1156 866 1156 880 1138 880 c 0
 1106 880 1070 804 1015 602 c 0
 1007 571 1010 559 1031 569 c 0
529 408 m 2
 532 422 534 437 516 437 c 2
 508 437 l 2
 466 437 428 360 410 286 c 0
 397 232 403 199 433 199 c 0
 469 199 489 250 522 382 c 2
 529 408 l 2
-54 206 m 0
 -54 437 196 588 540 588 c 2
 548 588 l 2
 571 588 574 590 580 614 c 2
 610 734 l 2
 636 838 642 888 552 888 c 0
 522 888 465 881 465 858 c 0
 465 834 501 847 501 756 c 0
 501 644 381 600 273 600 c 0
 151 600 73 665 73 746 c 0
 73 942 323 1080 585 1080 c 0
 687 1080 802 1045 863 1013 c 0
 890 999 893 1002 925 1016 c 0
 1020 1057 1059 1070 1149 1070 c 0
 1373 1070 1495 910 1495 746 c 0
 1495 456 1238 423 990 395 c 0
 975 393 966 391 965 383 c 1
 941 260 921 156 971 156 c 0
 1020 156 1065 218 1099 322 c 0
 1105 340 1117 346 1141 346 c 2
 1398 346 l 2
 1426 346 1428 343 1420 320 c 0
 1326 65 1170 -40 956 -40 c 0
 812 -40 744 11 691 87 c 0
 666.250943789 122.48921268 643 115 617 91 c 0
 525 6 401 -30 250 -30 c 0
 52 -30 -54 75 -54 206 c 0
EndSplineSet
EndChar

StartChar: eth
Encoding: 240 240 291
GlifName: eth
Width: 1340
Flags: W
HStem: -20 190<438.256 658.558> 882 178<630.619 887.728>
LayerCount: 2
Fore
SplineSet
437 510 m 0
 383 292 386 170 544 170 c 0
 682 170 840 361 912 650 c 0
 952 810 888 882 762 882 c 0
 604 882 494 738 437 510 c 0
37 510 m 0
 119 840 410 1060 762 1060 c 0
 874 1060 927 1039 956 1011 c 0
 972 995 981 976 990 980 c 0
 998 984 998 997 1004 1030 c 0
 1047 1265 787 1438 758 1454 c 0
 744 1462 735 1462 747 1480 c 2
 852 1601 l 2
 863 1617 869 1619 883 1612 c 0
 1120 1489 1436 1145 1325 700 c 0
 1198 190 839 -20 517 -20 c 0
 115 -20 -43 190 37 510 c 0
EndSplineSet
Refer: 85 45 N 0.749531 0.661969 -0.661969 0.749531 1228 635 2
EndChar

StartChar: oslash
Encoding: 248 248 298
GlifName: oslash
Width: 1020
Flags: W
HStem: -20 21G<273 566.5> 880 180<547.024 745>
VStem: 4 374<189.152 421.257> 605 410<621.517 861.043>
LayerCount: 2
Fore
SplineSet
917 1215 m 2
 1030 1215 l 2
 1088 1215 1072 1197 1056 1174 c 2
 132 -161 l 2
 116 -184 107 -189 59 -189 c 2
 -31 -189 l 2
 -101 -189 -110 -181 -89 -150 c 2
 844 1183 l 2
 860 1206 868 1215 917 1215 c 2
EndSplineSet
Refer: 52 111 N 1 0 0 1 0 0 2
EndChar

StartChar: thorn
Encoding: 254 254 304
GlifName: thorn
Width: 996
Flags: W
HStem: -500 21G<-122.5 192.5> -40 198<396.699 610.5> 880 198<546 794> 1540 20G<208 598>
VStem: 603 395<607.376 875.5>
LayerCount: 2
Fore
SplineSet
226 1560 m 2
 584 1560 l 2
 612 1560 619 1559 615 1528 c 2
 485 940 l 2
 479 897 481 882 511 931 c 0
 566 1020 622 1078 721 1078 c 0
 867 1078 998 968 998 708 c 0
 998 268 725 -40 496 -40 c 0
 410 -40 384 17 367 57 c 0
 358 78 346 79 337 40 c 2
 232 -448 l 2
 222 -492 215 -500 170 -500 c 2
 -86 -500 l 2
 -159 -500 -157 -480 -145 -426 c 2
 250 1306 l 2
 258 1341 259 1350 224 1350 c 2
 216 1350 l 2
 182 1350 180 1358 180 1402 c 2
 180 1518 l 2
 180 1557 190 1560 226 1560 c 2
386 198 m 0
 386 177 392 158 411 158 c 0
 487 158 602 790 603 838 c 0
 604 866 597 880 584 880 c 0
 508 880 388 266 386 198 c 0
EndSplineSet
EndChar

StartChar: Dcroat
Encoding: 272 272 322
GlifName: D_croat
Width: 1320
Flags: W
HStem: 0 270<-70 69.2922 539.218 664.646> 670 230<76 778> 1230 270<160.194 261.406 732.629 857.327>
VStem: 890 490<736.42 1206.58>
LayerCount: 2
Fore
SplineSet
116 900 m 2
 741 900 l 2
 774 900 778 896 778 872 c 2
 778 703 l 2
 778 679 775 670 738 670 c 2
 113 670 l 2
 78 670 76 674 76 700 c 2
 76 872 l 2
 76 895 86 900 116 900 c 2
EndSplineSet
Refer: 15 68 N 1 0 0 1 0 0 2
EndChar

StartChar: dcroat
Encoding: 273 273 323
GlifName: dcroat
Width: 1036
Flags: W
HStem: -50 234<664 897.195> -40 198<202.5 445> 880 198<391 612.875> 1060 230<601 1207> 1540 20G<708 1147>
VStem: 3 385<162.5 430.624> 910 129<192.447 301.366>
LayerCount: 2
Fore
SplineSet
631 1290 m 2
 1179 1290 l 2
 1204 1290 1207 1286 1207 1262 c 2
 1207 1093 l 2
 1207 1069 1205 1060 1177 1060 c 2
 629 1060 l 2
 602 1060 601 1064 601 1090 c 2
 601 1262 l 2
 601 1285 609 1290 631 1290 c 2
EndSplineSet
Refer: 41 100 N 1 0 0 1 0 0 2
EndChar

StartChar: gcircumflex
Encoding: 285 285 335
GlifName: gcircumflex
Width: 821
Flags: W
HStem: -530 204<17.4469 330.847> -104 342<267.653 385.826> 340 180<346 430.465> 1101 141<668.841 852.5>
VStem: -202 339<-314.209 -171.695> -83 350<101 293> 46 325<522.471 769.99> 386 331<-224.141 -104> 497 330<624.993 899.003>
LayerCount: 2
Fore
SplineSet
-202 -300 m 0
 -202 -196 -119 -100 -18 -55 c 0
 13 -41 13 -37 -6 -21 c 0
 -63 26 -83 74 -83 128 c 0
 -83 248 28 343 142 391 c 0
 172 404 173 413 155 426 c 0
 87 476 46 546 46 635 c 0
 46 918 322 1080 474 1080 c 0
 476 1080 477 1080 479 1080 c 0
 502 1080 492.181378128 1088.5895864 513 1109 c 0
 564 1159 614 1242 784 1242 c 0
 921 1242 1000 1190 1000 1106 c 0
 1000 1021 960 975 854 975 c 0
 780 975 724 1027.99137995 724 1086 c 0
 724 1094 720 1101 707 1101 c 0
 693 1101 678 1090 671 1080 c 0
 656.492422716 1059.27488959 662 1051 676 1043 c 0
 766 997 827 910 827 796 c 0
 827 506 562 340 348 340 c 0
 344 340 332 341 320 342 c 0
 312 343 304 341 292 330 c 0
 282 321 267 302 267 284 c 0
 267 264 267 238 330 238 c 0
 375 238 435 240 494 240 c 0
 677 240 717 134 717 -24 c 0
 717 -311 483 -530 149 -530 c 0
 -108 -530 -202 -454 -202 -300 c 0
197 -110 m 0
 160 -143 138 -190 137 -246 c 0
 136 -308 178 -326 225 -326 c 0
 309 -326 384 -265 386 -158 c 0
 387 -121 374 -104 347 -104 c 0
 327 -104 315 -104 302 -104 c 0
 282 -104 264 -104 244 -102 c 0
 225 -100 212 -97 197 -110 c 0
371 553 m 0
 370 526 382 520 395 520 c 0
 443 520 495 775 497 870 c 0
 498 895 495 900 482 900 c 0
 434 900 374 650 371 553 c 0
EndSplineSet
Refer: 112 770 N 1 0 0 1 -160 -370 2
Substitution2: "'smcp' Lowercase to Small Capitals in Latin lookup 0 subtable" gcircumflex.sc
EndChar

StartChar: gbreve
Encoding: 287 287 337
GlifName: gbreve
Width: 821
Flags: W
HStem: -530 204<17.4469 330.847> -104 342<267.653 385.826> 340 180<346 430.465> 1171 211<691.648 872.5> 1278 260<405.556 600.384>
VStem: -202 339<-314.209 -171.695> -83 350<101 293> 46 325<522.471 769.99> 255 145<1550.02 1636> 386 331<-224.141 -104> 497 330<624.993 899.003> 619 157<1564.37 1636> 724 286<1062.73 1170.98>
LayerCount: 2
Fore
SplineSet
442 1278 m 0
 253 1278 212 1403 255 1617 c 0
 259 1634 264 1636 280 1636 c 2
 386 1636 l 2
 399 1636 401 1633 400 1620 c 0
 398 1580 402 1538 493 1538 c 0
 579 1538 601 1576 619 1607 c 0
 629 1625 631 1636 653 1636 c 2
 762 1636 l 2
 782 1636 782 1632 776 1612 c 0
 726 1402 628 1278 442 1278 c 0
EndSplineSet
Refer: 44 103 N 1 0 0 1 0 0 3
Substitution2: "'smcp' Lowercase to Small Capitals in Latin lookup 0 subtable" gbreve.sc
EndChar

StartChar: Hbar
Encoding: 294 294 342
GlifName: H_bar
Width: 1440
Flags: W
HStem: 0 270<-68.9914 68.4896 536.523 618.357 661.947 779.019 1248.48 1348.15> 650 250<678.664 846.485> 950 230<116 1534> 1230 270<160.655 260.759 730.002 848.273 890.488 968.438 1441.66 1579.42>
LayerCount: 2
Fore
SplineSet
194 1180 m 2
 1461 1180 l 2
 1526 1180 1534 1176 1534 1152 c 2
 1534 983 l 2
 1534 959 1528 950 1455 950 c 2
 189 950 l 2
 119 950 116 954 116 980 c 2
 116 1152 l 2
 116 1175 135 1180 194 1180 c 2
EndSplineSet
Refer: 19 72 N 1 0 0 1 0 0 2
EndChar

StartChar: hbar
Encoding: 295 295 343
GlifName: hbar
Width: 1072
Flags: W
HStem: -40 224<640 908.2> 0 21G<5.5 339> 806 272<567.5 935> 1072 230<98 755> 1540 20G<227 681.5>
VStem: 466 406<95 337.234>
LayerCount: 2
Fore
SplineSet
132 1302 m 2
 723 1302 l 2
 751 1302 755 1298 755 1274 c 2
 755 1105 l 2
 755 1081 753 1072 721 1072 c 2
 129 1072 l 2
 99 1072 98 1076 98 1102 c 2
 98 1274 l 2
 98 1297 106 1302 132 1302 c 2
EndSplineSet
Refer: 45 104 N 1 0 0 1 0 0 2
EndChar

StartChar: hcircumflex
Encoding: 293 293 345
GlifName: hcircumflex
Width: 1072
Flags: W
HStem: -40 224<640 908.2> 0 21G<5.5 339> 806 272<567.5 935> 1540 20G<227 681.5>
VStem: 466 406<95 337.234>
LayerCount: 2
Fore
SplineSet
755 1175 m 2
 689 1245 l 2
 676 1259 678 1262 693 1279 c 2
 917 1537 l 2
 931 1553 943 1554 969 1554 c 2
 1136 1554 l 2
 1160 1554 1169 1551 1175 1537 c 2
 1290 1280 l 2
 1295 1269 1292 1258 1281 1245 c 2
 1216 1171 l 2
 1201 1154 1199 1158 1186 1170 c 2
 1040 1315 l 2
 1026 1328 1014 1329 995 1316 c 2
 786 1169 l 2
 770 1158 765 1164 755 1175 c 2
EndSplineSet
Refer: 45 104 N 1 0 0 1 0 0 3
Substitution2: "'smcp' Lowercase to Small Capitals in Latin lookup 0 subtable" hcircumflex.sc
EndChar

StartChar: uni0237
Encoding: 567 567 357
GlifName: uni0237
Width: 544
Flags: W
HStem: -520 180<-232 -18.3301> -34 20G<-311.5 -194>
AnchorPoint: "Anchor-0" 363 1040 basechar 0
LayerCount: 2
Fore
SplineSet
579 970 m 2
 359 0 l 2
 285 -322 256 -520 -121 -520 c 0
 -343 -520 -478 -392 -478 -258 c 0
 -478 -102 -370 -14 -253 -14 c 0
 -135 -14 -62 -76 -63 -190 c 0
 -63 -282 -115 -290 -116 -318 c 0
 -116 -330 -100 -340 -69 -340 c 0
 61 -340 -40 -33 11 206 c 2
 130 764 l 2
 141 815 149 830 114 830 c 2
 108 830 l 2
 71 830 71 846 72 888 c 2
 75 982 l 2
 77 1033 82 1040 122 1040 c 2
 522 1040 l 2
 598 1040 592 1027 579 970 c 2
EndSplineSet
EndChar

StartChar: kgreenlandic
Encoding: 312 312 362
GlifName: kgreenlandic
Width: 1067
Flags: W
HStem: -50 234<628.5 877.498> 0 21G<1.5 374.5> 890 190<780.863 987>
VStem: 826 319<689.884 888.205> 919 129<199.335 295.851>
LayerCount: 2
Fore
SplineSet
1048 241 m 0
 976 8 866 -50 706 -50 c 0
 551 -50 473 21 494 192 c 2
 510 320 l 2
 513 351 517 383 517 414 c 0
 517 436 517 447 514 447 c 0
 510 447 509 446 505 446 c 0
 501 446 497 447 494 448 c 0
 487 449 486 446 483 434 c 2
 406 52 l 2
 396 9 400 0 349 0 c 2
 35 0 l 2
 -32 0 -21 8 -9 60 c 2
 159 774 l 2
 169 821 170 830 141 830 c 2
 131 830 l 2
 98 830 93 836 93 878 c 2
 93 978 l 2
 93 1037 102 1040 159 1040 c 2
 538 1040 l 2
 599 1040 614 1031 599 962 c 2
 559 780 l 2
 554 760 550 753 560 755 c 0
 567 756 571 757 577 757 c 0
 581 757 588 756 592 756 c 0
 597 756 599 760 605 775 c 0
 608 781 609 787 612 794 c 0
 686 966 742 1080 910 1080 c 0
 1064 1080 1145 972 1145 828 c 0
 1145 700 1048 598 936 598 c 0
 837 598 782 666 784 756 c 0
 785 820 825 853 826 875 c 0
 826 884 824 890 816 890 c 0
 801 890 777 855 741 750 c 0
 739 745 736 740 734 734 c 0
 727 718 727 702 750 682 c 0
 839 605 867 477 847 336 c 2
 837 228 l 2
 833 200 837 184 860 184 c 0
 882 184 898 224 919 292 c 0
 928 319 947 309 973 305 c 2
 1034 296 l 2
 1052 293 1059 278 1048 241 c 0
EndSplineSet
EndChar

StartChar: Lslash
Encoding: 321 321 371
GlifName: L_slash
Width: 1100
Flags: W
HStem: 0 270<-79.964 67.4886 537.525 714.098> 1230 270<170.087 261.44 730.002 919.811>
LayerCount: 2
Fore
SplineSet
14 736 m 2
 828 1039 l 2
 849 1048 861 1052 861 1022 c 2
 861 813 l 2
 861 788 859 784 838 771 c 2
 20 465 l 2
 0 453 -10 454 -10 484 c 2
 -10 695 l 2
 -10 725 -3 725 14 736 c 2
EndSplineSet
Refer: 23 76 N 1 0 0 1 0 0 2
EndChar

StartChar: lslash
Encoding: 322 322 372
GlifName: lslash
Width: 583
Flags: W
HStem: -50 234<148 416.216> 1540 20G<196.5 680>
VStem: -6 408<94 371.938>
LayerCount: 2
Fore
SplineSet
15 946 m 2
 699 1169 l 2
 720 1178 732 1182 732 1152 c 2
 732 943 l 2
 732 918 730 914 709 901 c 2
 21 675 l 2
 1 663 -9 664 -9 694 c 2
 -9 905 l 2
 -9 935 -2 935 15 946 c 2
EndSplineSet
Refer: 49 108 N 1 0 0 1 0 0 2
EndChar

StartChar: Eng
Encoding: 330 330 380
GlifName: E_ng
Width: 1326
Flags: W
HStem: -520 180<431 682.881> -34 20G<338 470> 0 270<-69 90.0469> 1230 270<156.036 284.786> 1518 20G<1075 1256>
LayerCount: 2
Fore
SplineSet
196 1500 m 2
 792 1500 l 2
 828 1500 838 1492 831 1462 c 2
 803 1360 l 2
 791 1310 804.876884281 1297.61628432 839 1352 c 0
 903 1454 998 1538 1152 1538 c 0
 1360 1538 1443.25216963 1405.63700694 1386 1142 c 2
 1138 0 l 2
 1068 -324 972 -520 572 -520 c 0
 290 -520 136 -382 136 -248 c 0
 136 -92 274 -14 402 -14 c 0
 538 -14 632 -76 632 -190 c 0
 632 -282 574 -290 574 -318 c 0
 574 -330 594 -340 628 -340 c 0
 768 -340 625 -125 700 206 c 2
 894 1080 l 2
 912.332301949 1162.58985517 936 1236 884 1236 c 0
 837 1236 713 958 659 701 c 2
 522 48 l 2
 513 7 503 0 454 0 c 2
 -36 0 l 2
 -63 0 -69 5 -69 34 c 2
 -69 240 l 2
 -69 262 -66 270 -45 270 c 2
 54 270 l 2
 85 270 82 276 87 300 c 2
 282 1174 l 2
 293 1222 294 1230 231 1230 c 2
 203 1230 l 2
 161 1230 156 1238 156 1278 c 2
 156 1456 l 2
 156 1493 160 1500 196 1500 c 2
EndSplineSet
EndChar

